{
.appVersion = "1352";
copyright = "Copyright 2019 The Bayon Project Authors (https://github.com/danhhong/Bayon)";
customParameters = (
{
name = "Use Typo Metrics";
value = 1;
},
{
name = license;
value = "This Font Software is licensed under the SIL Open Font License, Version 1.1. This license is available with a FAQ at: https://scripts.sil.org/OFL";
},
{
name = licenseURL;
value = "https://scripts.sil.org/OFL";
},
{
name = fsType;
value = (
);
}
);
date = "2020-02-19 02:17:00 +0000";
designer = "Danh Hong";
designerURL = "http://www.nextspell.com";
disablesAutomaticAlignment = 1;
disablesNiceNames = 1;
familyName = Bayon;
featurePrefixes = (
{
code = "lookup lookup_0 {\012sub uni17B7 by uni17B7.r;\012sub uni17B8 by uni17B8.r;\012sub uni17B9 by uni17B9.r;\012sub uni17BA by uni17BA.r;\012sub uni17C6 by uni17C6.r;\012sub uni17C9 by uni17C9.r;\012sub uni17CD by uni17CD.r;\012sub uni17B7_17CD by iMark_17CDkhmer.r;\012} lookup_0;\012";
name = lookup_0;
},
{
code = "lookup lookup_1 {\012sub uni17BB by uni17BB.b;\012sub uni17BC by uni17BC.b;\012sub uni17BD by uni17BD.b;\012} lookup_1;\012";
name = lookup_1;
},
{
code = "lookup lookup_10 {\012sub uni17D2_1798 by coeng_1798khmer.b;\012sub uni17D2_17A0 by coeng_17A0khmer.b;\012} lookup_10;\012";
name = lookup_10;
},
{
code = "lookup lookup_11 {\012sub uni1794 by uni1794.a;\012} lookup_11;\012";
name = lookup_11;
},
{
code = "lookup lookup_12 {\012sub uni17D2179A by uni17D2179A.b;\012} lookup_12;\012";
name = lookup_12;
},
{
code = "lookup lookup_13 {\012sub uni17B7 by uni17B7.a;\012sub uni17B8 by uni17B8.a;\012sub uni17B9 by uni17B9.a;\012sub uni17BA by uni17BA.a;\012sub uni17BE by uni17B8.a;\012sub uni17C6 by uni17C6.a;\012} lookup_13;\012";
name = lookup_13;
},
{
code = "lookup lookup_14 {\012sub uni1789 by uni1789.a;\012} lookup_14;\012";
name = lookup_14;
},
{
code = "lookup lookup_15 {\012sub uni17BF by uni17BF.b;\012sub uni17C0 by uni17C0.b;\012} lookup_15;\012";
name = lookup_15;
},
{

glyphs = (
{
glyphname = A;
lastChange = "2021-05-21 11:44:53 +0000";
layers = (
{
layerId = "9A482FC5-A609-4CB4-BB30-47322087609F";
paths = (
{
closed = 1;
nodes = (
"12 3 OFFCURVE",
"15 0 OFFCURVE",
"20 0 CURVE SMOOTH",
"248 0 LINE SMOOTH",
"253 0 OFFCURVE",
"257 3 OFFCURVE",
"258 10 CURVE SMOOTH",
"280 160 LINE",
"559 160 LINE",
"581 10 LINE SMOOTH",
"582 3 OFFCURVE",
"586 0 OFFCURVE",
"592 0 CURVE SMOOTH",
"819 0 LINE SMOOTH",
"826 0 OFFCURVE",
"828 3 OFFCURVE",
"827 10 CURVE SMOOTH",
"583 1417 LINE SMOOTH",
"582 1422 OFFCURVE",
"578 1425 OFFCURVE",
"573 1425 CURVE SMOOTH",
"276 1425 LINE SMOOTH",
"271 1425 OFFCURVE",
"267 1422 OFFCURVE",
"266 1417 CURVE SMOOTH",
"12 10 LINE"
);
},
{
closed = 1;
nodes = (
"518 379 LINE",
"321 379 LINE",
"413 954 LINE",
"422 1030 LINE",
"434 954 LINE"
);
}
);
userData = {
assembly = "NPUSHB[ ]	/* 34 values pushed */\01225 1 4 0 1 76 0 4 0 2 1 4 2 104 0 0 0 31 77 3 1 1 1 32 1 78 19 19 19 51 50 5 8 27 \012CALL[ ]	/* CallFunction */";
};
width = 874;
}
);
note = A;
unicode = 0041;
},
{
glyphname = B;
lastChange = "2021-05-21 11:44:53 +0000";
layers = (
{
layerId = "9A482FC5-A609-4CB4-BB30-47322087609F";
paths = (
{
closed = 1;
nodes = (
"615 0 OFFCURVE",
"750 84 OFFCURVE",
"827 215 CURVE SMOOTH",
"865 280 OFFCURVE",
"884 353 OFFCURVE",
"884 432 CURVE SMOOTH",
"884 547 OFFCURVE",
"838 654 OFFCURVE",
"759 733 CURVE",
"832 796 OFFCURVE",
"894 903 OFFCURVE",
"894 1020 CURVE SMOOTH",
"894 1164 OFFCURVE",
"819 1294 OFFCURVE",
"696 1369 CURVE SMOOTH",
"634 1406 OFFCURVE",
"564 1425 OFFCURVE",
"487 1425 CURVE SMOOTH",
"93 1425 LINE SMOOTH",
"88 1425 OFFCURVE",
"85 1422 OFFCURVE",
"85 1417 CURVE SMOOTH",
"81 10 LINE SMOOTH",
"81 3 OFFCURVE",
"84 0 OFFCURVE",
"89 0 CURVE SMOOTH",
"456 0 LINE SMOOTH"
);
},
{
closed = 1;
nodes = (
"574 1182 OFFCURVE",
"646 1107 OFFCURVE",
"646 1020 CURVE SMOOTH",
"646 941 OFFCURVE",
"582 860 OFFCURVE",
"487 860 CURVE SMOOTH",
"331 860 LINE",
"331 1182 LINE",
"487 1182 LINE SMOOTH"
);
},
{
closed = 1;
nodes = (
"555 612 OFFCURVE",
"636 531 OFFCURVE",
"636 432 CURVE SMOOTH",
"636 333 OFFCURVE",
"555 250 OFFCURVE",
"456 250 CURVE SMOOTH",
"329 250 LINE",
"331 612 LINE",
"456 612 LINE SMOOTH"
);
}
);
userData = {
assembly = "NPUSHB[ ]	/* 65 values pushed */\01215 1 4 3 1 76 0 3 8 1 4 5 3 4 105 7 1 2 2 1 95 0 1 1 31 77 0 5 5 0 95 6 1 0 0 32 0 78 33 32 23 22 1 0 37 34 32 41 33 41 27 24 22 31 23 31 9 5 0 21 1 21 9 8 22 \012CALL[ ]	/* CallFunction */";
};
width = 950;
}
);
note = B;
unicode = 0042;
},
{
glyphname = C;
lastChange = "2021-05-21 11:44:53 +0000";
layers = (
{
layerId = "9A482FC5-A609-4CB4-BB30-47322087609F";
paths = (
{
closed = 1;
nodes = (
"609 -20 OFFCURVE",
"733 61 OFFCURVE",
"806 187 CURVE SMOOTH",
"842 250 OFFCURVE",
"860 320 OFFCURVE",
"860 397 CURVE SMOOTH",
"860 492 LINE SMOOTH",
"860 497 OFFCURVE",
"857 500 OFFCURVE",
"852 500 CURVE SMOOTH",
"620 500 LINE SMOOTH",
"615 500 OFFCURVE",
"612 497 OFFCURVE",
"612 492 CURVE SMOOTH",
"612 397 LINE SMOOTH",
"612 310 OFFCURVE",
"546 227 OFFCURVE",
"458 227 CURVE SMOOTH",
"374 227 OFFCURVE",
"307 297 OFFCURVE",
"307 397 CURVE SMOOTH",
"307 1036 LINE SMOOTH",
"307 1124 OFFCURVE",
"361 1202 OFFCURVE",
"458 1202 CURVE SMOOTH",
"546 1202 OFFCURVE",
"612 1127 OFFCURVE",
"612 1036 CURVE SMOOTH",
"612 942 LINE SMOOTH",
"612 937 OFFCURVE",
"615 934 OFFCURVE",
"620 934 CURVE SMOOTH",
"850 934 LINE SMOOTH",
"855 934 OFFCURVE",
"858 937 OFFCURVE",
"858 942 CURVE SMOOTH",
"858 1036 LINE SMOOTH",
"858 1189 OFFCURVE",
"781 1319 OFFCURVE",
"661 1393 CURVE SMOOTH",
"601 1430 OFFCURVE",
"533 1448 OFFCURVE",
"458 1448 CURVE SMOOTH",
"309 1448 OFFCURVE",
"180 1366 OFFCURVE",
"111 1242 CURVE SMOOTH",
"76 1180 OFFCURVE",
"59 1111 OFFCURVE",
"59 1036 CURVE SMOOTH",
"57 397 LINE SMOOTH",
"57 242 OFFCURVE",
"133 111 OFFCURVE",
"255 36 CURVE SMOOTH",
"316 -1 OFFCURVE",
"383 -20 OFFCURVE",
"458 -20 CURVE SMOOTH"
);
}
);
userData = {
assembly = "NPUSHB[ ]	/* 66 values pushed */\01221 1 2 3 41 1 4 5 2 76 0 2 3 5 3 2 5 128 0 5 4 3 5 4 126 0 3 3 1 97 0 1 1 40 77 0 4 4 0 97 6 1 0 0 38 0 78 2 0 38 35 32 30 25 23 18 15 11 9 0 44 2 44 7 8 22 \012CALL[ ]	/* CallFunction */";
};
width = 927;
}
);
note = C;
unicode = 0043;
},
{
glyphname = D;
lastChange = "2021-05-21 11:44:53 +0000";
layers = (
{
layerId = "9A482FC5-A609-4CB4-BB30-47322087609F";
paths = (
{
closed = 1;
nodes = (
"619 5 OFFCURVE",
"752 87 OFFCURVE",
"829 216 CURVE SMOOTH",
"867 281 OFFCURVE",
"886 353 OFFCURVE",
"886 432 CURVE SMOOTH",
"886 1020 LINE SMOOTH",
"886 1171 OFFCURVE",
"806 1301 OFFCURVE",
"682 1375 CURVE SMOOTH",
"620 1412 OFFCURVE",
"551 1429 OFFCURVE",
"476 1427 CURVE SMOOTH",
"93 1425 LINE SMOOTH",
"88 1425 OFFCURVE",
"85 1422 OFFCURVE",
"85 1417 CURVE SMOOTH",
"81 10 LINE SMOOTH",
"81 3 OFFCURVE",
"84 0 OFFCURVE",
"91 0 CURVE SMOOTH",
"458 2 LINE SMOOTH"
);
},
{
closed = 1;
nodes = (
"564 1185 OFFCURVE",
"638 1109 OFFCURVE",
"638 1022 CURVE SMOOTH",
"638 432 LINE SMOOTH",
"638 333 OFFCURVE",
"559 252 OFFCURVE",
"458 252 CURVE SMOOTH",
"331 252 LINE",
"333 1180 LINE",
"476 1182 LINE SMOOTH"
);
}
);
userData = {
assembly = "NPUSHB[ ]	/* 48 values pushed */\0124 1 0 3 1 76 5 1 2 2 1 95 0 1 1 31 77 0 3 3 0 95 4 1 0 0 32 0 78 18 17 1 0 22 19 17 27 18 27 9 5 0 16 1 16 6 8 22 \012CALL[ ]	/* CallFunction */";
};
width = 966;
}
);
note = D;
unicode = 0044;
},
{
glyphname = E;
lastChange = "2021-05-21 11:44:53 +0000";
layers = (
{
layerId = "9A482FC5-A609-4CB4-BB30-47322087609F";
paths = (
{
closed = 1;
nodes = (
"756 0 OFFCURVE",
"759 3 OFFCURVE",
"759 8 CURVE SMOOTH",
"759 242 LINE SMOOTH",
"759 249 OFFCURVE",
"756 252 OFFCURVE",
"751 252 CURVE SMOOTH",
"329 252 LINE",
"329 610 LINE",
"751 610 LINE SMOOTH",
"756 610 OFFCURVE",
"759 613 OFFCURVE",
"759 618 CURVE SMOOTH",
"757 850 LINE SMOOTH",
"757 855 OFFCURVE",
"754 858 OFFCURVE",
"749 858 CURVE SMOOTH",
"329 858 LINE",
"329 1178 LINE",
"749 1178 LINE SMOOTH",
"754 1178 OFFCURVE",
"757 1181 OFFCURVE",
"757 1186 CURVE SMOOTH",
"757 1415 LINE SMOOTH",
"757 1422 OFFCURVE",
"754 1425 OFFCURVE",
"749 1425 CURVE SMOOTH",
"91 1425 LINE SMOOTH",
"86 1425 OFFCURVE",
"83 1422 OFFCURVE",
"83 1417 CURVE SMOOTH",
"81 10 LINE SMOOTH",
"81 3 OFFCURVE",
"84 0 OFFCURVE",
"89 0 CURVE SMOOTH",
"751 0 LINE SMOOTH"
);
}
);
userData = {
assembly = "NPUSHB[ ]	/* 49 values pushed */\0120 3 0 4 5 3 4 103 0 2 2 1 95 0 1 1 31 77 0 5 5 0 95 6 1 0 0 32 0 78 1 0 24 23 22 19 16 15 14 11 8 5 0 28 1 27 7 8 22 \012CALL[ ]	/* CallFunction */";
};
width = 860;
}
);
note = E;
unicode = 0045;
},
{
glyphname = F;
lastChange = "2021-05-21 11:44:53 +0000";
layers = (
{
layerId = "9A482FC5-A609-4CB4-BB30-47322087609F";
paths = (
{
closed = 1;
nodes = (
"328 0 OFFCURVE",
"331 3 OFFCURVE",
"331 10 CURVE SMOOTH",
"331 610 LINE",
"751 610 LINE SMOOTH",
"758 610 OFFCURVE",
"761 613 OFFCURVE",
"761 618 CURVE SMOOTH",
"759 850 LINE SMOOTH",
"759 857 OFFCURVE",
"756 860 OFFCURVE",
"751 860 CURVE SMOOTH",
"331 860 LINE",
"331 1178 LINE",
"751 1178 LINE SMOOTH",
"756 1178 OFFCURVE",
"759 1181 OFFCURVE",
"759 1186 CURVE SMOOTH",
"759 1417 LINE SMOOTH",
"759 1422 OFFCURVE",
"756 1425 OFFCURVE",
"749 1425 CURVE SMOOTH",
"93 1425 LINE SMOOTH",
"88 1425 OFFCURVE",
"85 1422 OFFCURVE",
"85 1417 CURVE SMOOTH",
"81 10 LINE SMOOTH",
"81 3 OFFCURVE",
"84 0 OFFCURVE",
"91 0 CURVE SMOOTH",
"321 0 LINE SMOOTH"
);
}
);
userData = {
assembly = "NPUSHB[ ]	/* 39 values pushed */\01223 4 2 0 4 1 76 0 3 0 4 0 3 4 103 0 2 2 1 95 0 1 1 31 77 0 0 0 32 0 78 51 17 51 52 16 5 8 27 \012CALL[ ]	/* CallFunction */";
};
width = 862;
}
);
note = F;
unicode = 0046;
},
{
glyphname = G;
lastChange = "2021-05-21 11:44:53 +0000";
layers = (
{
layerId = "9A482FC5-A609-4CB4-BB30-47322087609F";
paths = (
{
closed = 1;
nodes = (
"607 -20 OFFCURVE",
"731 59 OFFCURVE",
"804 183 CURVE SMOOTH",
"840 245 OFFCURVE",
"858 314 OFFCURVE",
"858 391 CURVE SMOOTH",
"858 731 LINE SMOOTH",
"858 738 OFFCURVE",
"855 741 OFFCURVE",
"850 741 CURVE SMOOTH",
"467 741 LINE SMOOTH",
"460 741 OFFCURVE",
"456 738 OFFCURVE",
"456 731 CURVE SMOOTH",
"456 502 LINE SMOOTH",
"456 495 OFFCURVE",
"460 492 OFFCURVE",
"467 492 CURVE SMOOTH",
"610 492 LINE",
"610 391 LINE SMOOTH",
"610 299 OFFCURVE",
"544 227 OFFCURVE",
"456 227 CURVE SMOOTH",
"375 227 OFFCURVE",
"305 302 OFFCURVE",
"305 391 CURVE SMOOTH",
"305 1040 LINE SMOOTH",
"305 1128 OFFCURVE",
"377 1204 OFFCURVE",
"456 1204 CURVE SMOOTH",
"544 1204 OFFCURVE",
"610 1128 OFFCURVE",
"610 1024 CURVE SMOOTH",
"610 946 LINE SMOOTH",
"610 941 OFFCURVE",
"613 938 OFFCURVE",
"618 938 CURVE SMOOTH",
"848 938 LINE SMOOTH",
"855 938 OFFCURVE",
"858 941 OFFCURVE",
"858 946 CURVE SMOOTH",
"858 1040 LINE SMOOTH",
"858 1193 OFFCURVE",
"781 1321 OFFCURVE",
"660 1394 CURVE SMOOTH",
"599 1430 OFFCURVE",
"531 1448 OFFCURVE",
"456 1448 CURVE SMOOTH",
"312 1448 OFFCURVE",
"184 1368 OFFCURVE",
"112 1244 CURVE SMOOTH",
"75 1182 OFFCURVE",
"57 1114 OFFCURVE",
"57 1040 CURVE SMOOTH",
"57 391 LINE SMOOTH",
"57 238 OFFCURVE",
"136 108 OFFCURVE",
"256 35 CURVE SMOOTH",
"316 -2 OFFCURVE",
"383 -20 OFFCURVE",
"456 -20 CURVE SMOOTH"
);
}
);
userData = {
assembly = "NPUSHB[ ]	/* 70 values pushed */\01221 1 2 3 39 38 2 5 6 2 76 0 2 3 6 3 2 6 128 0 6 0 5 4 6 5 103 0 3 3 1 97 0 1 1 40 77 0 4 4 0 97 7 1 0 0 38 0 78 2 0 42 41 36 35 32 30 25 23 18 15 11 9 0 48 2 48 8 8 22 \012CALL[ ]	/* CallFunction */";
};
width = 921;
}
);
note = G;
unicode = 0047;
},
{
glyphname = H;
lastChange = "2021-05-21 11:44:53 +0000";
layers = (
{
layerId = "9A482FC5-A609-4CB4-BB30-47322087609F";
paths = (
{
closed = 1;
nodes = (
"326 0 OFFCURVE",
"329 3 OFFCURVE",
"329 10 CURVE SMOOTH",
"329 612 LINE",
"636 612 LINE",
"636 10 LINE SMOOTH",
"636 3 OFFCURVE",
"639 0 OFFCURVE",
"646 0 CURVE SMOOTH",
"876 0 LINE SMOOTH",
"883 0 OFFCURVE",
"886 3 OFFCURVE",
"886 10 CURVE SMOOTH",
"882 1417 LINE SMOOTH",
"882 1422 OFFCURVE",
"879 1425 OFFCURVE",
"872 1425 CURVE SMOOTH",
"644 1425 LINE SMOOTH",
"639 1425 OFFCURVE",
"636 1422 OFFCURVE",
"636 1417 CURVE SMOOTH",
"636 860 LINE",
"329 860 LINE",
"331 1417 LINE SMOOTH",
"331 1422 OFFCURVE",
"328 1425 OFFCURVE",
"321 1425 CURVE SMOOTH",
"93 1425 LINE SMOOTH",
"86 1425 OFFCURVE",
"83 1422 OFFCURVE",
"83 1417 CURVE SMOOTH",
"81 10 LINE SMOOTH",
"81 3 OFFCURVE",
"84 0 OFFCURVE",
"89 0 CURVE SMOOTH",
"321 0 LINE SMOOTH"
);
}
);
userData = {
assembly = "NPUSHB[ ]	/* 48 values pushed */\01224 19 2 0 5 1 76 0 2 0 5 0 2 5 103 3 1 1 1 31 77 4 6 2 0 0 32 0 78 1 0 26 25 22 21 16 13 12 11 8 5 0 28 1 27 7 8 22 \012CALL[ ]	/* CallFunction */";
};
width = 972;
}
);
note = H;
unicode = 0048;
},
{
glyphname = I;
lastChange = "2021-05-21 11:44:53 +0000";
layers = (
{
layerId = "9A482FC5-A609-4CB4-BB30-47322087609F";
paths = (
{
closed = 1;
nodes = (
"328 0 OFFCURVE",
"331 3 OFFCURVE",
"331 10 CURVE SMOOTH",
"329 1417 LINE SMOOTH",
"329 1422 OFFCURVE",
"326 1425 OFFCURVE",
"321 1425 CURVE SMOOTH",
"91 1425 LINE SMOOTH",
"86 1425 OFFCURVE",
"83 1422 OFFCURVE",
"83 1417 CURVE SMOOTH",
"81 10 LINE SMOOTH",
"81 3 OFFCURVE",
"84 0 OFFCURVE",
"91 0 CURVE SMOOTH",
"323 0 LINE SMOOTH"
);
}
);
userData = {
assembly = "NPUSHB[ ]	/* 29 values pushed */\0124 1 0 1 1 76 0 1 1 31 77 2 1 0 0 32 0 78 1 0 8 5 0 12 1 11 3 8 22 \012CALL[ ]	/* CallFunction */";
};
width = 430;
}
);
note = I;
unicode = 0049;
},
{
glyphname = J;
lastChange = "2021-05-21 11:44:53 +0000";
layers = (
{
layerId = "9A482FC5-A609-4CB4-BB30-47322087609F";
paths = (
{
closed = 1;
nodes = (
"565 -20 OFFCURVE",
"690 62 OFFCURVE",
"763 190 CURVE SMOOTH",
"799 253 OFFCURVE",
"817 322 OFFCURVE",
"817 397 CURVE SMOOTH",
"815 1413 LINE SMOOTH",
"815 1420 OFFCURVE",
"812 1423 OFFCURVE",
"807 1423 CURVE SMOOTH",
"577 1423 LINE SMOOTH",
"572 1423 OFFCURVE",
"569 1420 OFFCURVE",
"569 1415 CURVE SMOOTH",
"569 397 LINE SMOOTH",
"569 308 OFFCURVE",
"500 227 OFFCURVE",
"417 227 CURVE SMOOTH",
"328 227 OFFCURVE",
"264 297 OFFCURVE",
"264 397 CURVE SMOOTH",
"264 489 LINE SMOOTH",
"264 496 OFFCURVE",
"261 500 OFFCURVE",
"256 500 CURVE SMOOTH",
"24 500 LINE SMOOTH",
"19 500 OFFCURVE",
"16 497 OFFCURVE",
"16 492 CURVE SMOOTH",
"16 397 LINE SMOOTH",
"16 240 OFFCURVE",
"90 106 OFFCURVE",
"212 34 CURVE SMOOTH",
"273 -2 OFFCURVE",
"341 -20 OFFCURVE",
"417 -20 CURVE SMOOTH"
);
}
);
userData = {
assembly = "NPUSHB[ ]	/* 46 values pushed */\01212 1 2 1 1 76 0 1 3 2 3 1 2 128 0 3 3 31 77 0 2 2 0 97 4 1 0 0 38 0 78 2 0 22 19 16 14 9 6 0 28 2 28 5 8 22 \012CALL[ ]	/* CallFunction */";
};
width = 890;
}
);
note = J;
unicode = 004A;
},
{
glyphname = K;
lastChange = "2021-05-21 11:44:53 +0000";
layers = (
{
layerId = "9A482FC5-A609-4CB4-BB30-47322087609F";
paths = (
{
closed = 1;
nodes = (
"326 0 OFFCURVE",
"329 3 OFFCURVE",
"329 10 CURVE SMOOTH",
"329 498 LINE",
"400 610 LINE",
"677 8 LINE",
"678 3 OFFCURVE",
"682 0 OFFCURVE",
"689 0 CURVE SMOOTH",
"939 0 LINE SMOOTH",
"948 0 OFFCURVE",
"952 3 OFFCURVE",
"949 8 CURVE SMOOTH",
"552 852 LINE",
"906 1417 LINE SMOOTH",
"909 1422 OFFCURVE",
"907 1425 OFFCURVE",
"902 1425 CURVE SMOOTH",
"667 1425 LINE SMOOTH",
"662 1425 OFFCURVE",
"657 1422 OFFCURVE",
"652 1417 CURVE",
"331 930 LINE",
"331 1415 LINE SMOOTH",
"331 1422 OFFCURVE",
"328 1425 OFFCURVE",
"323 1425 CURVE SMOOTH",
"93 1425 LINE SMOOTH",
"88 1425 OFFCURVE",
"85 1422 OFFCURVE",
"85 1415 CURVE SMOOTH",
"81 10 LINE SMOOTH",
"81 3 OFFCURVE",
"84 0 OFFCURVE",
"89 0 CURVE SMOOTH",
"321 0 LINE SMOOTH"
);
}
);
userData = {
assembly = "NPUSHB[ ]	/* 38 values pushed */\01226 25 18 11 4 0 1 1 76 2 1 1 1 31 77 3 4 2 0 0 32 0 78 1 0 22 19 15 14 8 5 0 28 1 27 5 8 22 \012CALL[ ]	/* CallFunction */";
};
width = 960;
}
);
note = K;
unicode = 004B;
},
{
glyphname = L;
lastChange = "2021-05-21 11:44:53 +0000";
layers = (
{
layerId = "9A482FC5-A609-4CB4-BB30-47322087609F";
paths = (
{
closed = 1;
nodes = (
"758 0 OFFCURVE",
"761 3 OFFCURVE",
"761 10 CURVE SMOOTH",
"761 242 LINE SMOOTH",
"761 249 OFFCURVE",
"758 252 OFFCURVE",
"751 252 CURVE SMOOTH",
"329 252 LINE",
"331 1415 LINE SMOOTH",
"331 1422 OFFCURVE",
"328 1425 OFFCURVE",
"321 1425 CURVE SMOOTH",
"93 1425 LINE SMOOTH",
"86 1425 OFFCURVE",
"83 1422 OFFCURVE",
"83 1415 CURVE SMOOTH",
"81 10 LINE SMOOTH",
"81 3 OFFCURVE",
"84 0 OFFCURVE",
"89 0 CURVE SMOOTH",
"751 0 LINE SMOOTH"
);
}
);
userData = {
assembly = "NPUSHB[ ]	/* 34 values pushed */\01210 5 2 2 1 15 14 2 0 2 2 76 0 1 1 31 77 0 2 2 0 96 0 0 0 32 0 78 19 22 16 3 8 25 \012CALL[ ]	/* CallFunction */";
};
width = 813;
}
);
note = L;
unicode = 004C;
},
{
glyphname = M;
lastChange = "2021-05-21 11:44:53 +0000";
layers = (
{
layerId = "9A482FC5-A609-4CB4-BB30-47322087609F";
paths = (
{
closed = 1;
nodes = (
"326 0 OFFCURVE",
"329 3 OFFCURVE",
"329 10 CURVE SMOOTH",
"331 1055 LINE",
"544 743 LINE",
"759 1055 LINE",
"761 10 LINE SMOOTH",
"761 3 OFFCURVE",
"764 0 OFFCURVE",
"769 0 CURVE SMOOTH",
"1001 0 LINE SMOOTH",
"1006 0 OFFCURVE",
"1009 3 OFFCURVE",
"1009 10 CURVE SMOOTH",
"1005 1417 LINE SMOOTH",
"1005 1422 OFFCURVE",
"1002 1425 OFFCURVE",
"996 1425 CURVE SMOOTH",
"745 1425 LINE SMOOTH",
"739 1425 OFFCURVE",
"734 1422 OFFCURVE",
"730 1417 CURVE SMOOTH",
"544 1147 LINE",
"357 1417 LINE SMOOTH",
"353 1422 OFFCURVE",
"348 1425 OFFCURVE",
"343 1425 CURVE SMOOTH",
"93 1425 LINE SMOOTH",
"88 1425 OFFCURVE",
"85 1422 OFFCURVE",
"85 1417 CURVE SMOOTH",
"81 10 LINE SMOOTH",
"81 3 OFFCURVE",
"84 0 OFFCURVE",
"89 0 CURVE SMOOTH",
"321 0 LINE SMOOTH"
);
}
);
userData = {
assembly = "NPUSHB[ ]	/* 38 values pushed */\01226 25 24 11 4 0 1 1 76 2 1 1 1 31 77 3 4 2 0 0 32 0 78 1 0 21 18 15 14 8 5 0 28 1 27 5 8 22 \012CALL[ ]	/* CallFunction */";
};
width = 1099;
}
);
note = M;
unicode = 004D;
},
{
glyphname = N;
lastChange = "2021-05-21 11:44:53 +0000";
layers = (
{
layerId = "9A482FC5-A609-4CB4-BB30-47322087609F";
paths = (
{
closed = 1;
nodes = (
"317 0 OFFCURVE",
"323 5 OFFCURVE",
"323 16 CURVE SMOOTH",
"308 754 LINE",
"663 0 LINE",
"843 0 LINE SMOOTH",
"850 0 OFFCURVE",
"853 4 OFFCURVE",
"853 12 CURVE SMOOTH",
"851 1409 LINE SMOOTH",
"851 1420 OFFCURVE",
"847 1425 OFFCURVE",
"839 1425 CURVE SMOOTH",
"636 1425 LINE SMOOTH",
"624 1425 OFFCURVE",
"618 1420 OFFCURVE",
"618 1409 CURVE SMOOTH",
"628 618 LINE",
"282 1425 LINE",
"97 1425 LINE SMOOTH",
"86 1425 OFFCURVE",
"81 1420 OFFCURVE",
"81 1409 CURVE SMOOTH",
"83 14 LINE SMOOTH",
"83 5 OFFCURVE",
"88 0 OFFCURVE",
"99 0 CURVE SMOOTH",
"304 0 LINE SMOOTH"
);
}
);
userData = {
assembly = "NPUSHB[ ]	/* 33 values pushed */\01221 20 16 15 10 9 5 4 8 0 1 1 76 2 1 1 1 31 77 3 1 0 0 32 0 78 21 20 22 16 4 8 26 \012CALL[ ]	/* CallFunction */";
};
width = 950;
}
);
note = N;
unicode = 004E;
},
{
glyphname = O;
lastChange = "2021-05-21 11:44:53 +0000";
layers = (
{
layerId = "9A482FC5-A609-4CB4-BB30-47322087609F";
paths = (
{
closed = 1;
nodes = (
"608 -20 OFFCURVE",
"735 61 OFFCURVE",
"808 186 CURVE SMOOTH",
"844 248 OFFCURVE",
"862 316 OFFCURVE",
"862 391 CURVE SMOOTH",
"860 1040 LINE SMOOTH",
"860 1191 OFFCURVE",
"781 1319 OFFCURVE",
"661 1393 CURVE SMOOTH",
"601 1430 OFFCURVE",
"534 1448 OFFCURVE",
"460 1448 CURVE SMOOTH",
"316 1448 OFFCURVE",
"186 1368 OFFCURVE",
"114 1245 CURVE SMOOTH",
"77 1184 OFFCURVE",
"59 1115 OFFCURVE",
"59 1040 CURVE SMOOTH",
"57 391 LINE SMOOTH",
"57 242 OFFCURVE",
"138 111 OFFCURVE",
"259 36 CURVE SMOOTH",
"320 -1 OFFCURVE",
"387 -20 OFFCURVE",
"460 -20 CURVE SMOOTH"
);
},
{
closed = 1;
nodes = (
"376 227 OFFCURVE",
"307 302 OFFCURVE",
"307 391 CURVE SMOOTH",
"307 1040 LINE SMOOTH",
"307 1133 OFFCURVE",
"376 1202 OFFCURVE",
"460 1202 CURVE SMOOTH",
"548 1202 OFFCURVE",
"612 1131 OFFCURVE",
"612 1040 CURVE SMOOTH",
"614 391 LINE SMOOTH",
"614 307 OFFCURVE",
"543 227 OFFCURVE",
"460 227 CURVE SMOOTH"
);
}
);
userData = {
assembly = "NPUSHB[ ]	/* 42 values pushed */\0120 3 3 1 97 0 1 1 40 77 5 1 2 2 0 97 4 1 0 0 38 0 78 21 19 2 0 28 26 19 33 21 33 11 9 0 18 2 18 6 8 22 \012CALL[ ]	/* CallFunction */";
};
width = 935;
}
);
note = O;
unicode = 004F;
},
{
glyphname = P;
lastChange = "2021-05-21 11:44:53 +0000";
layers = (
{
layerId = "9A482FC5-A609-4CB4-BB30-47322087609F";
paths = (
{
closed = 1;
nodes = (
"328 0 OFFCURVE",
"331 3 OFFCURVE",
"331 10 CURVE SMOOTH",
"331 526 LINE",
"487 526 LINE SMOOTH",
"631 526 OFFCURVE",
"760 606 OFFCURVE",
"837 748 CURVE SMOOTH",
"875 819 OFFCURVE",
"894 902 OFFCURVE",
"894 999 CURVE SMOOTH",
"894 1262 OFFCURVE",
"738 1425 OFFCURVE",
"487 1425 CURVE SMOOTH",
"93 1425 LINE SMOOTH",
"88 1425 OFFCURVE",
"85 1422 OFFCURVE",
"85 1417 CURVE SMOOTH",
"81 10 LINE SMOOTH",
"81 3 OFFCURVE",
"84 0 OFFCURVE",
"91 0 CURVE SMOOTH",
"321 0 LINE SMOOTH"
);
},
{
closed = 1;
nodes = (
"587 1182 OFFCURVE",
"648 1106 OFFCURVE",
"648 999 CURVE SMOOTH",
"648 866 OFFCURVE",
"574 774 OFFCURVE",
"487 774 CURVE SMOOTH",
"331 774 LINE",
"331 1180 LINE",
"487 1182 LINE SMOOTH"
);
}
);
userData = {
assembly = "NPUSHB[ ]	/* 46 values pushed */\01217 4 2 0 2 1 76 0 4 0 2 0 4 2 103 5 1 3 3 1 95 0 1 1 31 77 0 0 0 32 0 78 20 19 24 21 19 28 20 28 37 68 16 6 8 25 \012CALL[ ]	/* CallFunction */";
};
width = 935;
}
);
note = P;
unicode = 0050;
},
{
glyphname = Q;
lastChange = "2021-05-21 11:44:53 +0000";
layers = (
{
layerId = "9A482FC5-A609-4CB4-BB30-47322087609F";
paths = (
{
closed = 1;
nodes = (
"760 -135 OFFCURVE",
"765 -135 OFFCURVE",
"770 -131 CURVE",
"931 31 LINE",
"936 35 OFFCURVE",
"935 40 OFFCURVE",
"929 45 CURVE",
"802 174 LINE",
"838 237 OFFCURVE",
"862 312 OFFCURVE",
"862 391 CURVE SMOOTH",
"860 1040 LINE SMOOTH",
"860 1193 OFFCURVE",
"781 1321 OFFCURVE",
"660 1394 CURVE SMOOTH",
"599 1430 OFFCURVE",
"533 1448 OFFCURVE",
"460 1448 CURVE SMOOTH",
"311 1448 OFFCURVE",
"184 1366 OFFCURVE",
"113 1242 CURVE SMOOTH",
"77 1180 OFFCURVE",
"59 1113 OFFCURVE",
"59 1040 CURVE SMOOTH",
"57 391 LINE SMOOTH",
"57 242 OFFCURVE",
"137 108 OFFCURVE",
"260 35 CURVE SMOOTH",
"321 -2 OFFCURVE",
"388 -20 OFFCURVE",
"460 -20 CURVE SMOOTH",
"513 -20 OFFCURVE",
"565 -9 OFFCURVE",
"614 12 CURVE",
"755 -131 LINE"
);
},
{
closed = 1;
nodes = (
"384 227 OFFCURVE",
"307 292 OFFCURVE",
"307 391 CURVE SMOOTH",
"307 1040 LINE SMOOTH",
"307 1125 OFFCURVE",
"368 1202 OFFCURVE",
"460 1202 CURVE SMOOTH",
"548 1202 OFFCURVE",
"612 1128 OFFCURVE",
"612 1040 CURVE SMOOTH",
"614 391 LINE SMOOTH",
"614 312 OFFCURVE",
"553 227 OFFCURVE",
"460 227 CURVE SMOOTH"
);
}
);
userData = {
assembly = "NPUSHB[ ]	/* 43 values pushed */\01222 21 2 3 0 2 1 76 0 3 3 1 97 0 1 1 40 77 4 1 2 2 0 97 0 0 0 38 0 78 29 27 36 34 27 41 29 41 39 35 5 8 24 \012CALL[ ]	/* CallFunction */";
};
width = 954;
}
);
note = Q;
unicode = 0051;
},
{
glyphname = R;
lastChange = "2021-05-21 11:44:53 +0000";
layers = (
{
layerId = "9A482FC5-A609-4CB4-BB30-47322087609F";
paths = (
{
closed = 1;
nodes = (
"326 0 OFFCURVE",
"329 3 OFFCURVE",
"329 10 CURVE SMOOTH",
"331 612 LINE",
"466 612 LINE SMOOTH",
"567 612 OFFCURVE",
"646 529 OFFCURVE",
"646 430 CURVE SMOOTH",
"646 6 LINE SMOOTH",
"646 2 OFFCURVE",
"649 0 OFFCURVE",
"654 0 CURVE SMOOTH",
"886 0 LINE SMOOTH",
"893 0 OFFCURVE",
"896 3 OFFCURVE",
"896 10 CURVE SMOOTH",
"894 430 LINE SMOOTH",
"894 541 OFFCURVE",
"857 637 OFFCURVE",
"783 719 CURVE",
"816 746 OFFCURVE",
"861 803 OFFCURVE",
"892 884 CURVE SMOOTH",
"907 924 OFFCURVE",
"915 969 OFFCURVE",
"915 1020 CURVE SMOOTH",
"915 1173 OFFCURVE",
"835 1299 OFFCURVE",
"711 1371 CURVE SMOOTH",
"649 1407 OFFCURVE",
"581 1425 OFFCURVE",
"507 1425 CURVE SMOOTH",
"93 1425 LINE SMOOTH",
"88 1425 OFFCURVE",
"85 1422 OFFCURVE",
"85 1417 CURVE SMOOTH",
"81 10 LINE SMOOTH",
"81 3 OFFCURVE",
"84 0 OFFCURVE",
"89 0 CURVE SMOOTH",
"321 0 LINE SMOOTH"
);
},
{
closed = 1;
nodes = (
"595 1180 OFFCURVE",
"669 1107 OFFCURVE",
"669 1020 CURVE SMOOTH",
"669 929 OFFCURVE",
"591 858 OFFCURVE",
"507 858 CURVE SMOOTH",
"331 858 LINE",
"331 1180 LINE",
"507 1180 LINE SMOOTH"
);
}
);
userData = {
assembly = "NPUSHB[ ]	/* 60 values pushed */\01216 1 3 5 19 1 0 3 2 76 0 5 0 3 0 5 3 105 7 1 4 4 1 95 0 1 1 31 77 2 6 2 0 0 32 0 78 33 32 1 0 37 34 32 41 33 41 29 27 22 21 9 5 0 31 1 30 8 8 22 \012CALL[ ]	/* CallFunction */";
};
width = 987;
}
);
note = R;
unicode = 0052;
},
{
glyphname = S;
lastChange = "2021-05-21 11:44:53 +0000";
layers = (
{
layerId = "9A482FC5-A609-4CB4-BB30-47322087609F";
paths = (
{
closed = 1;
nodes = (
"577 -20 OFFCURVE",
"704 57 OFFCURVE",
"777 181 CURVE SMOOTH",
"813 243 OFFCURVE",
"831 313 OFFCURVE",
"831 391 CURVE SMOOTH",
"831 552 OFFCURVE",
"746 659 OFFCURVE",
"610 735 CURVE SMOOTH",
"593 744 OFFCURVE",
"429 832 OFFCURVE",
"409 844 CURVE SMOOTH",
"308 899 OFFCURVE",
"276 953 OFFCURVE",
"276 1042 CURVE SMOOTH",
"276 1130 OFFCURVE",
"345 1204 OFFCURVE",
"429 1204 CURVE SMOOTH",
"512 1204 OFFCURVE",
"581 1138 OFFCURVE",
"581 1042 CURVE SMOOTH",
"583 874 LINE SMOOTH",
"583 869 OFFCURVE",
"586 866 OFFCURVE",
"591 866 CURVE SMOOTH",
"821 866 LINE SMOOTH",
"826 866 OFFCURVE",
"829 869 OFFCURVE",
"829 874 CURVE SMOOTH",
"829 1042 LINE SMOOTH",
"829 1193 OFFCURVE",
"750 1319 OFFCURVE",
"629 1392 CURVE SMOOTH",
"568 1428 OFFCURVE",
"502 1446 OFFCURVE",
"429 1446 CURVE SMOOTH",
"288 1446 OFFCURVE",
"160 1369 OFFCURVE",
"86 1248 CURVE SMOOTH",
"49 1187 OFFCURVE",
"30 1119 OFFCURVE",
"30 1042 CURVE SMOOTH",
"30 877 OFFCURVE",
"102 741 OFFCURVE",
"251 653 CURVE SMOOTH",
"292 630 OFFCURVE",
"336 605 OFFCURVE",
"383 580 CURVE SMOOTH",
"429 554 OFFCURVE",
"463 535 OFFCURVE",
"485 522 CURVE SMOOTH",
"550 485 OFFCURVE",
"583 442 OFFCURVE",
"583 391 CURVE SMOOTH",
"583 304 OFFCURVE",
"514 227 OFFCURVE",
"429 227 CURVE SMOOTH",
"345 227 OFFCURVE",
"276 302 OFFCURVE",
"276 391 CURVE SMOOTH",
"276 485 LINE SMOOTH",
"276 492 OFFCURVE",
"273 496 OFFCURVE",
"268 496 CURVE SMOOTH",
"38 496 LINE SMOOTH",
"31 496 OFFCURVE",
"28 492 OFFCURVE",
"28 485 CURVE SMOOTH",
"28 391 LINE SMOOTH",
"28 242 OFFCURVE",
"107 111 OFFCURVE",
"228 36 CURVE SMOOTH",
"289 -1 OFFCURVE",
"356 -20 OFFCURVE",
"429 -20 CURVE SMOOTH"
);
}
);
userData = {
assembly = "NPUSHB[ ]	/* 63 values pushed */\01212 6 2 2 1 1 76 0 4 5 1 5 4 1 128 0 1 2 5 1 2 126 0 5 5 3 97 0 3 3 40 77 0 2 2 0 97 6 1 0 0 38 0 78 2 0 45 43 38 35 31 29 16 14 9 8 0 61 2 61 7 8 22 \012CALL[ ]	/* CallFunction */";
};
width = 892;
}
);
note = S;
unicode = 0053;
},
{
glyphname = T;
lastChange = "2021-05-21 11:44:53 +0000";
layers = (
{
layerId = "9A482FC5-A609-4CB4-BB30-47322087609F";
paths = (
{
closed = 1;
nodes = (
"523 0 OFFCURVE",
"526 3 OFFCURVE",
"526 10 CURVE SMOOTH",
"524 1178 LINE",
"793 1178 LINE SMOOTH",
"798 1178 OFFCURVE",
"801 1181 OFFCURVE",
"801 1188 CURVE SMOOTH",
"801 1417 LINE SMOOTH",
"801 1422 OFFCURVE",
"797 1425 OFFCURVE",
"790 1425 CURVE SMOOTH",
"12 1425 LINE SMOOTH",
"7 1425 OFFCURVE",
"4 1422 OFFCURVE",
"4 1417 CURVE SMOOTH",
"2 1188 LINE SMOOTH",
"2 1181 OFFCURVE",
"5 1178 OFFCURVE",
"12 1178 CURVE SMOOTH",
"278 1178 LINE",
"278 10 LINE SMOOTH",
"278 3 OFFCURVE",
"281 0 OFFCURVE",
"287 0 CURVE SMOOTH",
"518 0 LINE SMOOTH"
);
}
);
userData = {
assembly = "NPUSHB[ ]	/* 39 values pushed */\0128 1 1 2 1 76 3 1 1 1 2 95 0 2 2 31 77 4 1 0 0 32 0 78 1 0 18 15 12 9 6 5 0 20 1 19 5 8 22 \012CALL[ ]	/* CallFunction */";
};
width = 819;
}
);
note = T;
unicode = 0054;
},
{
glyphname = U;
lastChange = "2021-05-21 11:44:53 +0000";
layers = (
{
layerId = "9A482FC5-A609-4CB4-BB30-47322087609F";
paths = (
{
closed = 1;
nodes = (
"609 -20 OFFCURVE",
"735 59 OFFCURVE",
"808 185 CURVE SMOOTH",
"844 248 OFFCURVE",
"862 317 OFFCURVE",
"862 393 CURVE SMOOTH",
"858 1417 LINE SMOOTH",
"858 1422 OFFCURVE",
"855 1425 OFFCURVE",
"850 1425 CURVE SMOOTH",
"620 1425 LINE SMOOTH",
"615 1425 OFFCURVE",
"612 1422 OFFCURVE",
"612 1417 CURVE SMOOTH",
"612 393 LINE SMOOTH",
"612 301 OFFCURVE",
"546 227 OFFCURVE",
"458 227 CURVE SMOOTH",
"374 227 OFFCURVE",
"307 301 OFFCURVE",
"307 393 CURVE SMOOTH",
"307 1417 LINE SMOOTH",
"307 1422 OFFCURVE",
"304 1425 OFFCURVE",
"299 1425 CURVE SMOOTH",
"69 1425 LINE SMOOTH",
"64 1425 OFFCURVE",
"61 1422 OFFCURVE",
"61 1417 CURVE SMOOTH",
"57 393 LINE SMOOTH",
"57 244 OFFCURVE",
"135 111 OFFCURVE",
"258 36 CURVE SMOOTH",
"319 -1 OFFCURVE",
"386 -20 OFFCURVE",
"458 -20 CURVE SMOOTH"
);
}
);
userData = {
assembly = "NPUSHB[ ]	/* 33 values pushed */\0123 1 1 1 31 77 0 2 2 0 97 4 1 0 0 38 0 78 2 0 22 19 16 14 9 6 0 28 2 28 5 8 22 \012CALL[ ]	/* CallFunction */";
};
width = 942;
}
);
note = U;
unicode = 0055;
},
{
glyphname = V;
lastChange = "2021-05-21 11:44:53 +0000";
layers = (
{
layerId = "9A482FC5-A609-4CB4-BB30-47322087609F";
paths = (
{
closed = 1;
nodes = (
"564 0 OFFCURVE",
"568 3 OFFCURVE",
"569 10 CURVE SMOOTH",
"847 1417 LINE",
"849 1422 OFFCURVE",
"846 1425 OFFCURVE",
"839 1425 CURVE SMOOTH",
"610 1425 LINE SMOOTH",
"605 1425 OFFCURVE",
"601 1422 OFFCURVE",
"600 1417 CURVE SMOOTH",
"436 479 LINE",
"268 1417 LINE SMOOTH",
"267 1422 OFFCURVE",
"263 1425 OFFCURVE",
"258 1425 CURVE SMOOTH",
"26 1425 LINE SMOOTH",
"19 1425 OFFCURVE",
"17 1422 OFFCURVE",
"18 1417 CURVE SMOOTH",
"301 10 LINE SMOOTH",
"302 3 OFFCURVE",
"306 0 OFFCURVE",
"311 0 CURVE SMOOTH",
"559 0 LINE SMOOTH"
);
}
);
userData = {
assembly = "NPUSHB[ ]	/* 24 values pushed */\01211 1 0 1 1 76 2 1 1 1 31 77 0 0 0 32 0 78 52 52 16 3 8 25 \012CALL[ ]	/* CallFunction */";
};
width = 886;
}
);
note = V;
unicode = 0056;
},
{
glyphname = W;
lastChange = "2021-05-21 11:44:53 +0000";
layers = (
{
layerId = "9A482FC5-A609-4CB4-BB30-47322087609F";
paths = (
{
closed = 1;
nodes = (
"523 0 OFFCURVE",
"527 3 OFFCURVE",
"528 10 CURVE SMOOTH",
"632 745 LINE",
"737 10 LINE",
"740 3 OFFCURVE",
"743 0 OFFCURVE",
"747 0 CURVE SMOOTH",
"995 0 LINE",
"999 3 LINE SMOOTH",
"1002 5 OFFCURVE",
"1004 7 OFFCURVE",
"1005 10 CURVE",
"1249 1417 LINE SMOOTH",
"1250 1422 OFFCURVE",
"1248 1425 OFFCURVE",
"1241 1425 CURVE SMOOTH",
"1013 1425 LINE SMOOTH",
"1008 1425 OFFCURVE",
"1004 1422 OFFCURVE",
"1003 1417 CURVE SMOOTH",
"870 492 LINE",
"737 1417 LINE SMOOTH",
"736 1422 OFFCURVE",
"732 1425 OFFCURVE",
"727 1425 CURVE SMOOTH",
"542 1425 LINE SMOOTH",
"535 1425 OFFCURVE",
"531 1422 OFFCURVE",
"530 1417 CURVE SMOOTH",
"395 492 LINE",
"264 1417 LINE SMOOTH",
"263 1422 OFFCURVE",
"259 1425 OFFCURVE",
"254 1425 CURVE SMOOTH",
"24 1425 LINE SMOOTH",
"19 1425 OFFCURVE",
"17 1422 OFFCURVE",
"18 1417 CURVE SMOOTH",
"260 10 LINE SMOOTH",
"261 3 OFFCURVE",
"265 0 OFFCURVE",
"270 0 CURVE SMOOTH",
"518 0 LINE SMOOTH"
);
}
);
userData = {
assembly = "NPUSHB[ ]	/* 30 values pushed */\01232 18 11 3 0 1 1 76 3 2 2 1 1 31 77 4 1 0 0 32 0 78 37 52 22 52 16 5 8 27 \012CALL[ ]	/* CallFunction */";
};
width = 1288;
}
);
note = W;
unicode = 0057;
},
{
glyphname = X;
lastChange = "2021-05-21 11:44:53 +0000";
layers = (
{
layerId = "9A482FC5-A609-4CB4-BB30-47322087609F";
paths = (
{
closed = 1;
nodes = (
"255 0 OFFCURVE",
"259 3 OFFCURVE",
"260 10 CURVE",
"401 539 LINE",
"540 10 LINE",
"543 3 OFFCURVE",
"548 0 OFFCURVE",
"553 0 CURVE SMOOTH",
"782 0 LINE SMOOTH",
"789 0 OFFCURVE",
"791 3 OFFCURVE",
"788 10 CURVE",
"557 743 LINE",
"786 1417 LINE",
"787 1422 OFFCURVE",
"785 1425 OFFCURVE",
"780 1425 CURVE SMOOTH",
"553 1425 LINE SMOOTH",
"546 1425 OFFCURVE",
"541 1422 OFFCURVE",
"540 1417 CURVE SMOOTH",
"401 930 LINE",
"264 1417 LINE SMOOTH",
"263 1422 OFFCURVE",
"259 1425 OFFCURVE",
"252 1425 CURVE SMOOTH",
"22 1425 LINE SMOOTH",
"17 1425 OFFCURVE",
"15 1422 OFFCURVE",
"16 1417 CURVE",
"246 741 LINE",
"12 10 LINE",
"11 3 OFFCURVE",
"13 0 OFFCURVE",
"18 0 CURVE SMOOTH",
"248 0 LINE SMOOTH"
);
}
);
userData = {
assembly = "NPUSHB[ ]	/* 29 values pushed */\01226 19 12 5 4 0 1 1 76 2 1 1 1 31 77 3 1 0 0 32 0 78 52 22 53 16 4 8 26 \012CALL[ ]	/* CallFunction */";
};
width = 827;
}
);
note = X;
unicode = 0058;
},
{
glyphname = Y;
lastChange = "2021-05-21 11:44:53 +0000";
layers = (
{
layerId = "9A482FC5-A609-4CB4-BB30-47322087609F";
paths = (
{
closed = 1;
nodes = (
"513 0 OFFCURVE",
"516 3 OFFCURVE",
"516 8 CURVE SMOOTH",
"514 598 LINE",
"791 1417 LINE",
"792 1422 OFFCURVE",
"790 1425 OFFCURVE",
"785 1425 CURVE SMOOTH",
"555 1425 LINE SMOOTH",
"550 1425 OFFCURVE",
"546 1422 OFFCURVE",
"545 1417 CURVE SMOOTH",
"391 866 LINE",
"240 1417 LINE SMOOTH",
"239 1422 OFFCURVE",
"235 1425 OFFCURVE",
"228 1425 CURVE SMOOTH",
"0 1425 LINE SMOOTH",
"-5 1425 OFFCURVE",
"-7 1422 OFFCURVE",
"-6 1417 CURVE",
"268 590 LINE",
"266 8 LINE SMOOTH",
"266 3 OFFCURVE",
"268 0 OFFCURVE",
"273 0 CURVE SMOOTH",
"508 0 LINE SMOOTH"
);
}
);
userData = {
assembly = "NPUSHB[ ]	/* 34 values pushed */\01219 12 5 3 0 1 1 76 2 1 1 1 31 77 3 1 0 0 32 0 78 1 0 16 13 9 6 0 21 1 20 4 8 22 \012CALL[ ]	/* CallFunction */";
};
width = 821;
}
);
note = Y;
unicode = 0059;
},
{
glyphname = Z;
lastChange = "2021-05-21 11:44:53 +0000";
layers = (
{
layerId = "9A482FC5-A609-4CB4-BB30-47322087609F";
paths = (
{
closed = 1;
nodes = (
"797 0 OFFCURVE",
"800 3 OFFCURVE",
"800 10 CURVE SMOOTH",
"798 229 LINE SMOOTH",
"798 236 OFFCURVE",
"795 240 OFFCURVE",
"790 240 CURVE SMOOTH",
"297 240 LINE",
"796 1194 LINE",
"796 1415 LINE SMOOTH",
"796 1422 OFFCURVE",
"793 1425 OFFCURVE",
"786 1425 CURVE SMOOTH",
"45 1425 LINE SMOOTH",
"39 1425 OFFCURVE",
"36 1422 OFFCURVE",
"36 1415 CURVE SMOOTH",
"36 1200 LINE SMOOTH",
"36 1195 OFFCURVE",
"39 1192 OFFCURVE",
"45 1192 CURVE SMOOTH",
"520 1192 LINE",
"18 233 LINE",
"16 10 LINE SMOOTH",
"16 3 OFFCURVE",
"19 0 OFFCURVE",
"26 0 CURVE SMOOTH",
"790 0 LINE SMOOTH"
);
}
);
userData = {
assembly = "NPUSHB[ ]	/* 41 values pushed */\01216 15 2 1 2 21 5 4 3 0 3 2 76 0 1 1 2 95 0 2 2 31 77 0 3 3 0 95 0 0 0 32 0 78 20 51 21 16 4 8 26 \012CALL[ ]	/* CallFunction */";
};
width = 847;
}
);
note = Z;
unicode = 005A;
},
{
glyphname = a;
lastChange = "2021-05-21 11:44:53 +0000";
layers = (
{
layerId = "9A482FC5-A609-4CB4-BB30-47322087609F";
paths = (
{
closed = 1;
nodes = (
"12 3 OFFCURVE",
"15 0 OFFCURVE",
"20 0 CURVE SMOOTH",
"248 0 LINE SMOOTH",
"253 0 OFFCURVE",
"257 3 OFFCURVE",
"258 10 CURVE SMOOTH",
"280 160 LINE",
"559 160 LINE",
"581 10 LINE SMOOTH",
"582 3 OFFCURVE",
"586 0 OFFCURVE",
"592 0 CURVE SMOOTH",
"819 0 LINE SMOOTH",
"826 0 OFFCURVE",
"828 3 OFFCURVE",
"827 10 CURVE SMOOTH",
"583 1417 LINE SMOOTH",
"582 1422 OFFCURVE",
"578 1425 OFFCURVE",
"573 1425 CURVE SMOOTH",
"276 1425 LINE SMOOTH",
"271 1425 OFFCURVE",
"267 1422 OFFCURVE",
"266 1417 CURVE SMOOTH",
"12 10 LINE"
);
},
{
closed = 1;
nodes = (
"518 379 LINE",
"321 379 LINE",
"413 954 LINE",
"422 1030 LINE",
"434 954 LINE"
);
}
);
userData = {
assembly = "NPUSHB[ ]	/* 34 values pushed */\01225 1 4 0 1 76 0 4 0 2 1 4 2 104 0 0 0 31 77 3 1 1 1 32 1 78 19 19 19 51 50 5 8 27 \012CALL[ ]	/* CallFunction */";
};
width = 874;
}
);
note = a;
unicode = 0061;
},
{
glyphname = b;
lastChange = "2021-05-21 11:44:53 +0000";
layers = (
{
layerId = "9A482FC5-A609-4CB4-BB30-47322087609F";
paths = (
{
closed = 1;
nodes = (
"615 0 OFFCURVE",
"750 84 OFFCURVE",
"827 215 CURVE SMOOTH",
"865 280 OFFCURVE",
"884 353 OFFCURVE",
"884 432 CURVE SMOOTH",
"884 547 OFFCURVE",
"838 654 OFFCURVE",
"759 733 CURVE",
"832 796 OFFCURVE",
"894 903 OFFCURVE",
"894 1020 CURVE SMOOTH",
"894 1164 OFFCURVE",
"819 1294 OFFCURVE",
"696 1369 CURVE SMOOTH",
"634 1406 OFFCURVE",
"564 1425 OFFCURVE",
"487 1425 CURVE SMOOTH",
"93 1425 LINE SMOOTH",
"88 1425 OFFCURVE",
"85 1422 OFFCURVE",
"85 1417 CURVE SMOOTH",
"81 10 LINE SMOOTH",
"81 3 OFFCURVE",
"84 0 OFFCURVE",
"89 0 CURVE SMOOTH",
"456 0 LINE SMOOTH"
);
},
{
closed = 1;
nodes = (
"574 1182 OFFCURVE",
"646 1107 OFFCURVE",
"646 1020 CURVE SMOOTH",
"646 941 OFFCURVE",
"582 860 OFFCURVE",
"487 860 CURVE SMOOTH",
"331 860 LINE",
"331 1182 LINE",
"487 1182 LINE SMOOTH"
);
},
{
closed = 1;
nodes = (
"555 612 OFFCURVE",
"636 531 OFFCURVE",
"636 432 CURVE SMOOTH",
"636 333 OFFCURVE",
"555 250 OFFCURVE",
"456 250 CURVE SMOOTH",
"329 250 LINE",
"331 612 LINE",
"456 612 LINE SMOOTH"
);
}
);
userData = {
assembly = "NPUSHB[ ]	/* 65 values pushed */\01215 1 4 3 1 76 0 3 8 1 4 5 3 4 105 7 1 2 2 1 95 0 1 1 31 77 0 5 5 0 95 6 1 0 0 32 0 78 33 32 23 22 1 0 37 34 32 41 33 41 27 24 22 31 23 31 9 5 0 21 1 21 9 8 22 \012CALL[ ]	/* CallFunction */";
};
width = 950;
}
);
note = b;
unicode = 0062;
},
{
glyphname = c;
lastChange = "2021-05-21 11:44:53 +0000";
layers = (
{
layerId = "9A482FC5-A609-4CB4-BB30-47322087609F";
paths = (
{
closed = 1;
nodes = (
"609 -20 OFFCURVE",
"733 61 OFFCURVE",
"806 187 CURVE SMOOTH",
"842 250 OFFCURVE",
"860 320 OFFCURVE",
"860 397 CURVE SMOOTH",
"860 492 LINE SMOOTH",
"860 497 OFFCURVE",
"857 500 OFFCURVE",
"852 500 CURVE SMOOTH",
"620 500 LINE SMOOTH",
"615 500 OFFCURVE",
"612 497 OFFCURVE",
"612 492 CURVE SMOOTH",
"612 397 LINE SMOOTH",
"612 310 OFFCURVE",
"546 227 OFFCURVE",
"458 227 CURVE SMOOTH",
"374 227 OFFCURVE",
"307 297 OFFCURVE",
"307 397 CURVE SMOOTH",
"307 1036 LINE SMOOTH",
"307 1124 OFFCURVE",
"361 1202 OFFCURVE",
"458 1202 CURVE SMOOTH",
"546 1202 OFFCURVE",
"612 1127 OFFCURVE",
"612 1036 CURVE SMOOTH",
"612 942 LINE SMOOTH",
"612 937 OFFCURVE",
"615 934 OFFCURVE",
"620 934 CURVE SMOOTH",
"850 934 LINE SMOOTH",
"855 934 OFFCURVE",
"858 937 OFFCURVE",
"858 942 CURVE SMOOTH",
"858 1036 LINE SMOOTH",
"858 1189 OFFCURVE",
"781 1319 OFFCURVE",
"661 1393 CURVE SMOOTH",
"601 1430 OFFCURVE",
"533 1448 OFFCURVE",
"458 1448 CURVE SMOOTH",
"309 1448 OFFCURVE",
"180 1366 OFFCURVE",
"111 1242 CURVE SMOOTH",
"76 1180 OFFCURVE",
"59 1111 OFFCURVE",
"59 1036 CURVE SMOOTH",
"57 397 LINE SMOOTH",
"57 242 OFFCURVE",
"133 111 OFFCURVE",
"255 36 CURVE SMOOTH",
"316 -1 OFFCURVE",
"383 -20 OFFCURVE",
"458 -20 CURVE SMOOTH"
);
}
);
userData = {
assembly = "NPUSHB[ ]	/* 66 values pushed */\01221 1 2 3 41 1 4 5 2 76 0 2 3 5 3 2 5 128 0 5 4 3 5 4 126 0 3 3 1 97 0 1 1 40 77 0 4 4 0 97 6 1 0 0 38 0 78 2 0 38 35 32 30 25 23 18 15 11 9 0 44 2 44 7 8 22 \012CALL[ ]	/* CallFunction */";
};
width = 927;
}
);
note = c;
unicode = 0063;
},
{
glyphname = d;
lastChange = "2021-05-21 11:44:53 +0000";
layers = (
{
layerId = "9A482FC5-A609-4CB4-BB30-47322087609F";
paths = (
{
closed = 1;
nodes = (
"619 5 OFFCURVE",
"752 87 OFFCURVE",
"829 216 CURVE SMOOTH",
"867 281 OFFCURVE",
"886 353 OFFCURVE",
"886 432 CURVE SMOOTH",
"886 1020 LINE SMOOTH",
"886 1171 OFFCURVE",
"806 1301 OFFCURVE",
"682 1375 CURVE SMOOTH",
"620 1412 OFFCURVE",
"551 1429 OFFCURVE",
"476 1427 CURVE SMOOTH",
"93 1425 LINE SMOOTH",
"88 1425 OFFCURVE",
"85 1422 OFFCURVE",
"85 1417 CURVE SMOOTH",
"81 10 LINE SMOOTH",
"81 3 OFFCURVE",
"84 0 OFFCURVE",
"91 0 CURVE SMOOTH",
"458 2 LINE SMOOTH"
);
},
{
closed = 1;
nodes = (
"564 1185 OFFCURVE",
"638 1109 OFFCURVE",
"638 1022 CURVE SMOOTH",
"638 432 LINE SMOOTH",
"638 333 OFFCURVE",
"559 252 OFFCURVE",
"458 252 CURVE SMOOTH",
"331 252 LINE",
"333 1180 LINE",
"476 1182 LINE SMOOTH"
);
}
);
userData = {
assembly = "NPUSHB[ ]	/* 48 values pushed */\0124 1 0 3 1 76 5 1 2 2 1 95 0 1 1 31 77 0 3 3 0 95 4 1 0 0 32 0 78 18 17 1 0 22 19 17 27 18 27 9 5 0 16 1 16 6 8 22 \012CALL[ ]	/* CallFunction */";
};
width = 966;
}
);
note = d;
unicode = 0064;
},
{
glyphname = e;
lastChange = "2021-05-21 11:44:53 +0000";
layers = (
{
layerId = "9A482FC5-A609-4CB4-BB30-47322087609F";
paths = (
{
closed = 1;
nodes = (
"756 0 OFFCURVE",
"759 3 OFFCURVE",
"759 8 CURVE SMOOTH",
"759 242 LINE SMOOTH",
"759 249 OFFCURVE",
"756 252 OFFCURVE",
"751 252 CURVE SMOOTH",
"329 252 LINE",
"329 610 LINE",
"751 610 LINE SMOOTH",
"756 610 OFFCURVE",
"759 613 OFFCURVE",
"759 618 CURVE SMOOTH",
"757 850 LINE SMOOTH",
"757 855 OFFCURVE",
"754 858 OFFCURVE",
"749 858 CURVE SMOOTH",
"329 858 LINE",
"329 1178 LINE",
"749 1178 LINE SMOOTH",
"754 1178 OFFCURVE",
"757 1181 OFFCURVE",
"757 1186 CURVE SMOOTH",
"757 1415 LINE SMOOTH",
"757 1422 OFFCURVE",
"754 1425 OFFCURVE",
"749 1425 CURVE SMOOTH",
"91 1425 LINE SMOOTH",
"86 1425 OFFCURVE",
"83 1422 OFFCURVE",
"83 1417 CURVE SMOOTH",
"81 10 LINE SMOOTH",
"81 3 OFFCURVE",
"84 0 OFFCURVE",
"89 0 CURVE SMOOTH",
"751 0 LINE SMOOTH"
);
}
);
userData = {
assembly = "NPUSHB[ ]	/* 49 values pushed */\0120 3 0 4 5 3 4 103 0 2 2 1 95 0 1 1 31 77 0 5 5 0 95 6 1 0 0 32 0 78 1 0 24 23 22 19 16 15 14 11 8 5 0 28 1 27 7 8 22 \012CALL[ ]	/* CallFunction */";
};
width = 860;
}
);
note = e;
unicode = 0065;
},
{
glyphname = f;
lastChange = "2021-05-21 11:44:53 +0000";
layers = (
{
layerId = "9A482FC5-A609-4CB4-BB30-47322087609F";
paths = (
{
closed = 1;
nodes = (
"328 0 OFFCURVE",
"331 3 OFFCURVE",
"331 10 CURVE SMOOTH",
"331 610 LINE",
"751 610 LINE SMOOTH",
"758 610 OFFCURVE",
"761 613 OFFCURVE",
"761 618 CURVE SMOOTH",
"759 850 LINE SMOOTH",
"759 857 OFFCURVE",
"756 860 OFFCURVE",
"751 860 CURVE SMOOTH",
"331 860 LINE",
"331 1178 LINE",
"751 1178 LINE SMOOTH",
"756 1178 OFFCURVE",
"759 1181 OFFCURVE",
"759 1186 CURVE SMOOTH",
"759 1417 LINE SMOOTH",
"759 1422 OFFCURVE",
"756 1425 OFFCURVE",
"749 1425 CURVE SMOOTH",
"93 1425 LINE SMOOTH",
"88 1425 OFFCURVE",
"85 1422 OFFCURVE",
"85 1417 CURVE SMOOTH",
"81 10 LINE SMOOTH",
"81 3 OFFCURVE",
"84 0 OFFCURVE",
"91 0 CURVE SMOOTH",
"321 0 LINE SMOOTH"
);
}
);
userData = {
assembly = "NPUSHB[ ]	/* 39 values pushed */\01223 4 2 0 4 1 76 0 3 0 4 0 3 4 103 0 2 2 1 95 0 1 1 31 77 0 0 0 32 0 78 51 17 51 52 16 5 8 27 \012CALL[ ]	/* CallFunction */";
};
width = 862;
}
);
note = f;
unicode = 0066;
},
{
glyphname = g;
lastChange = "2021-05-21 11:44:53 +0000";
layers = (
{
layerId = "9A482FC5-A609-4CB4-BB30-47322087609F";
paths = (
{
closed = 1;
nodes = (
"607 -20 OFFCURVE",
"731 59 OFFCURVE",
"804 183 CURVE SMOOTH",
"840 245 OFFCURVE",
"858 314 OFFCURVE",
"858 391 CURVE SMOOTH",
"858 731 LINE SMOOTH",
"858 738 OFFCURVE",
"855 741 OFFCURVE",
"850 741 CURVE SMOOTH",
"467 741 LINE SMOOTH",
"460 741 OFFCURVE",
"456 738 OFFCURVE",
"456 731 CURVE SMOOTH",
"456 502 LINE SMOOTH",
"456 495 OFFCURVE",
"460 492 OFFCURVE",
"467 492 CURVE SMOOTH",
"610 492 LINE",
"610 391 LINE SMOOTH",
"610 299 OFFCURVE",
"544 227 OFFCURVE",
"456 227 CURVE SMOOTH",
"375 227 OFFCURVE",
"305 302 OFFCURVE",
"305 391 CURVE SMOOTH",
"305 1040 LINE SMOOTH",
"305 1128 OFFCURVE",
"377 1204 OFFCURVE",
"456 1204 CURVE SMOOTH",
"544 1204 OFFCURVE",
"610 1128 OFFCURVE",
"610 1024 CURVE SMOOTH",
"610 946 LINE SMOOTH",
"610 941 OFFCURVE",
"613 938 OFFCURVE",
"618 938 CURVE SMOOTH",
"848 938 LINE SMOOTH",
"855 938 OFFCURVE",
"858 941 OFFCURVE",
"858 946 CURVE SMOOTH",
"858 1040 LINE SMOOTH",
"858 1193 OFFCURVE",
"781 1321 OFFCURVE",
"660 1394 CURVE SMOOTH",
"599 1430 OFFCURVE",
"531 1448 OFFCURVE",
"456 1448 CURVE SMOOTH",
"312 1448 OFFCURVE",
"184 1368 OFFCURVE",
"112 1244 CURVE SMOOTH",
"75 1182 OFFCURVE",
"57 1114 OFFCURVE",
"57 1040 CURVE SMOOTH",
"57 391 LINE SMOOTH",
"57 238 OFFCURVE",
"136 108 OFFCURVE",
"256 35 CURVE SMOOTH",
"316 -2 OFFCURVE",
"383 -20 OFFCURVE",
"456 -20 CURVE SMOOTH"
);
}
);
userData = {
assembly = "NPUSHB[ ]	/* 70 values pushed */\01221 1 2 3 39 38 2 5 6 2 76 0 2 3 6 3 2 6 128 0 6 0 5 4 6 5 103 0 3 3 1 97 0 1 1 40 77 0 4 4 0 97 7 1 0 0 38 0 78 2 0 42 41 36 35 32 30 25 23 18 15 11 9 0 48 2 48 8 8 22 \012CALL[ ]	/* CallFunction */";
};
width = 921;
}
);
note = g;
unicode = 0067;
},
{
glyphname = h;
lastChange = "2021-05-21 11:44:53 +0000";
layers = (
{
layerId = "9A482FC5-A609-4CB4-BB30-47322087609F";
paths = (
{
closed = 1;
nodes = (
"326 0 OFFCURVE",
"329 3 OFFCURVE",
"329 10 CURVE SMOOTH",
"329 612 LINE",
"636 612 LINE",
"636 10 LINE SMOOTH",
"636 3 OFFCURVE",
"639 0 OFFCURVE",
"646 0 CURVE SMOOTH",
"876 0 LINE SMOOTH",
"883 0 OFFCURVE",
"886 3 OFFCURVE",
"886 10 CURVE SMOOTH",
"882 1417 LINE SMOOTH",
"882 1422 OFFCURVE",
"879 1425 OFFCURVE",
"872 1425 CURVE SMOOTH",
"644 1425 LINE SMOOTH",
"639 1425 OFFCURVE",
"636 1422 OFFCURVE",
"636 1417 CURVE SMOOTH",
"636 860 LINE",
"329 860 LINE",
"331 1417 LINE SMOOTH",
"331 1422 OFFCURVE",
"328 1425 OFFCURVE",
"321 1425 CURVE SMOOTH",
"93 1425 LINE SMOOTH",
"86 1425 OFFCURVE",
"83 1422 OFFCURVE",
"83 1417 CURVE SMOOTH",
"81 10 LINE SMOOTH",
"81 3 OFFCURVE",
"84 0 OFFCURVE",
"89 0 CURVE SMOOTH",
"321 0 LINE SMOOTH"
);
}
);
userData = {
assembly = "NPUSHB[ ]	/* 48 values pushed */\01224 19 2 0 5 1 76 0 2 0 5 0 2 5 103 3 1 1 1 31 77 4 6 2 0 0 32 0 78 1 0 26 25 22 21 16 13 12 11 8 5 0 28 1 27 7 8 22 \012CALL[ ]	/* CallFunction */";
};
width = 972;
}
);
note = h;
unicode = 0068;
},
{
glyphname = i;
lastChange = "2021-05-21 11:44:53 +0000";
layers = (
{
layerId = "9A482FC5-A609-4CB4-BB30-47322087609F";
paths = (
{
closed = 1;
nodes = (
"328 0 OFFCURVE",
"331 3 OFFCURVE",
"331 10 CURVE SMOOTH",
"329 1417 LINE SMOOTH",
"329 1422 OFFCURVE",
"326 1425 OFFCURVE",
"321 1425 CURVE SMOOTH",
"91 1425 LINE SMOOTH",
"86 1425 OFFCURVE",
"83 1422 OFFCURVE",
"83 1417 CURVE SMOOTH",
"81 10 LINE SMOOTH",
"81 3 OFFCURVE",
"84 0 OFFCURVE",
"91 0 CURVE SMOOTH",
"323 0 LINE SMOOTH"
);
}
);
userData = {
assembly = "NPUSHB[ ]	/* 29 values pushed */\0124 1 0 1 1 76 0 1 1 31 77 2 1 0 0 32 0 78 1 0 8 5 0 12 1 11 3 8 22 \012CALL[ ]	/* CallFunction */";
};
width = 430;
}
);
note = i;
unicode = 0069;
},
{
glyphname = j;
lastChange = "2021-05-21 11:44:53 +0000";
layers = (
{
layerId = "9A482FC5-A609-4CB4-BB30-47322087609F";
paths = (
{
closed = 1;
nodes = (
"565 -20 OFFCURVE",
"690 62 OFFCURVE",
"763 190 CURVE SMOOTH",
"799 253 OFFCURVE",
"817 322 OFFCURVE",
"817 397 CURVE SMOOTH",
"815 1413 LINE SMOOTH",
"815 1420 OFFCURVE",
"812 1423 OFFCURVE",
"807 1423 CURVE SMOOTH",
"577 1423 LINE SMOOTH",
"572 1423 OFFCURVE",
"569 1420 OFFCURVE",
"569 1415 CURVE SMOOTH",
"569 397 LINE SMOOTH",
"569 308 OFFCURVE",
"500 227 OFFCURVE",
"417 227 CURVE SMOOTH",
"328 227 OFFCURVE",
"264 297 OFFCURVE",
"264 397 CURVE SMOOTH",
"264 489 LINE SMOOTH",
"264 496 OFFCURVE",
"261 500 OFFCURVE",
"256 500 CURVE SMOOTH",
"24 500 LINE SMOOTH",
"19 500 OFFCURVE",
"16 497 OFFCURVE",
"16 492 CURVE SMOOTH",
"16 397 LINE SMOOTH",
"16 240 OFFCURVE",
"90 106 OFFCURVE",
"212 34 CURVE SMOOTH",
"273 -2 OFFCURVE",
"341 -20 OFFCURVE",
"417 -20 CURVE SMOOTH"
);
}
);
userData = {
assembly = "NPUSHB[ ]	/* 46 values pushed */\01212 1 2 1 1 76 0 1 3 2 3 1 2 128 0 3 3 31 77 0 2 2 0 97 4 1 0 0 38 0 78 2 0 22 19 16 14 9 6 0 28 2 28 5 8 22 \012CALL[ ]	/* CallFunction */";
};
width = 890;
}
);
note = j;
unicode = 006A;
},
{
glyphname = k;
lastChange = "2021-05-21 11:44:53 +0000";
layers = (
{
layerId = "9A482FC5-A609-4CB4-BB30-47322087609F";
paths = (
{
closed = 1;
nodes = (
"326 0 OFFCURVE",
"329 3 OFFCURVE",
"329 10 CURVE SMOOTH",
"329 498 LINE",
"400 610 LINE",
"677 8 LINE",
"678 3 OFFCURVE",
"682 0 OFFCURVE",
"689 0 CURVE SMOOTH",
"939 0 LINE SMOOTH",
"948 0 OFFCURVE",
"952 3 OFFCURVE",
"949 8 CURVE SMOOTH",
"552 852 LINE",
"906 1417 LINE SMOOTH",
"909 1422 OFFCURVE",
"907 1425 OFFCURVE",
"902 1425 CURVE SMOOTH",
"667 1425 LINE SMOOTH",
"662 1425 OFFCURVE",
"657 1422 OFFCURVE",
"652 1417 CURVE",
"331 930 LINE",
"331 1415 LINE SMOOTH",
"331 1422 OFFCURVE",
"328 1425 OFFCURVE",
"323 1425 CURVE SMOOTH",
"93 1425 LINE SMOOTH",
"88 1425 OFFCURVE",
"85 1422 OFFCURVE",
"85 1415 CURVE SMOOTH",
"81 10 LINE SMOOTH",
"81 3 OFFCURVE",
"84 0 OFFCURVE",
"89 0 CURVE SMOOTH",
"321 0 LINE SMOOTH"
);
}
);
userData = {
assembly = "NPUSHB[ ]	/* 38 values pushed */\01226 25 18 11 4 0 1 1 76 2 1 1 1 31 77 3 4 2 0 0 32 0 78 1 0 22 19 15 14 8 5 0 28 1 27 5 8 22 \012CALL[ ]	/* CallFunction */";
};
width = 960;
}
);
note = k;
unicode = 006B;
},
{
glyphname = l;
lastChange = "2021-05-21 11:44:53 +0000";
layers = (
{
layerId = "9A482FC5-A609-4CB4-BB30-47322087609F";
paths = (
{
closed = 1;
nodes = (
"758 0 OFFCURVE",
"761 3 OFFCURVE",
"761 10 CURVE SMOOTH",
"761 242 LINE SMOOTH",
"761 249 OFFCURVE",
"758 252 OFFCURVE",
"751 252 CURVE SMOOTH",
"329 252 LINE",
"331 1415 LINE SMOOTH",
"331 1422 OFFCURVE",
"328 1425 OFFCURVE",
"321 1425 CURVE SMOOTH",
"93 1425 LINE SMOOTH",
"86 1425 OFFCURVE",
"83 1422 OFFCURVE",
"83 1415 CURVE SMOOTH",
"81 10 LINE SMOOTH",
"81 3 OFFCURVE",
"84 0 OFFCURVE",
"89 0 CURVE SMOOTH",
"751 0 LINE SMOOTH"
);
}
);
userData = {
assembly = "NPUSHB[ ]	/* 34 values pushed */\01210 5 2 2 1 15 14 2 0 2 2 76 0 1 1 31 77 0 2 2 0 96 0 0 0 32 0 78 19 22 16 3 8 25 \012CALL[ ]	/* CallFunction */";
};
width = 813;
}
);
note = l;
unicode = 006C;
},
{
glyphname = m;
lastChange = "2021-05-21 11:44:53 +0000";
layers = (
{
layerId = "9A482FC5-A609-4CB4-BB30-47322087609F";
paths = (
{
closed = 1;
nodes = (
"326 0 OFFCURVE",
"329 3 OFFCURVE",
"329 10 CURVE SMOOTH",
"331 1055 LINE",
"544 743 LINE",
"759 1055 LINE",
"761 10 LINE SMOOTH",
"761 3 OFFCURVE",
"764 0 OFFCURVE",
"769 0 CURVE SMOOTH",
"1001 0 LINE SMOOTH",
"1006 0 OFFCURVE",
"1009 3 OFFCURVE",
"1009 10 CURVE SMOOTH",
"1005 1417 LINE SMOOTH",
"1005 1422 OFFCURVE",
"1002 1425 OFFCURVE",
"996 1425 CURVE SMOOTH",
"745 1425 LINE SMOOTH",
"739 1425 OFFCURVE",
"734 1422 OFFCURVE",
"730 1417 CURVE SMOOTH",
"544 1147 LINE",
"357 1417 LINE SMOOTH",
"353 1422 OFFCURVE",
"348 1425 OFFCURVE",
"343 1425 CURVE SMOOTH",
"93 1425 LINE SMOOTH",
"88 1425 OFFCURVE",
"85 1422 OFFCURVE",
"85 1417 CURVE SMOOTH",
"81 10 LINE SMOOTH",
"81 3 OFFCURVE",
"84 0 OFFCURVE",
"89 0 CURVE SMOOTH",
"321 0 LINE SMOOTH"
);
}
);
userData = {
assembly = "NPUSHB[ ]	/* 38 values pushed */\01226 25 24 11 4 0 1 1 76 2 1 1 1 31 77 3 4 2 0 0 32 0 78 1 0 21 18 15 14 8 5 0 28 1 27 5 8 22 \012CALL[ ]	/* CallFunction */";
};
width = 1099;
}
);
note = m;
unicode = 006D;
},
{
glyphname = n;
lastChange = "2021-05-21 11:44:53 +0000";
layers = (
{
layerId = "9A482FC5-A609-4CB4-BB30-47322087609F";
paths = (
{
closed = 1;
nodes = (
"317 0 OFFCURVE",
"323 5 OFFCURVE",
"323 16 CURVE SMOOTH",
"308 754 LINE",
"663 0 LINE",
"843 0 LINE SMOOTH",
"850 0 OFFCURVE",
"853 4 OFFCURVE",
"853 12 CURVE SMOOTH",
"851 1409 LINE SMOOTH",
"851 1420 OFFCURVE",
"847 1425 OFFCURVE",
"839 1425 CURVE SMOOTH",
"636 1425 LINE SMOOTH",
"624 1425 OFFCURVE",
"618 1420 OFFCURVE",
"618 1409 CURVE SMOOTH",
"628 618 LINE",
"282 1425 LINE",
"97 1425 LINE SMOOTH",
"86 1425 OFFCURVE",
"81 1420 OFFCURVE",
"81 1409 CURVE SMOOTH",
"83 14 LINE SMOOTH",
"83 5 OFFCURVE",
"88 0 OFFCURVE",
"99 0 CURVE SMOOTH",
"304 0 LINE SMOOTH"
);
}
);
userData = {
assembly = "NPUSHB[ ]	/* 33 values pushed */\01221 20 16 15 10 9 5 4 8 0 1 1 76 2 1 1 1 31 77 3 1 0 0 32 0 78 21 20 22 16 4 8 26 \012CALL[ ]	/* CallFunction */";
};
width = 950;
}
);
note = n;
unicode = 006E;
},
{
glyphname = o;
lastChange = "2021-05-21 11:44:53 +0000";
layers = (
{
layerId = "9A482FC5-A609-4CB4-BB30-47322087609F";
paths = (
{
closed = 1;
nodes = (
"608 -20 OFFCURVE",
"735 61 OFFCURVE",
"808 186 CURVE SMOOTH",
"844 248 OFFCURVE",
"862 316 OFFCURVE",
"862 391 CURVE SMOOTH",
"860 1040 LINE SMOOTH",
"860 1191 OFFCURVE",
"781 1319 OFFCURVE",
"661 1393 CURVE SMOOTH",
"601 1430 OFFCURVE",
"534 1448 OFFCURVE",
"460 1448 CURVE SMOOTH",
"316 1448 OFFCURVE",
"186 1368 OFFCURVE",
"114 1245 CURVE SMOOTH",
"77 1184 OFFCURVE",
"59 1115 OFFCURVE",
"59 1040 CURVE SMOOTH",
"57 391 LINE SMOOTH",
"57 242 OFFCURVE",
"138 111 OFFCURVE",
"259 36 CURVE SMOOTH",
"320 -1 OFFCURVE",
"387 -20 OFFCURVE",
"460 -20 CURVE SMOOTH"
);
},
{
closed = 1;
nodes = (
"376 227 OFFCURVE",
"307 302 OFFCURVE",
"307 391 CURVE SMOOTH",
"307 1040 LINE SMOOTH",
"307 1133 OFFCURVE",
"376 1202 OFFCURVE",
"460 1202 CURVE SMOOTH",
"548 1202 OFFCURVE",
"612 1131 OFFCURVE",
"612 1040 CURVE SMOOTH",
"614 391 LINE SMOOTH",
"614 307 OFFCURVE",
"543 227 OFFCURVE",
"460 227 CURVE SMOOTH"
);
}
);
userData = {
assembly = "NPUSHB[ ]	/* 42 values pushed */\0120 3 3 1 97 0 1 1 40 77 5 1 2 2 0 97 4 1 0 0 38 0 78 21 19 2 0 28 26 19 33 21 33 11 9 0 18 2 18 6 8 22 \012CALL[ ]	/* CallFunction */";
};
width = 935;
}
);
note = o;
unicode = 006F;
},
{
glyphname = p;
lastChange = "2021-05-21 11:44:53 +0000";
layers = (
{
layerId = "9A482FC5-A609-4CB4-BB30-47322087609F";
paths = (
{
closed = 1;
nodes = (
"328 0 OFFCURVE",
"331 3 OFFCURVE",
"331 10 CURVE SMOOTH",
"331 526 LINE",
"487 526 LINE SMOOTH",
"631 526 OFFCURVE",
"760 606 OFFCURVE",
"837 748 CURVE SMOOTH",
"875 819 OFFCURVE",
"894 902 OFFCURVE",
"894 999 CURVE SMOOTH",
"894 1262 OFFCURVE",
"738 1425 OFFCURVE",
"487 1425 CURVE SMOOTH",
"93 1425 LINE SMOOTH",
"88 1425 OFFCURVE",
"85 1422 OFFCURVE",
"85 1417 CURVE SMOOTH",
"81 10 LINE SMOOTH",
"81 3 OFFCURVE",
"84 0 OFFCURVE",
"91 0 CURVE SMOOTH",
"321 0 LINE SMOOTH"
);
},
{
closed = 1;
nodes = (
"587 1182 OFFCURVE",
"648 1106 OFFCURVE",
"648 999 CURVE SMOOTH",
"648 866 OFFCURVE",
"574 774 OFFCURVE",
"487 774 CURVE SMOOTH",
"331 774 LINE",
"331 1180 LINE",
"487 1182 LINE SMOOTH"
);
}
);
userData = {
assembly = "NPUSHB[ ]	/* 46 values pushed */\01217 4 2 0 2 1 76 0 4 0 2 0 4 2 103 5 1 3 3 1 95 0 1 1 31 77 0 0 0 32 0 78 20 19 24 21 19 28 20 28 37 68 16 6 8 25 \012CALL[ ]	/* CallFunction */";
};
width = 952;
}
);
note = p;
unicode = 0070;
},
{
glyphname = q;
lastChange = "2021-05-21 11:44:53 +0000";
layers = (
{
layerId = "9A482FC5-A609-4CB4-BB30-47322087609F";
paths = (
{
closed = 1;
nodes = (
"760 -135 OFFCURVE",
"765 -135 OFFCURVE",
"770 -131 CURVE",
"931 31 LINE",
"936 35 OFFCURVE",
"935 40 OFFCURVE",
"929 45 CURVE",
"802 174 LINE",
"838 237 OFFCURVE",
"862 312 OFFCURVE",
"862 391 CURVE SMOOTH",
"860 1040 LINE SMOOTH",
"860 1193 OFFCURVE",
"781 1321 OFFCURVE",
"660 1394 CURVE SMOOTH",
"599 1430 OFFCURVE",
"533 1448 OFFCURVE",
"460 1448 CURVE SMOOTH",
"311 1448 OFFCURVE",
"184 1366 OFFCURVE",
"113 1242 CURVE SMOOTH",
"77 1180 OFFCURVE",
"59 1113 OFFCURVE",
"59 1040 CURVE SMOOTH",
"57 391 LINE SMOOTH",
"57 242 OFFCURVE",
"137 108 OFFCURVE",
"260 35 CURVE SMOOTH",
"321 -2 OFFCURVE",
"388 -20 OFFCURVE",
"460 -20 CURVE SMOOTH",
"513 -20 OFFCURVE",
"565 -9 OFFCURVE",
"614 12 CURVE",
"755 -131 LINE"
);
},
{
closed = 1;
nodes = (
"384 227 OFFCURVE",
"307 292 OFFCURVE",
"307 391 CURVE SMOOTH",
"307 1040 LINE SMOOTH",
"307 1125 OFFCURVE",
"368 1202 OFFCURVE",
"460 1202 CURVE SMOOTH",
"548 1202 OFFCURVE",
"612 1128 OFFCURVE",
"612 1040 CURVE SMOOTH",
"614 391 LINE SMOOTH",
"614 312 OFFCURVE",
"553 227 OFFCURVE",
"460 227 CURVE SMOOTH"
);
}
);
userData = {
assembly = "NPUSHB[ ]	/* 43 values pushed */\01222 21 2 3 0 2 1 76 0 3 3 1 97 0 1 1 40 77 4 1 2 2 0 97 0 0 0 38 0 78 29 27 36 34 27 41 29 41 39 35 5 8 24 \012CALL[ ]	/* CallFunction */";
};
width = 954;
}
);
note = q;
unicode = 0071;
},
{
glyphname = r;
lastChange = "2021-05-21 11:44:53 +0000";
layers = (
{
layerId = "9A482FC5-A609-4CB4-BB30-47322087609F";
paths = (
{
closed = 1;
nodes = (
"326 0 OFFCURVE",
"329 3 OFFCURVE",
"329 10 CURVE SMOOTH",
"331 612 LINE",
"466 612 LINE SMOOTH",
"567 612 OFFCURVE",
"646 529 OFFCURVE",
"646 430 CURVE SMOOTH",
"646 6 LINE SMOOTH",
"646 2 OFFCURVE",
"649 0 OFFCURVE",
"654 0 CURVE SMOOTH",
"886 0 LINE SMOOTH",
"893 0 OFFCURVE",
"896 3 OFFCURVE",
"896 10 CURVE SMOOTH",
"894 430 LINE SMOOTH",
"894 541 OFFCURVE",
"857 637 OFFCURVE",
"783 719 CURVE",
"816 746 OFFCURVE",
"861 803 OFFCURVE",
"892 884 CURVE SMOOTH",
"907 924 OFFCURVE",
"915 969 OFFCURVE",
"915 1020 CURVE SMOOTH",
"915 1173 OFFCURVE",
"835 1299 OFFCURVE",
"711 1371 CURVE SMOOTH",
"649 1407 OFFCURVE",
"581 1425 OFFCURVE",
"507 1425 CURVE SMOOTH",
"93 1425 LINE SMOOTH",
"88 1425 OFFCURVE",
"85 1422 OFFCURVE",
"85 1417 CURVE SMOOTH",
"81 10 LINE SMOOTH",
"81 3 OFFCURVE",
"84 0 OFFCURVE",
"89 0 CURVE SMOOTH",
"321 0 LINE SMOOTH"
);
},
{
closed = 1;
nodes = (
"595 1180 OFFCURVE",
"669 1107 OFFCURVE",
"669 1020 CURVE SMOOTH",
"669 929 OFFCURVE",
"591 858 OFFCURVE",
"507 858 CURVE SMOOTH",
"331 858 LINE",
"331 1180 LINE",
"507 1180 LINE SMOOTH"
);
}
);
userData = {
assembly = "NPUSHB[ ]	/* 60 values pushed */\01216 1 3 5 19 1 0 3 2 76 0 5 0 3 0 5 3 105 7 1 4 4 1 95 0 1 1 31 77 2 6 2 0 0 32 0 78 33 32 1 0 37 34 32 41 33 41 29 27 22 21 9 5 0 31 1 30 8 8 22 \012CALL[ ]	/* CallFunction */";
};
width = 987;
}
);
note = r;
unicode = 0072;
},
{
glyphname = s;
lastChange = "2021-05-21 11:44:53 +0000";
layers = (
{
layerId = "9A482FC5-A609-4CB4-BB30-47322087609F";
paths = (
{
closed = 1;
nodes = (
"577 -20 OFFCURVE",
"704 57 OFFCURVE",
"777 181 CURVE SMOOTH",
"813 243 OFFCURVE",
"831 313 OFFCURVE",
"831 391 CURVE SMOOTH",
"831 552 OFFCURVE",
"746 659 OFFCURVE",
"610 735 CURVE SMOOTH",
"593 744 OFFCURVE",
"429 832 OFFCURVE",
"409 844 CURVE SMOOTH",
"308 899 OFFCURVE",
"276 953 OFFCURVE",
"276 1042 CURVE SMOOTH",
"276 1130 OFFCURVE",
"345 1204 OFFCURVE",
"429 1204 CURVE SMOOTH",
"512 1204 OFFCURVE",
"581 1138 OFFCURVE",
"581 1042 CURVE SMOOTH",
"583 874 LINE SMOOTH",
"583 869 OFFCURVE",
"586 866 OFFCURVE",
"591 866 CURVE SMOOTH",
"821 866 LINE SMOOTH",
"826 866 OFFCURVE",
"829 869 OFFCURVE",
"829 874 CURVE SMOOTH",
"829 1042 LINE SMOOTH",
"829 1193 OFFCURVE",
"750 1319 OFFCURVE",
"629 1392 CURVE SMOOTH",
"568 1428 OFFCURVE",
"502 1446 OFFCURVE",
"429 1446 CURVE SMOOTH",
"288 1446 OFFCURVE",
"160 1369 OFFCURVE",
"86 1248 CURVE SMOOTH",
"49 1187 OFFCURVE",
"30 1119 OFFCURVE",
"30 1042 CURVE SMOOTH",
"30 877 OFFCURVE",
"102 741 OFFCURVE",
"251 653 CURVE SMOOTH",
"292 630 OFFCURVE",
"336 605 OFFCURVE",
"383 580 CURVE SMOOTH",
"429 554 OFFCURVE",
"463 535 OFFCURVE",
"485 522 CURVE SMOOTH",
"550 485 OFFCURVE",
"583 442 OFFCURVE",
"583 391 CURVE SMOOTH",
"583 304 OFFCURVE",
"514 227 OFFCURVE",
"429 227 CURVE SMOOTH",
"345 227 OFFCURVE",
"276 302 OFFCURVE",
"276 391 CURVE SMOOTH",
"276 485 LINE SMOOTH",
"276 492 OFFCURVE",
"273 496 OFFCURVE",
"268 496 CURVE SMOOTH",
"38 496 LINE SMOOTH",
"31 496 OFFCURVE",
"28 492 OFFCURVE",
"28 485 CURVE SMOOTH",
"28 391 LINE SMOOTH",
"28 242 OFFCURVE",
"107 111 OFFCURVE",
"228 36 CURVE SMOOTH",
"289 -1 OFFCURVE",
"356 -20 OFFCURVE",
"429 -20 CURVE SMOOTH"
);
}
);
userData = {
assembly = "NPUSHB[ ]	/* 63 values pushed */\01212 6 2 2 1 1 76 0 4 5 1 5 4 1 128 0 1 2 5 1 2 126 0 5 5 3 97 0 3 3 40 77 0 2 2 0 97 6 1 0 0 38 0 78 2 0 45 43 38 35 31 29 16 14 9 8 0 61 2 61 7 8 22 \012CALL[ ]	/* CallFunction */";
};
width = 892;
}
);
note = s;
unicode = 0073;
},
{
glyphname = t;
lastChange = "2021-05-21 11:44:53 +0000";
layers = (
{
layerId = "9A482FC5-A609-4CB4-BB30-47322087609F";
paths = (
{
closed = 1;
nodes = (
"523 0 OFFCURVE",
"526 3 OFFCURVE",
"526 10 CURVE SMOOTH",
"524 1178 LINE",
"793 1178 LINE SMOOTH",
"798 1178 OFFCURVE",
"801 1181 OFFCURVE",
"801 1188 CURVE SMOOTH",
"801 1417 LINE SMOOTH",
"801 1422 OFFCURVE",
"797 1425 OFFCURVE",
"790 1425 CURVE SMOOTH",
"12 1425 LINE SMOOTH",
"7 1425 OFFCURVE",
"4 1422 OFFCURVE",
"4 1417 CURVE SMOOTH",
"2 1188 LINE SMOOTH",
"2 1181 OFFCURVE",
"5 1178 OFFCURVE",
"12 1178 CURVE SMOOTH",
"278 1178 LINE",
"278 10 LINE SMOOTH",
"278 3 OFFCURVE",
"281 0 OFFCURVE",
"287 0 CURVE SMOOTH",
"518 0 LINE SMOOTH"
);
}
);
userData = {
assembly = "NPUSHB[ ]	/* 39 values pushed */\0128 1 1 2 1 76 3 1 1 1 2 95 0 2 2 31 77 4 1 0 0 32 0 78 1 0 18 15 12 9 6 5 0 20 1 19 5 8 22 \012CALL[ ]	/* CallFunction */";
};
width = 819;
}
);
note = t;
unicode = 0074;
},
{
glyphname = u;
lastChange = "2021-05-21 11:44:53 +0000";
layers = (
{
layerId = "9A482FC5-A609-4CB4-BB30-47322087609F";
paths = (
{
closed = 1;
nodes = (
"609 -20 OFFCURVE",
"735 59 OFFCURVE",
"808 185 CURVE SMOOTH",
"844 248 OFFCURVE",
"862 317 OFFCURVE",
"862 393 CURVE SMOOTH",
"858 1417 LINE SMOOTH",
"858 1422 OFFCURVE",
"855 1425 OFFCURVE",
"850 1425 CURVE SMOOTH",
"620 1425 LINE SMOOTH",
"615 1425 OFFCURVE",
"612 1422 OFFCURVE",
"612 1417 CURVE SMOOTH",
"612 393 LINE SMOOTH",
"612 301 OFFCURVE",
"546 227 OFFCURVE",
"458 227 CURVE SMOOTH",
"374 227 OFFCURVE",
"307 301 OFFCURVE",
"307 393 CURVE SMOOTH",
"307 1417 LINE SMOOTH",
"307 1422 OFFCURVE",
"304 1425 OFFCURVE",
"299 1425 CURVE SMOOTH",
"69 1425 LINE SMOOTH",
"64 1425 OFFCURVE",
"61 1422 OFFCURVE",
"61 1417 CURVE SMOOTH",
"57 393 LINE SMOOTH",
"57 244 OFFCURVE",
"135 111 OFFCURVE",
"258 36 CURVE SMOOTH",
"319 -1 OFFCURVE",
"386 -20 OFFCURVE",
"458 -20 CURVE SMOOTH"
);
}
);
userData = {
assembly = "NPUSHB[ ]	/* 33 values pushed */\0123 1 1 1 31 77 0 2 2 0 97 4 1 0 0 38 0 78 2 0 22 19 16 14 9 6 0 28 2 28 5 8 22 \012CALL[ ]	/* CallFunction */";
};
width = 942;
}
);
note = u;
unicode = 0075;
},
{
glyphname = v;
lastChange = "2021-05-21 11:44:53 +0000";
layers = (
{
layerId = "9A482FC5-A609-4CB4-BB30-47322087609F";
paths = (
{
closed = 1;
nodes = (
"564 0 OFFCURVE",
"568 3 OFFCURVE",
"569 10 CURVE SMOOTH",
"847 1417 LINE",
"849 1422 OFFCURVE",
"846 1425 OFFCURVE",
"839 1425 CURVE SMOOTH",
"610 1425 LINE SMOOTH",
"605 1425 OFFCURVE",
"601 1422 OFFCURVE",
"600 1417 CURVE SMOOTH",
"436 479 LINE",
"268 1417 LINE SMOOTH",
"267 1422 OFFCURVE",
"263 1425 OFFCURVE",
"258 1425 CURVE SMOOTH",
"26 1425 LINE SMOOTH",
"19 1425 OFFCURVE",
"17 1422 OFFCURVE",
"18 1417 CURVE SMOOTH",
"301 10 LINE SMOOTH",
"302 3 OFFCURVE",
"306 0 OFFCURVE",
"311 0 CURVE SMOOTH",
"559 0 LINE SMOOTH"
);
}
);
userData = {
assembly = "NPUSHB[ ]	/* 24 values pushed */\01211 1 0 1 1 76 2 1 1 1 31 77 0 0 0 32 0 78 52 52 16 3 8 25 \012CALL[ ]	/* CallFunction */";
};
width = 886;
}
);
note = v;
unicode = 0076;
},
{
glyphname = w;
lastChange = "2021-05-21 11:44:53 +0000";
layers = (
{
layerId = "9A482FC5-A609-4CB4-BB30-47322087609F";
paths = (
{
closed = 1;
nodes = (
"523 0 OFFCURVE",
"527 3 OFFCURVE",
"528 10 CURVE SMOOTH",
"632 745 LINE",
"737 10 LINE",
"740 3 OFFCURVE",
"743 0 OFFCURVE",
"747 0 CURVE SMOOTH",
"995 0 LINE",
"999 3 LINE SMOOTH",
"1002 5 OFFCURVE",
"1004 7 OFFCURVE",
"1005 10 CURVE",
"1249 1417 LINE SMOOTH",
"1250 1422 OFFCURVE",
"1248 1425 OFFCURVE",
"1241 1425 CURVE SMOOTH",
"1013 1425 LINE SMOOTH",
"1008 1425 OFFCURVE",
"1004 1422 OFFCURVE",
"1003 1417 CURVE SMOOTH",
"870 492 LINE",
"737 1417 LINE SMOOTH",
"736 1422 OFFCURVE",
"732 1425 OFFCURVE",
"727 1425 CURVE SMOOTH",
"542 1425 LINE SMOOTH",
"535 1425 OFFCURVE",
"531 1422 OFFCURVE",
"530 1417 CURVE SMOOTH",
"395 492 LINE",
"264 1417 LINE SMOOTH",
"263 1422 OFFCURVE",
"259 1425 OFFCURVE",
"254 1425 CURVE SMOOTH",
"24 1425 LINE SMOOTH",
"19 1425 OFFCURVE",
"17 1422 OFFCURVE",
"18 1417 CURVE SMOOTH",
"260 10 LINE SMOOTH",
"261 3 OFFCURVE",
"265 0 OFFCURVE",
"270 0 CURVE SMOOTH",
"518 0 LINE SMOOTH"
);
}
);
userData = {
assembly = "NPUSHB[ ]	/* 30 values pushed */\01232 18 11 3 0 1 1 76 3 2 2 1 1 31 77 4 1 0 0 32 0 78 37 52 22 52 16 5 8 27 \012CALL[ ]	/* CallFunction */";
};
width = 1288;
}
);
note = w;
unicode = 0077;
},
{
glyphname = x;
lastChange = "2021-05-21 11:44:53 +0000";
layers = (
{
layerId = "9A482FC5-A609-4CB4-BB30-47322087609F";
paths = (
{
closed = 1;
nodes = (
"255 0 OFFCURVE",
"259 3 OFFCURVE",
"260 10 CURVE",
"401 539 LINE",
"540 10 LINE",
"543 3 OFFCURVE",
"548 0 OFFCURVE",
"553 0 CURVE SMOOTH",
"782 0 LINE SMOOTH",
"789 0 OFFCURVE",
"791 3 OFFCURVE",
"788 10 CURVE",
"557 743 LINE",
"786 1417 LINE",
"787 1422 OFFCURVE",
"785 1425 OFFCURVE",
"780 1425 CURVE SMOOTH",
"553 1425 LINE SMOOTH",
"546 1425 OFFCURVE",
"541 1422 OFFCURVE",
"540 1417 CURVE SMOOTH",
"401 930 LINE",
"264 1417 LINE SMOOTH",
"263 1422 OFFCURVE",
"259 1425 OFFCURVE",
"252 1425 CURVE SMOOTH",
"22 1425 LINE SMOOTH",
"17 1425 OFFCURVE",
"15 1422 OFFCURVE",
"16 1417 CURVE",
"246 741 LINE",
"12 10 LINE",
"11 3 OFFCURVE",
"13 0 OFFCURVE",
"18 0 CURVE SMOOTH",
"248 0 LINE SMOOTH"
);
}
);
userData = {
assembly = "NPUSHB[ ]	/* 29 values pushed */\01226 19 12 5 4 0 1 1 76 2 1 1 1 31 77 3 1 0 0 32 0 78 52 22 53 16 4 8 26 \012CALL[ ]	/* CallFunction */";
};
width = 827;
}
);
note = x;
unicode = 0078;
},
{
glyphname = y;
lastChange = "2021-05-21 11:44:53 +0000";
layers = (
{
layerId = "9A482FC5-A609-4CB4-BB30-47322087609F";
paths = (
{
closed = 1;
nodes = (
"513 0 OFFCURVE",
"516 3 OFFCURVE",
"516 8 CURVE SMOOTH",
"514 598 LINE",
"791 1417 LINE",
"792 1422 OFFCURVE",
"790 1425 OFFCURVE",
"785 1425 CURVE SMOOTH",
"555 1425 LINE SMOOTH",
"550 1425 OFFCURVE",
"546 1422 OFFCURVE",
"545 1417 CURVE SMOOTH",
"391 866 LINE",
"240 1417 LINE SMOOTH",
"239 1422 OFFCURVE",
"235 1425 OFFCURVE",
"228 1425 CURVE SMOOTH",
"0 1425 LINE SMOOTH",
"-5 1425 OFFCURVE",
"-7 1422 OFFCURVE",
"-6 1417 CURVE",
"268 590 LINE",
"266 8 LINE SMOOTH",
"266 3 OFFCURVE",
"268 0 OFFCURVE",
"273 0 CURVE SMOOTH",
"508 0 LINE SMOOTH"
);
}
);
userData = {
assembly = "NPUSHB[ ]	/* 34 values pushed */\01219 12 5 3 0 1 1 76 2 1 1 1 31 77 3 1 0 0 32 0 78 1 0 16 13 9 6 0 21 1 20 4 8 22 \012CALL[ ]	/* CallFunction */";
};
width = 821;
}
);
note = y;
unicode = 0079;
},
{
glyphname = z;
lastChange = "2021-05-21 11:44:53 +0000";
layers = (
{
layerId = "9A482FC5-A609-4CB4-BB30-47322087609F";
paths = (
{
closed = 1;
nodes = (
"797 0 OFFCURVE",
"800 3 OFFCURVE",
"800 10 CURVE SMOOTH",
"798 229 LINE SMOOTH",
"798 236 OFFCURVE",
"795 240 OFFCURVE",
"790 240 CURVE SMOOTH",
"297 240 LINE",
"796 1194 LINE",
"796 1415 LINE SMOOTH",
"796 1422 OFFCURVE",
"793 1425 OFFCURVE",
"786 1425 CURVE SMOOTH",
"45 1425 LINE SMOOTH",
"39 1425 OFFCURVE",
"36 1422 OFFCURVE",
"36 1415 CURVE SMOOTH",
"36 1200 LINE SMOOTH",
"36 1195 OFFCURVE",
"39 1192 OFFCURVE",
"45 1192 CURVE SMOOTH",
"520 1192 LINE",
"18 233 LINE",
"16 10 LINE SMOOTH",
"16 3 OFFCURVE",
"19 0 OFFCURVE",
"26 0 CURVE SMOOTH",
"790 0 LINE SMOOTH"
);
}
);
userData = {
assembly = "NPUSHB[ ]	/* 41 values pushed */\01216 15 2 1 2 21 5 4 3 0 3 2 76 0 1 1 2 95 0 2 2 31 77 0 3 3 0 95 0 0 0 32 0 78 20 51 21 16 4 8 26 \012CALL[ ]	/* CallFunction */";
};
width = 847;
}
);
note = z;
unicode = 007A;
},
{
glyphname = uni1780;
lastChange = "2021-05-21 11:44:53 +0000";
layers = (
{
layerId = "9A482FC5-A609-4CB4-BB30-47322087609F";
paths = (
{
closed = 1;
nodes = (
"150 1500 LINE",
"150 1250 LINE",
"1050 1250 LINE",
"1050 1500 LINE"
);
},
{
closed = 1;
nodes = (
"1050 1000 OFFCURVE",
"900 1100 OFFCURVE",
"600 1100 CURVE SMOOTH",
"300 1100 OFFCURVE",
"150 1000 OFFCURVE",
"150 800 CURVE SMOOTH",
"150 0 LINE",
"450 0 LINE",
"450 800 LINE SMOOTH",
"450 867 OFFCURVE",
"500 900 OFFCURVE",
"600 900 CURVE SMOOTH",
"700 900 OFFCURVE",
"750 867 OFFCURVE",
"750 800 CURVE SMOOTH",
"750 0 LINE",
"1050 0 LINE",
"1050 800 LINE SMOOTH"
);
}
);
width = 1200;
}
);
note = uni1780;
unicode = 1780;
},
{
glyphname = uni1781;
lastChange = "2021-05-21 11:44:53 +0000";
layers = (
{
layerId = "9A482FC5-A609-4CB4-BB30-47322087609F";
paths = (
{
closed = 1;
nodes = (
"150 669 LINE",
"150 300 LINE SMOOTH",
"150 100 OFFCURVE",
"300 0 OFFCURVE",
"600 0 CURVE SMOOTH",
"900 0 OFFCURVE",
"1050 100 OFFCURVE",
"1050 300 CURVE SMOOTH",
"1050 600 LINE",
"750 600 LINE",
"750 300 LINE SMOOTH",
"750 233 OFFCURVE",
"700 200 OFFCURVE",
"600 200 CURVE SMOOTH",
"500 200 OFFCURVE",
"450 233 OFFCURVE",
"450 300 CURVE SMOOTH",
"450 559 LINE",
"525 585 LINE SMOOTH",
"875 704 OFFCURVE",
"1050 859 OFFCURVE",
"1050 1050 CURVE SMOOTH",
"1050 1200 LINE SMOOTH",
"1050 1400 OFFCURVE",
"900 1500 OFFCURVE",
"600 1500 CURVE SMOOTH",
"300 1500 OFFCURVE",
"150 1400 OFFCURVE",
"150 1200 CURVE SMOOTH",
"150 1000 LINE SMOOTH",
"150 933 OFFCURVE",
"200 900 OFFCURVE",
"300 900 CURVE SMOOTH",
"500 900 LINE",
"500 1100 LINE",
"450 1100 LINE",
"450 1200 LINE SMOOTH",
"450 1267 OFFCURVE",
"500 1300 OFFCURVE",
"600 1300 CURVE SMOOTH",
"700 1300 OFFCURVE",
"750 1267 OFFCURVE",
"750 1200 CURVE SMOOTH",
"750 1050 LINE SMOOTH",
"750 932 OFFCURVE",
"650 839 OFFCURVE",
"450 771 CURVE SMOOTH"
);
}
);
width = 1200;
}
);
note = uni1781;
unicode = 1781;
},
{
glyphname = uni1782;
lastChange = "2021-05-21 11:44:53 +0000";
layers = (
{
layerId = "9A482FC5-A609-4CB4-BB30-47322087609F";
paths = (
{
closed = 1;
nodes = (
"150 1500 LINE",
"150 1250 LINE",
"1050 1250 LINE",
"1050 1500 LINE"
);
},
{
closed = 1;
nodes = (
"450 343 LINE",
"450 800 LINE SMOOTH",
"450 867 OFFCURVE",
"500 900 OFFCURVE",
"600 900 CURVE SMOOTH",
"700 900 OFFCURVE",
"750 867 OFFCURVE",
"750 800 CURVE SMOOTH",
"750 0 LINE",
"1050 0 LINE",
"1050 800 LINE SMOOTH",
"1050 1000 OFFCURVE",
"900 1100 OFFCURVE",
"600 1100 CURVE SMOOTH",
"300 1100 OFFCURVE",
"150 1000 OFFCURVE",
"150 800 CURVE SMOOTH",
"150 0 LINE",
"450 0 LINE",
"450 27 LINE",
"681 454 LINE",
"549 526 LINE"
);
}
);
width = 1200;
}
);
note = uni1782;
unicode = 1782;
},
{
glyphname = uni1783;
lastChange = "2021-05-21 11:44:53 +0000";
layers = (
{
layerId = "9A482FC5-A609-4CB4-BB30-47322087609F";
paths = (
{
closed = 1;
nodes = (
"450 1433 OFFCURVE",
"383 1500 OFFCURVE",
"250 1500 CURVE SMOOTH",
"50 1500 LINE",
"50 1300 LINE",
"117 1300 OFFCURVE",
"150 1267 OFFCURVE",
"150 1200 CURVE SMOOTH",
"150 300 LINE SMOOTH",
"150 100 OFFCURVE",
"300 0 OFFCURVE",
"600 0 CURVE SMOOTH",
"727 0 OFFCURVE",
"827 18 OFFCURVE",
"900 54 CURVE",
"973 18 OFFCURVE",
"1073 0 OFFCURVE",
"1200 0 CURVE SMOOTH",
"1500 0 OFFCURVE",
"1650 100 OFFCURVE",
"1650 300 CURVE SMOOTH",
"1650 1500 LINE",
"1350 1500 LINE",
"1350 300 LINE SMOOTH",
"1350 233 OFFCURVE",
"1300 200 OFFCURVE",
"1200 200 CURVE SMOOTH",
"1100 200 OFFCURVE",
"1050 233 OFFCURVE",
"1050 300 CURVE SMOOTH",
"1050 1500 LINE",
"750 1500 LINE",
"750 300 LINE SMOOTH",
"750 233 OFFCURVE",
"700 200 OFFCURVE",
"600 200 CURVE SMOOTH",
"500 200 OFFCURVE",
"450 233 OFFCURVE",
"450 300 CURVE SMOOTH",
"450 1300 LINE SMOOTH"
);
}
);
width = 1800;
}
);
note = uni1783;
unicode = 1783;
},
{
glyphname = uni1784;
lastChange = "2021-05-21 11:44:53 +0000";
layers = (
{
layerId = "9A482FC5-A609-4CB4-BB30-47322087609F";
paths = (
{
closed = 1;
nodes = (
"600 439 LINE",
"450 293 LINE",
"450 850 LINE SMOOTH",
"450 950 OFFCURVE",
"383 1000 OFFCURVE",
"250 1000 CURVE SMOOTH",
"100 1000 LINE",
"100 800 LINE",
"133 800 OFFCURVE",
"150 767 OFFCURVE",
"150 700 CURVE SMOOTH",
"150 100 LINE SMOOTH",
"150 33 OFFCURVE",
"199 0 OFFCURVE",
"297 0 CURVE SMOOTH",
"450 0 LINE",
"600 146 LINE",
"750 0 LINE",
"903 0 LINE SMOOTH",
"1001 0 OFFCURVE",
"1050 33 OFFCURVE",
"1050 100 CURVE SMOOTH",
"1050 1000 LINE",
"881 1106 LINE",
"900 1111 OFFCURVE",
"918 1118 OFFCURVE",
"937 1127 CURVE SMOOTH",
"1009 1162 OFFCURVE",
"1050 1231 OFFCURVE",
"1050 1300 CURVE SMOOTH",
"1050 1433 OFFCURVE",
"992 1500 OFFCURVE",
"875 1500 CURVE SMOOTH",
"758 1500 OFFCURVE",
"700 1433 OFFCURVE",
"700 1300 CURVE",
"550 1300 LINE SMOOTH",
"483 1300 OFFCURVE",
"450 1333 OFFCURVE",
"450 1400 CURVE SMOOTH",
"450 1600 LINE",
"150 1600 LINE",
"150 1400 LINE SMOOTH",
"150 1200 OFFCURVE",
"243 1100 OFFCURVE",
"430 1100 CURVE SMOOTH",
"750 1100 LINE",
"750 293 LINE"
);
}
);
width = 1200;
}
);
note = uni1784;
unicode = 1784;
},
{
glyphname = uni1785;
lastChange = "2021-05-21 11:44:53 +0000";
layers = (
{
layerId = "9A482FC5-A609-4CB4-BB30-47322087609F";
paths = (
{
closed = 1;
nodes = (
"1050 1067 OFFCURVE",
"1000 1100 OFFCURVE",
"900 1100 CURVE SMOOTH",
"750 1100 LINE SMOOTH",
"650 1100 OFFCURVE",
"600 1067 OFFCURVE",
"600 1000 CURVE SMOOTH",
"600 950 LINE SMOOTH",
"600 883 OFFCURVE",
"650 850 OFFCURVE",
"750 850 CURVE",
"750 300 LINE SMOOTH",
"750 233 OFFCURVE",
"700 200 OFFCURVE",
"600 200 CURVE SMOOTH",
"500 200 OFFCURVE",
"450 233 OFFCURVE",
"450 300 CURVE SMOOTH",
"450 810 LINE SMOOTH",
"450 870 OFFCURVE",
"467 900 OFFCURVE",
"500 900 CURVE",
"500 1100 LINE",
"320 1183 LINE",
"320 1250 LINE",
"1050 1250 LINE",
"1050 1500 LINE",
"100 1500 LINE",
"100 1047 LINE",
"250 980 LINE",
"183 947 OFFCURVE",
"150 903 OFFCURVE",
"150 850 CURVE SMOOTH",
"150 300 LINE SMOOTH",
"150 100 OFFCURVE",
"300 0 OFFCURVE",
"600 0 CURVE SMOOTH",
"900 0 OFFCURVE",
"1050 100 OFFCURVE",
"1050 300 CURVE SMOOTH",
"1050 1000 LINE SMOOTH"
);
}
);
width = 1200;
}
);
note = uni1785;
unicode = 1785;
},
{
glyphname = uni1786;
lastChange = "2021-05-21 11:44:53 +0000";
layers = (
{
layerId = "9A482FC5-A609-4CB4-BB30-47322087609F";
paths = (
{
closed = 1;
nodes = (
"1050 1067 OFFCURVE",
"1000 1100 OFFCURVE",
"900 1100 CURVE SMOOTH",
"750 1100 LINE SMOOTH",
"650 1100 OFFCURVE",
"600 1067 OFFCURVE",
"600 1000 CURVE SMOOTH",
"600 950 LINE SMOOTH",
"600 883 OFFCURVE",
"650 850 OFFCURVE",
"750 850 CURVE",
"750 341 LINE",
"681 380 OFFCURVE",
"598 400 OFFCURVE",
"500 400 CURVE SMOOTH",
"450 400 LINE",
"450 810 LINE SMOOTH",
"450 870 OFFCURVE",
"467 900 OFFCURVE",
"500 900 CURVE",
"500 1100 LINE",
"320 1183 LINE",
"320 1250 LINE",
"1050 1250 LINE",
"1050 1500 LINE",
"100 1500 LINE",
"100 1047 LINE",
"250 980 LINE",
"183 947 OFFCURVE",
"150 903 OFFCURVE",
"150 850 CURVE SMOOTH",
"150 450 LINE",
"283 399 LINE",
"255 397 OFFCURVE",
"228 389 OFFCURVE",
"202 374 CURVE SMOOTH",
"138 339 OFFCURVE",
"100 269 OFFCURVE",
"100 200 CURVE SMOOTH",
"100 67 OFFCURVE",
"167 0 OFFCURVE",
"300 0 CURVE SMOOTH",
"400 0 OFFCURVE",
"450 67 OFFCURVE",
"450 200 CURVE",
"500 200 LINE SMOOTH",
"628 200 OFFCURVE",
"750 129 OFFCURVE",
"750 0 CURVE",
"900 0 LINE SMOOTH",
"1000 0 OFFCURVE",
"1050 67 OFFCURVE",
"1050 200 CURVE SMOOTH",
"1050 1000 LINE SMOOTH"
);
}
);
width = 1200;
}
);
note = uni1786;
unicode = 1786;
},
{
glyphname = uni1787;
lastChange = "2021-05-21 11:44:53 +0000";
layers = (
{
layerId = "9A482FC5-A609-4CB4-BB30-47322087609F";
paths = (
{
closed = 1;
nodes = (
"450 870 OFFCURVE",
"483 900 OFFCURVE",
"550 900 CURVE",
"550 1100 LINE",
"320 1183 LINE",
"320 1250 LINE",
"1050 1250 LINE",
"1050 1600 LINE",
"750 1600 LINE",
"750 1500 LINE",
"100 1500 LINE",
"100 1037 LINE",
"250 980 LINE",
"183 947 OFFCURVE",
"150 903 OFFCURVE",
"150 850 CURVE SMOOTH",
"150 100 LINE SMOOTH",
"150 33 OFFCURVE",
"199 0 OFFCURVE",
"297 0 CURVE SMOOTH",
"450 0 LINE",
"600 146 LINE",
"750 0 LINE",
"903 0 LINE SMOOTH",
"1001 0 OFFCURVE",
"1050 33 OFFCURVE",
"1050 100 CURVE SMOOTH",
"1050 1100 LINE",
"750 1100 LINE",
"750 293 LINE",
"600 439 LINE",
"450 293 LINE",
"450 810 LINE SMOOTH"
);
}
);
width = 1200;
}
);
note = uni1787;
unicode = 1787;
},
{
glyphname = uni1788;
lastChange = "2021-05-21 11:44:53 +0000";
layers = (
{
layerId = "9A482FC5-A609-4CB4-BB30-47322087609F";
paths = (
{
closed = 1;
nodes = (
"1350 300 LINE SMOOTH",
"1350 233 OFFCURVE",
"1300 200 OFFCURVE",
"1200 200 CURVE SMOOTH",
"1100 200 OFFCURVE",
"1050 233 OFFCURVE",
"1050 300 CURVE SMOOTH",
"1050 1200 LINE SMOOTH",
"1050 1400 OFFCURVE",
"900 1500 OFFCURVE",
"600 1500 CURVE SMOOTH",
"300 1500 OFFCURVE",
"150 1400 OFFCURVE",
"150 1200 CURVE SMOOTH",
"150 300 LINE SMOOTH",
"150 100 OFFCURVE",
"225 0 OFFCURVE",
"375 0 CURVE SMOOTH",
"600 0 LINE",
"600 200 LINE",
"500 200 OFFCURVE",
"450 233 OFFCURVE",
"450 300 CURVE SMOOTH",
"450 1200 LINE SMOOTH",
"450 1267 OFFCURVE",
"500 1300 OFFCURVE",
"600 1300 CURVE SMOOTH",
"700 1300 OFFCURVE",
"750 1267 OFFCURVE",
"750 1200 CURVE SMOOTH",
"750 300 LINE SMOOTH",
"750 100 OFFCURVE",
"900 0 OFFCURVE",
"1200 0 CURVE SMOOTH",
"1327 0 OFFCURVE",
"1427 18 OFFCURVE",
"1500 54 CURVE",
"1573 18 OFFCURVE",
"1673 0 OFFCURVE",
"1800 0 CURVE SMOOTH",
"2100 0 OFFCURVE",
"2250 100 OFFCURVE",
"2250 300 CURVE SMOOTH",
"2250 1500 LINE",
"1950 1500 LINE",
"1950 300 LINE SMOOTH",
"1950 233 OFFCURVE",
"1900 200 OFFCURVE",
"1800 200 CURVE SMOOTH",
"1700 200 OFFCURVE",
"1650 233 OFFCURVE",
"1650 300 CURVE SMOOTH",
"1650 1500 LINE",
"1350 1500 LINE"
);
}
);
width = 2400;
}
);
note = uni1788;
unicode = 1788;
},
{
glyphname = uni1789;
lastChange = "2021-05-21 11:44:53 +0000";
layers = (
{
layerId = "9A482FC5-A609-4CB4-BB30-47322087609F";
paths = (
{
closed = 1;
nodes = (
"750 1207 LINE",
"750 0 LINE",
"1050 0 LINE",
"1050 1400 LINE SMOOTH",
"1050 1467 OFFCURVE",
"1001 1500 OFFCURVE",
"903 1500 CURVE SMOOTH",
"750 1500 LINE",
"600 1354 LINE",
"450 1500 LINE",
"297 1500 LINE SMOOTH",
"199 1500 OFFCURVE",
"150 1467 OFFCURVE",
"150 1400 CURVE SMOOTH",
"150 100 LINE SMOOTH",
"150 33 OFFCURVE",
"200 0 OFFCURVE",
"300 0 CURVE SMOOTH",
"450 0 LINE SMOOTH",
"550 0 OFFCURVE",
"600 33 OFFCURVE",
"600 100 CURVE SMOOTH",
"600 200 LINE SMOOTH",
"600 267 OFFCURVE",
"550 300 OFFCURVE",
"450 300 CURVE",
"450 1207 LINE",
"600 1061 LINE"
);
},
{
closed = 1;
nodes = (
"1650 1400 OFFCURVE",
"1500 1500 OFFCURVE",
"1200 1500 CURVE SMOOTH",
"1100 1500 LINE",
"1100 1250 LINE",
"1200 1250 LINE SMOOTH",
"1300 1250 OFFCURVE",
"1350 1217 OFFCURVE",
"1350 1150 CURVE SMOOTH",
"1350 0 LINE",
"1650 0 LINE",
"1650 1200 LINE SMOOTH"
);
},
{
closed = 1;
nodes = (
"565 -450 OFFCURVE",
"752 -533 OFFCURVE",
"962 -700 CURVE",
"1450 -700 LINE SMOOTH",
"1583 -700 OFFCURVE",
"1650 -633 OFFCURVE",
"1650 -500 CURVE SMOOTH",
"1650 -300 LINE SMOOTH",
"1650 -167 OFFCURVE",
"1583 -100 OFFCURVE",
"1450 -100 CURVE SMOOTH",
"1200 -100 LINE",
"1200 -350 LINE",
"1350 -350 LINE",
"1350 -500 LINE",
"1104 -500 LINE",
"867 -300 OFFCURVE",
"632 -200 OFFCURVE",
"400 -200 CURVE SMOOTH",
"150 -200 LINE",
"150 -450 LINE",
"400 -450 LINE SMOOTH"
);
}
);
width = 1800;
}
);
note = uni1789;
unicode = 1789;
},
{
glyphname = uni178A;
lastChange = "2021-05-21 11:44:53 +0000";
layers = (
{
layerId = "9A482FC5-A609-4CB4-BB30-47322087609F";
paths = (
{
closed = 1;
nodes = (
"1000 1150 OFFCURVE",
"1050 1200 OFFCURVE",
"1050 1300 CURVE SMOOTH",
"1050 1600 LINE",
"750 1600 LINE",
"750 1350 LINE",
"450 1350 LINE",
"450 1400 LINE",
"500 1400 LINE",
"500 1500 LINE",
"150 1500 LINE",
"150 1150 LINE",
"900 1150 LINE SMOOTH"
);
},
{
closed = 1;
nodes = (
"150 33 OFFCURVE",
"199 0 OFFCURVE",
"297 0 CURVE SMOOTH",
"450 0 LINE",
"600 146 LINE",
"750 0 LINE",
"903 0 LINE SMOOTH",
"1001 0 OFFCURVE",
"1050 33 OFFCURVE",
"1050 100 CURVE SMOOTH",
"1050 1050 LINE",
"750 1050 LINE",
"750 293 LINE",
"600 439 LINE",
"450 293 LINE",
"450 1050 LINE",
"150 1050 LINE",
"150 100 LINE SMOOTH"
);
}
);
width = 1200;
}
);
note = uni178A;
unicode = 178A;
},
{
glyphname = uni178B;
lastChange = "2021-05-21 11:44:53 +0000";
layers = (
{
layerId = "9A482FC5-A609-4CB4-BB30-47322087609F";
paths = (
{
closed = 1;
nodes = (
"1050 870 OFFCURVE",
"1067 900 OFFCURVE",
"1100 900 CURVE",
"1100 1100 LINE",
"920 1183 LINE",
"920 1250 LINE",
"1100 1250 LINE",
"1100 1600 LINE",
"900 1600 LINE",
"900 1500 LINE",
"700 1500 LINE",
"700 1037 LINE",
"850 980 LINE",
"783 947 OFFCURVE",
"750 903 OFFCURVE",
"750 850 CURVE SMOOTH",
"750 300 LINE SMOOTH",
"750 233 OFFCURVE",
"700 200 OFFCURVE",
"600 200 CURVE SMOOTH",
"500 200 OFFCURVE",
"450 233 OFFCURVE",
"450 300 CURVE SMOOTH",
"450 1350 LINE SMOOTH",
"450 1450 OFFCURVE",
"383 1500 OFFCURVE",
"250 1500 CURVE SMOOTH",
"100 1500 LINE",
"100 1300 LINE",
"133 1300 OFFCURVE",
"150 1267 OFFCURVE",
"150 1200 CURVE SMOOTH",
"150 300 LINE SMOOTH",
"150 100 OFFCURVE",
"300 0 OFFCURVE",
"600 0 CURVE SMOOTH",
"900 0 OFFCURVE",
"1050 100 OFFCURVE",
"1050 300 CURVE SMOOTH",
"1050 810 LINE SMOOTH"
);
}
);
width = 1200;
}
);
note = uni178B;
unicode = 178B;
},
{
glyphname = uni178C;
lastChange = "2021-05-21 11:44:53 +0000";
layers = (
{
layerId = "9A482FC5-A609-4CB4-BB30-47322087609F";
paths = (
{
closed = 1;
nodes = (
"683 233 OFFCURVE",
"617 200 OFFCURVE",
"550 200 CURVE SMOOTH",
"483 200 OFFCURVE",
"450 233 OFFCURVE",
"450 300 CURVE SMOOTH",
"450 559 LINE",
"525 585 LINE SMOOTH",
"875 704 OFFCURVE",
"1050 859 OFFCURVE",
"1050 1050 CURVE SMOOTH",
"1050 1400 LINE SMOOTH",
"1050 1467 OFFCURVE",
"1001 1500 OFFCURVE",
"903 1500 CURVE SMOOTH",
"750 1500 LINE",
"600 1354 LINE",
"450 1500 LINE",
"297 1500 LINE SMOOTH",
"199 1500 OFFCURVE",
"150 1467 OFFCURVE",
"150 1400 CURVE SMOOTH",
"150 1000 LINE SMOOTH",
"150 933 OFFCURVE",
"200 900 OFFCURVE",
"300 900 CURVE SMOOTH",
"500 900 LINE",
"500 1100 LINE",
"450 1100 LINE",
"450 1207 LINE",
"600 1061 LINE",
"750 1207 LINE",
"750 1050 LINE SMOOTH",
"750 932 OFFCURVE",
"650 839 OFFCURVE",
"450 771 CURVE SMOOTH",
"150 669 LINE",
"150 300 LINE SMOOTH",
"150 100 OFFCURVE",
"233 0 OFFCURVE",
"400 0 CURVE SMOOTH",
"550 0 LINE SMOOTH",
"627 0 OFFCURVE",
"693 15 OFFCURVE",
"750 44 CURVE",
"750 -50 LINE",
"1050 -50 LINE",
"1050 600 LINE",
"750 600 LINE",
"750 300 LINE"
);
}
);
width = 1200;
}
);
note = uni178C;
unicode = 178C;
},
{
glyphname = uni178D;
lastChange = "2021-05-21 11:44:53 +0000";
layers = (
{
layerId = "9A482FC5-A609-4CB4-BB30-47322087609F";
paths = (
{
closed = 1;
nodes = (
"1050 1467 OFFCURVE",
"1001 1500 OFFCURVE",
"903 1500 CURVE SMOOTH",
"750 1500 LINE",
"600 1354 LINE",
"450 1500 LINE",
"297 1500 LINE SMOOTH",
"199 1500 OFFCURVE",
"150 1467 OFFCURVE",
"150 1400 CURVE SMOOTH",
"150 100 LINE SMOOTH",
"150 33 OFFCURVE",
"200 0 OFFCURVE",
"300 0 CURVE SMOOTH",
"450 0 LINE SMOOTH",
"550 0 OFFCURVE",
"600 33 OFFCURVE",
"600 100 CURVE SMOOTH",
"600 200 LINE SMOOTH",
"600 267 OFFCURVE",
"550 300 OFFCURVE",
"450 300 CURVE",
"450 1207 LINE",
"600 1061 LINE",
"750 1207 LINE",
"750 450 LINE",
"883 399 LINE",
"855 397 OFFCURVE",
"828 389 OFFCURVE",
"802 374 CURVE SMOOTH",
"738 339 OFFCURVE",
"700 269 OFFCURVE",
"700 200 CURVE SMOOTH",
"700 67 OFFCURVE",
"767 0 OFFCURVE",
"900 0 CURVE SMOOTH",
"1000 0 OFFCURVE",
"1050 67 OFFCURVE",
"1050 200 CURVE",
"1100 200 LINE SMOOTH",
"1228 200 OFFCURVE",
"1350 129 OFFCURVE",
"1350 0 CURVE",
"1500 0 LINE SMOOTH",
"1600 0 OFFCURVE",
"1650 67 OFFCURVE",
"1650 200 CURVE SMOOTH",
"1650 1500 LINE",
"1350 1500 LINE",
"1350 341 LINE",
"1281 380 OFFCURVE",
"1198 400 OFFCURVE",
"1100 400 CURVE SMOOTH",
"1050 400 LINE",
"1050 1400 LINE SMOOTH"
);
}
);
width = 1800;
}
);
note = uni178D;
unicode = 178D;
},
{
glyphname = uni178E;
lastChange = "2021-05-21 11:44:53 +0000";
layers = (
{
layerId = "9A482FC5-A609-4CB4-BB30-47322087609F";
paths = (
{
closed = 1;
nodes = (
"750 33 OFFCURVE",
"799 0 OFFCURVE",
"897 0 CURVE SMOOTH",
"1050 0 LINE",
"1200 146 LINE",
"1350 0 LINE",
"1503 0 LINE SMOOTH",
"1601 0 OFFCURVE",
"1650 33 OFFCURVE",
"1650 100 CURVE SMOOTH",
"1650 1200 LINE SMOOTH",
"1650 1267 OFFCURVE",
"1700 1300 OFFCURVE",
"1800 1300 CURVE SMOOTH",
"1900 1300 OFFCURVE",
"1950 1267 OFFCURVE",
"1950 1200 CURVE SMOOTH",
"1950 0 LINE",
"2250 0 LINE",
"2250 1200 LINE SMOOTH",
"2250 1400 OFFCURVE",
"2100 1500 OFFCURVE",
"1800 1500 CURVE SMOOTH",
"1500 1500 OFFCURVE",
"1350 1400 OFFCURVE",
"1350 1200 CURVE SMOOTH",
"1350 293 LINE",
"1200 439 LINE",
"1050 293 LINE",
"1050 1200 LINE SMOOTH",
"1050 1400 OFFCURVE",
"900 1500 OFFCURVE",
"600 1500 CURVE SMOOTH",
"300 1500 OFFCURVE",
"150 1400 OFFCURVE",
"150 1200 CURVE SMOOTH",
"150 0 LINE",
"450 0 LINE",
"450 1200 LINE SMOOTH",
"450 1267 OFFCURVE",
"500 1300 OFFCURVE",
"600 1300 CURVE SMOOTH",
"700 1300 OFFCURVE",
"750 1267 OFFCURVE",
"750 1200 CURVE SMOOTH",
"750 100 LINE SMOOTH"
);
}
);
width = 2400;
}
);
note = uni178E;
unicode = 178E;
},
{
glyphname = uni178F;
lastChange = "2021-05-21 11:44:53 +0000";
layers = (
{
layerId = "9A482FC5-A609-4CB4-BB30-47322087609F";
paths = (
{
closed = 1;
nodes = (
"150 1500 LINE",
"150 1250 LINE",
"1050 1250 LINE",
"1050 1500 LINE"
);
},
{
closed = 1;
nodes = (
"150 33 OFFCURVE",
"200 0 OFFCURVE",
"300 0 CURVE SMOOTH",
"450 0 LINE SMOOTH",
"550 0 OFFCURVE",
"600 33 OFFCURVE",
"600 100 CURVE SMOOTH",
"600 200 LINE SMOOTH",
"600 267 OFFCURVE",
"550 300 OFFCURVE",
"450 300 CURVE",
"450 800 LINE SMOOTH",
"450 867 OFFCURVE",
"500 900 OFFCURVE",
"600 900 CURVE SMOOTH",
"700 900 OFFCURVE",
"750 867 OFFCURVE",
"750 800 CURVE SMOOTH",
"750 0 LINE",
"1050 0 LINE",
"1050 800 LINE SMOOTH",
"1050 1000 OFFCURVE",
"900 1100 OFFCURVE",
"600 1100 CURVE SMOOTH",
"300 1100 OFFCURVE",
"150 1000 OFFCURVE",
"150 800 CURVE SMOOTH",
"150 100 LINE SMOOTH"
);
}
);
width = 1200;
}
);
note = uni178F;
unicode = 178F;
},
{
glyphname = uni1790;
lastChange = "2021-05-21 11:44:53 +0000";
layers = (
{
layerId = "9A482FC5-A609-4CB4-BB30-47322087609F";
paths = (
{
closed = 1;
nodes = (
"150 100 OFFCURVE",
"300 0 OFFCURVE",
"600 0 CURVE SMOOTH",
"900 0 OFFCURVE",
"1050 100 OFFCURVE",
"1050 300 CURVE SMOOTH",
"1050 1000 LINE SMOOTH",
"1050 1067 OFFCURVE",
"1000 1100 OFFCURVE",
"900 1100 CURVE SMOOTH",
"750 1100 LINE SMOOTH",
"650 1100 OFFCURVE",
"600 1067 OFFCURVE",
"600 1000 CURVE SMOOTH",
"600 950 LINE SMOOTH",
"600 883 OFFCURVE",
"650 850 OFFCURVE",
"750 850 CURVE",
"750 300 LINE SMOOTH",
"750 233 OFFCURVE",
"700 200 OFFCURVE",
"600 200 CURVE SMOOTH",
"500 200 OFFCURVE",
"450 233 OFFCURVE",
"450 300 CURVE SMOOTH",
"450 810 LINE SMOOTH",
"450 870 OFFCURVE",
"467 900 OFFCURVE",
"500 900 CURVE",
"500 1100 LINE",
"320 1183 LINE",
"320 1250 LINE",
"1050 1250 LINE",
"1050 1600 LINE",
"750 1600 LINE",
"750 1500 LINE",
"100 1500 LINE",
"100 1057 LINE",
"250 980 LINE",
"183 947 OFFCURVE",
"150 903 OFFCURVE",
"150 850 CURVE SMOOTH",
"150 300 LINE SMOOTH"
);
}
);
width = 1200;
}
);
note = uni1790;
unicode = 1790;
},
{
glyphname = uni1791;
lastChange = "2021-05-21 11:44:53 +0000";
layers = (
{
layerId = "9A482FC5-A609-4CB4-BB30-47322087609F";
paths = (
{
closed = 1;
nodes = (
"150 825 OFFCURVE",
"250 712 OFFCURVE",
"451 660 CURVE SMOOTH",
"750 585 LINE",
"750 300 LINE SMOOTH",
"750 233 OFFCURVE",
"700 200 OFFCURVE",
"600 200 CURVE SMOOTH",
"500 200 OFFCURVE",
"450 233 OFFCURVE",
"450 300 CURVE SMOOTH",
"450 550 LINE",
"150 620 LINE",
"150 300 LINE SMOOTH",
"150 100 OFFCURVE",
"300 0 OFFCURVE",
"600 0 CURVE SMOOTH",
"900 0 OFFCURVE",
"1050 100 OFFCURVE",
"1050 300 CURVE SMOOTH",
"1050 490 LINE",
"947 539 LINE",
"1016 561 OFFCURVE",
"1050 596 OFFCURVE",
"1050 644 CURVE SMOOTH",
"1050 766 LINE SMOOTH",
"1050 822 OFFCURVE",
"1017 850 OFFCURVE",
"950 850 CURVE SMOOTH",
"910 850 LINE SMOOTH",
"869 850 OFFCURVE",
"830 821 OFFCURVE",
"803 790 CURVE",
"666 822 LINE SMOOTH",
"522 855 OFFCURVE",
"450 915 OFFCURVE",
"450 1000 CURVE SMOOTH",
"450 1200 LINE SMOOTH",
"450 1267 OFFCURVE",
"500 1300 OFFCURVE",
"600 1300 CURVE SMOOTH",
"700 1300 OFFCURVE",
"750 1267 OFFCURVE",
"750 1200 CURVE SMOOTH",
"750 1150 LINE",
"700 1150 LINE",
"700 950 LINE",
"900 950 LINE SMOOTH",
"1000 950 OFFCURVE",
"1050 983 OFFCURVE",
"1050 1050 CURVE SMOOTH",
"1050 1200 LINE SMOOTH",
"1050 1400 OFFCURVE",
"900 1500 OFFCURVE",
"600 1500 CURVE SMOOTH",
"300 1500 OFFCURVE",
"150 1400 OFFCURVE",
"150 1200 CURVE SMOOTH",
"150 1000 LINE SMOOTH"
);
}
);
width = 1200;
}
);
note = uni1791;
unicode = 1791;
},
{
glyphname = uni1792;
lastChange = "2021-05-21 11:44:53 +0000";
layers = (
{
layerId = "9A482FC5-A609-4CB4-BB30-47322087609F";
paths = (
{
closed = 1;
nodes = (
"150 33 OFFCURVE",
"199 0 OFFCURVE",
"297 0 CURVE SMOOTH",
"450 0 LINE",
"600 146 LINE",
"750 0 LINE",
"903 0 LINE SMOOTH",
"1001 0 OFFCURVE",
"1050 33 OFFCURVE",
"1050 100 CURVE SMOOTH",
"1050 1000 LINE SMOOTH",
"1050 1067 OFFCURVE",
"1000 1100 OFFCURVE",
"900 1100 CURVE SMOOTH",
"750 1100 LINE SMOOTH",
"650 1100 OFFCURVE",
"600 1067 OFFCURVE",
"600 1000 CURVE SMOOTH",
"600 950 LINE SMOOTH",
"600 883 OFFCURVE",
"650 850 OFFCURVE",
"750 850 CURVE",
"750 293 LINE",
"600 439 LINE",
"450 293 LINE",
"450 810 LINE SMOOTH",
"450 870 OFFCURVE",
"467 900 OFFCURVE",
"500 900 CURVE",
"500 1100 LINE",
"320 1183 LINE",
"320 1250 LINE",
"1050 1250 LINE",
"1050 1500 LINE",
"100 1500 LINE",
"100 1047 LINE",
"250 980 LINE",
"183 947 OFFCURVE",
"150 903 OFFCURVE",
"150 850 CURVE SMOOTH",
"150 100 LINE SMOOTH"
);
}
);
width = 1200;
}
);
note = uni1792;
unicode = 1792;
},
{
glyphname = uni1793;
lastChange = "2021-05-21 11:44:53 +0000";
layers = (
{
layerId = "9A482FC5-A609-4CB4-BB30-47322087609F";
paths = (
{
closed = 1;
nodes = (
"150 33 OFFCURVE",
"199 0 OFFCURVE",
"297 0 CURVE SMOOTH",
"450 0 LINE",
"600 146 LINE",
"750 0 LINE",
"903 0 LINE SMOOTH",
"1001 0 OFFCURVE",
"1050 33 OFFCURVE",
"1050 100 CURVE SMOOTH",
"1050 699 LINE",
"750 781 LINE SMOOTH",
"550 836 OFFCURVE",
"450 909 OFFCURVE",
"450 1000 CURVE SMOOTH",
"450 1200 LINE SMOOTH",
"450 1267 OFFCURVE",
"500 1300 OFFCURVE",
"600 1300 CURVE SMOOTH",
"700 1300 OFFCURVE",
"750 1267 OFFCURVE",
"750 1200 CURVE SMOOTH",
"750 1100 LINE",
"700 1100 LINE",
"700 900 LINE",
"900 900 LINE SMOOTH",
"1000 900 OFFCURVE",
"1050 933 OFFCURVE",
"1050 1000 CURVE SMOOTH",
"1050 1200 LINE SMOOTH",
"1050 1400 OFFCURVE",
"900 1500 OFFCURVE",
"600 1500 CURVE SMOOTH",
"300 1500 OFFCURVE",
"150 1400 OFFCURVE",
"150 1200 CURVE SMOOTH",
"150 1000 LINE SMOOTH",
"150 835 OFFCURVE",
"325 700 OFFCURVE",
"675 595 CURVE",
"750 576 LINE",
"750 293 LINE",
"600 439 LINE",
"450 293 LINE",
"450 600 LINE",
"150 600 LINE",
"150 100 LINE SMOOTH"
);
}
);
width = 1200;
}
);
note = uni1793;
unicode = 1793;
},
{
glyphname = uni1794;
lastChange = "2021-05-21 11:44:53 +0000";
layers = (
{
layerId = "9A482FC5-A609-4CB4-BB30-47322087609F";
paths = (
{
closed = 1;
nodes = (
"183 947 OFFCURVE",
"150 903 OFFCURVE",
"150 850 CURVE SMOOTH",
"150 300 LINE SMOOTH",
"150 100 OFFCURVE",
"300 0 OFFCURVE",
"600 0 CURVE SMOOTH",
"900 0 OFFCURVE",
"1050 100 OFFCURVE",
"1050 300 CURVE SMOOTH",
"1050 1500 LINE",
"750 1500 LINE",
"750 300 LINE SMOOTH",
"750 233 OFFCURVE",
"700 200 OFFCURVE",
"600 200 CURVE SMOOTH",
"500 200 OFFCURVE",
"450 233 OFFCURVE",
"450 300 CURVE SMOOTH",
"450 810 LINE SMOOTH",
"450 870 OFFCURVE",
"483 900 OFFCURVE",
"550 900 CURVE",
"550 1100 LINE",
"320 1183 LINE",
"320 1250 LINE",
"550 1250 LINE",
"550 1500 LINE",
"100 1500 LINE",
"100 1017 LINE",
"250 980 LINE"
);
}
);
width = 1200;
}
);
note = uni1794;
unicode = 1794;
},
{
glyphname = uni1795;
lastChange = "2021-05-21 11:44:53 +0000";
layers = (
{
layerId = "9A482FC5-A609-4CB4-BB30-47322087609F";
paths = (
{
closed = 1;
nodes = (
"450 870 OFFCURVE",
"467 900 OFFCURVE",
"500 900 CURVE",
"500 1100 LINE",
"320 1183 LINE",
"320 1250 LINE",
"1050 1250 LINE",
"1050 1600 LINE",
"750 1600 LINE",
"750 1500 LINE",
"100 1500 LINE",
"100 1057 LINE",
"250 980 LINE",
"183 947 OFFCURVE",
"150 903 OFFCURVE",
"150 850 CURVE SMOOTH",
"150 100 LINE SMOOTH",
"150 33 OFFCURVE",
"199 0 OFFCURVE",
"297 0 CURVE SMOOTH",
"450 0 LINE",
"600 146 LINE",
"750 0 LINE",
"903 0 LINE SMOOTH",
"1001 0 OFFCURVE",
"1050 33 OFFCURVE",
"1050 100 CURVE SMOOTH",
"1050 1000 LINE SMOOTH",
"1050 1067 OFFCURVE",
"1000 1100 OFFCURVE",
"900 1100 CURVE SMOOTH",
"750 1100 LINE SMOOTH",
"650 1100 OFFCURVE",
"600 1067 OFFCURVE",
"600 1000 CURVE SMOOTH",
"600 950 LINE SMOOTH",
"600 883 OFFCURVE",
"650 850 OFFCURVE",
"750 850 CURVE",
"750 293 LINE",
"600 439 LINE",
"450 293 LINE",
"450 810 LINE SMOOTH"
);
}
);
width = 1200;
}
);
note = uni1795;
unicode = 1795;
},
{
glyphname = uni1796;
lastChange = "2021-05-21 11:44:53 +0000";
layers = (
{
layerId = "9A482FC5-A609-4CB4-BB30-47322087609F";
paths = (
{
closed = 1;
nodes = (
"600 200 LINE SMOOTH",
"600 267 OFFCURVE",
"550 300 OFFCURVE",
"450 300 CURVE",
"450 1207 LINE",
"600 1061 LINE",
"750 1207 LINE",
"750 0 LINE",
"1050 0 LINE",
"1050 1400 LINE SMOOTH",
"1050 1467 OFFCURVE",
"1001 1500 OFFCURVE",
"903 1500 CURVE SMOOTH",
"750 1500 LINE",
"600 1354 LINE",
"450 1500 LINE",
"297 1500 LINE SMOOTH",
"199 1500 OFFCURVE",
"150 1467 OFFCURVE",
"150 1400 CURVE SMOOTH",
"150 100 LINE SMOOTH",
"150 33 OFFCURVE",
"200 0 OFFCURVE",
"300 0 CURVE SMOOTH",
"450 0 LINE SMOOTH",
"550 0 OFFCURVE",
"600 33 OFFCURVE",
"600 100 CURVE SMOOTH"
);
}
);
width = 1200;
}
);
note = uni1796;
unicode = 1796;
},
{
glyphname = uni1797;
lastChange = "2021-05-21 11:44:53 +0000";
layers = (
{
layerId = "9A482FC5-A609-4CB4-BB30-47322087609F";
paths = (
{
closed = 1;
nodes = (
"150 1500 LINE",
"150 1250 LINE",
"1050 1250 LINE",
"1050 1500 LINE"
);
},
{
closed = 1;
nodes = (
"450 867 OFFCURVE",
"500 900 OFFCURVE",
"600 900 CURVE SMOOTH",
"700 900 OFFCURVE",
"750 867 OFFCURVE",
"750 800 CURVE SMOOTH",
"750 0 LINE",
"1050 0 LINE",
"1050 800 LINE SMOOTH",
"1050 1000 OFFCURVE",
"900 1100 OFFCURVE",
"600 1100 CURVE SMOOTH",
"300 1100 OFFCURVE",
"150 1000 OFFCURVE",
"150 800 CURVE SMOOTH",
"150 300 LINE",
"83 300 OFFCURVE",
"50 250 OFFCURVE",
"50 150 CURVE SMOOTH",
"50 50 OFFCURVE",
"83 0 OFFCURVE",
"150 0 CURVE SMOOTH",
"300 0 LINE SMOOTH",
"400 0 OFFCURVE",
"450 33 OFFCURVE",
"450 100 CURVE SMOOTH",
"450 800 LINE SMOOTH"
);
}
);
width = 1200;
}
);
note = uni1797;
unicode = 1797;
},
{
glyphname = uni1798;
lastChange = "2021-05-21 11:44:53 +0000";
layers = (
{
layerId = "9A482FC5-A609-4CB4-BB30-47322087609F";
paths = (
{
closed = 1;
nodes = (
"450 870 OFFCURVE",
"483 900 OFFCURVE",
"550 900 CURVE",
"550 1100 LINE",
"320 1183 LINE",
"320 1250 LINE",
"550 1250 LINE",
"550 1500 LINE",
"100 1500 LINE",
"100 1017 LINE",
"250 980 LINE",
"183 947 OFFCURVE",
"150 903 OFFCURVE",
"150 850 CURVE SMOOTH",
"150 300 LINE SMOOTH",
"150 100 OFFCURVE",
"300 0 OFFCURVE",
"600 0 CURVE SMOOTH",
"900 0 OFFCURVE",
"1050 100 OFFCURVE",
"1050 300 CURVE SMOOTH",
"1050 1500 LINE",
"750 1500 LINE",
"750 800 LINE",
"500 800 LINE",
"500 600 LINE",
"750 600 LINE",
"750 300 LINE SMOOTH",
"750 233 OFFCURVE",
"700 200 OFFCURVE",
"600 200 CURVE SMOOTH",
"500 200 OFFCURVE",
"450 233 OFFCURVE",
"450 300 CURVE SMOOTH",
"450 810 LINE SMOOTH"
);
}
);
width = 1200;
}
);
note = uni1798;
unicode = 1798;
},
{
glyphname = uni1799;
lastChange = "2021-05-21 11:44:53 +0000";
layers = (
{
layerId = "9A482FC5-A609-4CB4-BB30-47322087609F";
paths = (
{
closed = 1;
nodes = (
"150 100 OFFCURVE",
"300 0 OFFCURVE",
"600 0 CURVE SMOOTH",
"727 0 OFFCURVE",
"827 18 OFFCURVE",
"900 54 CURVE",
"973 18 OFFCURVE",
"1073 0 OFFCURVE",
"1200 0 CURVE SMOOTH",
"1500 0 OFFCURVE",
"1650 100 OFFCURVE",
"1650 300 CURVE SMOOTH",
"1650 1500 LINE",
"1350 1500 LINE",
"1350 300 LINE SMOOTH",
"1350 233 OFFCURVE",
"1300 200 OFFCURVE",
"1200 200 CURVE SMOOTH",
"1100 200 OFFCURVE",
"1050 233 OFFCURVE",
"1050 300 CURVE SMOOTH",
"1050 1500 LINE",
"750 1500 LINE",
"750 300 LINE SMOOTH",
"750 233 OFFCURVE",
"700 200 OFFCURVE",
"600 200 CURVE SMOOTH",
"500 200 OFFCURVE",
"450 233 OFFCURVE",
"450 300 CURVE SMOOTH",
"450 1200 LINE SMOOTH",
"450 1267 OFFCURVE",
"483 1300 OFFCURVE",
"550 1300 CURVE",
"550 1500 LINE",
"350 1500 LINE SMOOTH",
"217 1500 OFFCURVE",
"150 1433 OFFCURVE",
"150 1300 CURVE SMOOTH",
"150 300 LINE SMOOTH"
);
}
);
width = 1800;
}
);
note = uni1799;
unicode = 1799;
},
{
glyphname = uni179A;
lastChange = "2021-05-21 11:44:53 +0000";
layers = (
{
layerId = "9A482FC5-A609-4CB4-BB30-47322087609F";
paths = (
{
closed = 1;
nodes = (
"150 233 OFFCURVE",
"117 200 OFFCURVE",
"50 200 CURVE",
"50 0 LINE",
"250 0 LINE SMOOTH",
"383 0 OFFCURVE",
"450 67 OFFCURVE",
"450 200 CURVE SMOOTH",
"450 1500 LINE",
"150 1500 LINE",
"150 300 LINE SMOOTH"
);
}
);
width = 600;
}
);
note = uni179A;
unicode = 179A;
},
{
glyphname = uni179B;
lastChange = "2021-05-21 11:44:53 +0000";
layers = (
{
layerId = "9A482FC5-A609-4CB4-BB30-47322087609F";
paths = (
{
closed = 1;
nodes = (
"1050 1400 OFFCURVE",
"900 1500 OFFCURVE",
"600 1500 CURVE SMOOTH",
"300 1500 OFFCURVE",
"150 1400 OFFCURVE",
"150 1200 CURVE SMOOTH",
"150 300 LINE SMOOTH",
"150 100 OFFCURVE",
"225 0 OFFCURVE",
"375 0 CURVE SMOOTH",
"600 0 LINE",
"600 200 LINE",
"500 200 OFFCURVE",
"450 233 OFFCURVE",
"450 300 CURVE SMOOTH",
"450 1200 LINE SMOOTH",
"450 1267 OFFCURVE",
"500 1300 OFFCURVE",
"600 1300 CURVE SMOOTH",
"700 1300 OFFCURVE",
"750 1267 OFFCURVE",
"750 1200 CURVE SMOOTH",
"750 300 LINE SMOOTH",
"750 100 OFFCURVE",
"900 0 OFFCURVE",
"1200 0 CURVE SMOOTH",
"1500 0 OFFCURVE",
"1650 100 OFFCURVE",
"1650 300 CURVE SMOOTH",
"1650 1500 LINE",
"1350 1500 LINE",
"1350 300 LINE SMOOTH",
"1350 233 OFFCURVE",
"1300 200 OFFCURVE",
"1200 200 CURVE SMOOTH",
"1100 200 OFFCURVE",
"1050 233 OFFCURVE",
"1050 300 CURVE SMOOTH",
"1050 1200 LINE SMOOTH"
);
}
);
width = 1800;
}
);
note = uni179B;
unicode = 179B;
},
{
glyphname = uni179C;
lastChange = "2021-05-21 11:44:53 +0000";
layers = (
{
layerId = "9A482FC5-A609-4CB4-BB30-47322087609F";
paths = (
{
closed = 1;
nodes = (
"150 233 OFFCURVE",
"133 200 OFFCURVE",
"100 200 CURVE",
"100 0 LINE",
"275 0 LINE SMOOTH",
"392 0 OFFCURVE",
"450 67 OFFCURVE",
"450 200 CURVE SMOOTH",
"450 810 LINE SMOOTH",
"450 870 OFFCURVE",
"467 900 OFFCURVE",
"500 900 CURVE",
"500 1100 LINE",
"320 1183 LINE",
"320 1250 LINE",
"500 1250 LINE",
"500 1600 LINE",
"300 1600 LINE",
"300 1500 LINE",
"100 1500 LINE",
"100 1037 LINE",
"250 980 LINE",
"183 947 OFFCURVE",
"150 903 OFFCURVE",
"150 850 CURVE SMOOTH",
"150 300 LINE SMOOTH"
);
}
);
width = 600;
}
);
note = uni179C;
unicode = 179C;
},
{
glyphname = uni179D;
lastChange = "2021-05-21 11:44:53 +0000";
layers = (
{
layerId = "9A482FC5-A609-4CB4-BB30-47322087609F";
paths = (
{
closed = 1;
nodes = (
"150 1500 LINE",
"150 1250 LINE",
"1050 1250 LINE",
"1050 1500 LINE"
);
},
{
closed = 1;
nodes = (
"750 367 LINE",
"750 0 LINE",
"1050 0 LINE",
"1050 367 LINE",
"1150 367 LINE",
"1150 567 LINE",
"1050 567 LINE",
"1050 800 LINE SMOOTH",
"1050 1000 OFFCURVE",
"900 1100 OFFCURVE",
"600 1100 CURVE SMOOTH",
"300 1100 OFFCURVE",
"150 1000 OFFCURVE",
"150 800 CURVE SMOOTH",
"150 0 LINE",
"450 0 LINE",
"450 27 LINE",
"681 454 LINE",
"549 526 LINE",
"450 343 LINE",
"450 800 LINE SMOOTH",
"450 867 OFFCURVE",
"500 900 OFFCURVE",
"600 900 CURVE SMOOTH",
"700 900 OFFCURVE",
"750 867 OFFCURVE",
"750 800 CURVE SMOOTH",
"750 567 LINE",
"700 567 LINE",
"700 367 LINE"
);
}
);
width = 1200;
}
);
note = uni179D;
unicode = 179D;
},
{
glyphname = uni179E;
lastChange = "2021-05-21 11:44:53 +0000";
layers = (
{
layerId = "9A482FC5-A609-4CB4-BB30-47322087609F";
paths = (
{
closed = 1;
nodes = (
"1050 850 LINE",
"1050 1500 LINE",
"750 1500 LINE",
"750 850 LINE",
"700 850 LINE",
"700 650 LINE",
"750 650 LINE",
"750 300 LINE SMOOTH",
"750 233 OFFCURVE",
"700 200 OFFCURVE",
"600 200 CURVE SMOOTH",
"500 200 OFFCURVE",
"450 233 OFFCURVE",
"450 300 CURVE SMOOTH",
"450 810 LINE SMOOTH",
"450 870 OFFCURVE",
"483 900 OFFCURVE",
"550 900 CURVE",
"550 1100 LINE",
"320 1183 LINE",
"320 1250 LINE",
"550 1250 LINE",
"550 1500 LINE",
"100 1500 LINE",
"100 1017 LINE",
"250 980 LINE",
"183 947 OFFCURVE",
"150 903 OFFCURVE",
"150 850 CURVE SMOOTH",
"150 300 LINE SMOOTH",
"150 100 OFFCURVE",
"300 0 OFFCURVE",
"600 0 CURVE SMOOTH",
"900 0 OFFCURVE",
"1050 100 OFFCURVE",
"1050 300 CURVE SMOOTH",
"1050 650 LINE",
"1150 650 LINE",
"1150 850 LINE"
);
}
);
width = 1200;
}
);
note = uni179E;
unicode = 179E;
},
{
glyphname = uni179F;
lastChange = "2021-05-21 11:44:53 +0000";
layers = (
{
layerId = "9A482FC5-A609-4CB4-BB30-47322087609F";
paths = (
{
closed = 1;
nodes = (
"150 1500 LINE",
"150 1250 LINE",
"900 1250 LINE",
"900 1500 LINE"
);
},
{
closed = 1;
nodes = (
"1350 233 OFFCURVE",
"1300 200 OFFCURVE",
"1200 200 CURVE SMOOTH",
"1100 200 OFFCURVE",
"1050 233 OFFCURVE",
"1050 300 CURVE SMOOTH",
"1050 800 LINE SMOOTH",
"1050 1000 OFFCURVE",
"900 1100 OFFCURVE",
"600 1100 CURVE SMOOTH",
"300 1100 OFFCURVE",
"150 1000 OFFCURVE",
"150 800 CURVE SMOOTH",
"150 300 LINE SMOOTH",
"150 100 OFFCURVE",
"225 0 OFFCURVE",
"375 0 CURVE SMOOTH",
"600 0 LINE",
"600 200 LINE",
"500 200 OFFCURVE",
"450 233 OFFCURVE",
"450 300 CURVE SMOOTH",
"450 800 LINE SMOOTH",
"450 867 OFFCURVE",
"500 900 OFFCURVE",
"600 900 CURVE SMOOTH",
"700 900 OFFCURVE",
"750 867 OFFCURVE",
"750 800 CURVE SMOOTH",
"750 300 LINE SMOOTH",
"750 100 OFFCURVE",
"900 0 OFFCURVE",
"1200 0 CURVE SMOOTH",
"1500 0 OFFCURVE",
"1650 100 OFFCURVE",
"1650 300 CURVE SMOOTH",
"1650 1500 LINE",
"1350 1500 LINE",
"1350 300 LINE SMOOTH"
);
}
);
width = 1800;
}
);
note = uni179F;
unicode = 179F;
},
{
glyphname = uni17A0;
lastChange = "2021-05-21 11:44:53 +0000";
layers = (
{
layerId = "9A482FC5-A609-4CB4-BB30-47322087609F";
paths = (
{
closed = 1;
nodes = (
"450 870 OFFCURVE",
"483 900 OFFCURVE",
"550 900 CURVE",
"550 1100 LINE",
"320 1183 LINE",
"320 1250 LINE",
"550 1250 LINE",
"550 1500 LINE",
"100 1500 LINE",
"100 1017 LINE",
"250 980 LINE",
"183 947 OFFCURVE",
"150 903 OFFCURVE",
"150 850 CURVE SMOOTH",
"150 300 LINE SMOOTH",
"150 100 OFFCURVE",
"300 0 OFFCURVE",
"600 0 CURVE SMOOTH",
"900 0 OFFCURVE",
"1050 100 OFFCURVE",
"1050 300 CURVE SMOOTH",
"1050 1200 LINE SMOOTH",
"1050 1267 OFFCURVE",
"1100 1300 OFFCURVE",
"1200 1300 CURVE SMOOTH",
"1300 1300 OFFCURVE",
"1350 1267 OFFCURVE",
"1350 1200 CURVE SMOOTH",
"1350 0 LINE",
"1650 0 LINE",
"1650 1200 LINE SMOOTH",
"1650 1400 OFFCURVE",
"1500 1500 OFFCURVE",
"1200 1500 CURVE SMOOTH",
"900 1500 OFFCURVE",
"750 1400 OFFCURVE",
"750 1200 CURVE SMOOTH",
"750 300 LINE SMOOTH",
"750 233 OFFCURVE",
"700 200 OFFCURVE",
"600 200 CURVE SMOOTH",
"500 200 OFFCURVE",
"450 233 OFFCURVE",
"450 300 CURVE SMOOTH",
"450 810 LINE SMOOTH"
);
}
);
width = 1800;
}
);
note = uni17A0;
unicode = 17A0;
},
{
glyphname = uni17A1;
lastChange = "2021-05-21 11:44:53 +0000";
layers = (
{
layerId = "9A482FC5-A609-4CB4-BB30-47322087609F";
paths = (
{
closed = 1;
nodes = (
"150 825 OFFCURVE",
"250 712 OFFCURVE",
"451 660 CURVE SMOOTH",
"750 585 LINE",
"750 300 LINE SMOOTH",
"750 233 OFFCURVE",
"700 200 OFFCURVE",
"600 200 CURVE SMOOTH",
"500 200 OFFCURVE",
"450 233 OFFCURVE",
"450 300 CURVE SMOOTH",
"450 550 LINE",
"150 620 LINE",
"150 300 LINE SMOOTH",
"150 100 OFFCURVE",
"300 0 OFFCURVE",
"600 0 CURVE SMOOTH",
"900 0 OFFCURVE",
"1050 100 OFFCURVE",
"1050 300 CURVE SMOOTH",
"1050 490 LINE",
"947 539 LINE",
"1016 561 OFFCURVE",
"1050 596 OFFCURVE",
"1050 644 CURVE SMOOTH",
"1050 766 LINE SMOOTH",
"1050 822 OFFCURVE",
"1017 850 OFFCURVE",
"950 850 CURVE SMOOTH",
"910 850 LINE SMOOTH",
"869 850 OFFCURVE",
"830 821 OFFCURVE",
"803 790 CURVE",
"666 822 LINE SMOOTH",
"522 855 OFFCURVE",
"450 915 OFFCURVE",
"450 1000 CURVE SMOOTH",
"450 1200 LINE SMOOTH",
"450 1267 OFFCURVE",
"500 1300 OFFCURVE",
"600 1300 CURVE SMOOTH",
"700 1300 OFFCURVE",
"750 1267 OFFCURVE",
"750 1200 CURVE SMOOTH",
"750 1150 LINE",
"700 1150 LINE",
"700 950 LINE",
"900 950 LINE SMOOTH",
"1000 950 OFFCURVE",
"1050 983 OFFCURVE",
"1050 1050 CURVE SMOOTH",
"1050 1200 LINE SMOOTH",
"1050 1400 OFFCURVE",
"900 1500 OFFCURVE",
"600 1500 CURVE SMOOTH",
"300 1500 OFFCURVE",
"150 1400 OFFCURVE",
"150 1200 CURVE SMOOTH",
"150 1000 LINE SMOOTH"
);
},
{
closed = 1;
nodes = (
"750 -667 OFFCURVE",
"799 -700 OFFCURVE",
"897 -700 CURVE SMOOTH",
"1050 -700 LINE",
"1200 -554 LINE",
"1350 -700 LINE",
"1503 -700 LINE SMOOTH",
"1601 -700 OFFCURVE",
"1650 -667 OFFCURVE",
"1650 -600 CURVE SMOOTH",
"1650 1500 LINE",
"1350 1500 LINE",
"1350 -407 LINE",
"1200 -261 LINE",
"1050 -407 LINE",
"1050 -250 LINE SMOOTH",
"1050 -150 OFFCURVE",
"983 -100 OFFCURVE",
"850 -100 CURVE SMOOTH",
"700 -100 LINE",
"700 -300 LINE",
"733 -300 OFFCURVE",
"750 -333 OFFCURVE",
"750 -400 CURVE SMOOTH",
"750 -600 LINE SMOOTH"
);
}
);
width = 1800;
}
);
note = uni17A1;
unicode = 17A1;
},
{
glyphname = uni17A2;
lastChange = "2021-05-21 11:44:53 +0000";
layers = (
{
layerId = "9A482FC5-A609-4CB4-BB30-47322087609F";
paths = (
{
closed = 1;
nodes = (
"150 233 OFFCURVE",
"117 200 OFFCURVE",
"50 200 CURVE",
"50 0 LINE",
"250 0 LINE SMOOTH",
"383 0 OFFCURVE",
"450 67 OFFCURVE",
"450 200 CURVE SMOOTH",
"450 1500 LINE",
"150 1500 LINE",
"150 300 LINE SMOOTH"
);
},
{
closed = 1;
nodes = (
"750 650 LINE",
"750 300 LINE SMOOTH",
"750 233 OFFCURVE",
"717 200 OFFCURVE",
"650 200 CURVE",
"650 0 LINE",
"850 0 LINE SMOOTH",
"983 0 OFFCURVE",
"1050 67 OFFCURVE",
"1050 200 CURVE SMOOTH",
"1050 1500 LINE",
"750 1500 LINE",
"750 850 LINE",
"500 850 LINE",
"500 650 LINE"
);
}
);
width = 1200;
}
);
note = uni17A2;
unicode = 17A2;
},
{
glyphname = uni17A5;
lastChange = "2021-05-21 11:44:53 +0000";
layers = (
{
layerId = "9A482FC5-A609-4CB4-BB30-47322087609F";
paths = (
{
closed = 1;
nodes = (
"750 1600 LINE",
"750 1500 LINE",
"150 1500 LINE",
"150 1250 LINE",
"1050 1250 LINE",
"1050 1600 LINE"
);
},
{
closed = 1;
nodes = (
"150 33 OFFCURVE",
"200 0 OFFCURVE",
"300 0 CURVE SMOOTH",
"450 0 LINE SMOOTH",
"550 0 OFFCURVE",
"600 33 OFFCURVE",
"600 100 CURVE SMOOTH",
"600 200 LINE SMOOTH",
"600 267 OFFCURVE",
"550 300 OFFCURVE",
"450 300 CURVE",
"450 800 LINE SMOOTH",
"450 867 OFFCURVE",
"500 900 OFFCURVE",
"600 900 CURVE SMOOTH",
"700 900 OFFCURVE",
"750 867 OFFCURVE",
"750 800 CURVE SMOOTH",
"750 0 LINE",
"1050 0 LINE",
"1050 800 LINE SMOOTH",
"1050 1000 OFFCURVE",
"900 1100 OFFCURVE",
"600 1100 CURVE SMOOTH",
"300 1100 OFFCURVE",
"150 1000 OFFCURVE",
"150 800 CURVE SMOOTH",
"150 100 LINE SMOOTH"
);
}
);
width = 1200;
}
);
note = uni17A5;
unicode = 17A5;
},
{
glyphname = uni17A6;
lastChange = "2021-05-21 11:44:53 +0000";
layers = (
{
layerId = "9A482FC5-A609-4CB4-BB30-47322087609F";
paths = (
{
closed = 1;
nodes = (
"1050 1717 OFFCURVE",
"1100 1750 OFFCURVE",
"1200 1750 CURVE SMOOTH",
"1300 1750 OFFCURVE",
"1350 1717 OFFCURVE",
"1350 1650 CURVE SMOOTH",
"1350 -450 LINE SMOOTH",
"1350 -517 OFFCURVE",
"1300 -550 OFFCURVE",
"1200 -550 CURVE SMOOTH",
"1100 -550 OFFCURVE",
"1050 -517 OFFCURVE",
"1050 -450 CURVE SMOOTH",
"1050 -357 LINE SMOOTH",
"1050 -186 OFFCURVE",
"900 -100 OFFCURVE",
"600 -100 CURVE SMOOTH",
"300 -100 OFFCURVE",
"150 -186 OFFCURVE",
"150 -357 CURVE SMOOTH",
"150 -614 LINE SMOOTH",
"150 -671 OFFCURVE",
"200 -700 OFFCURVE",
"300 -700 CURVE SMOOTH",
"450 -700 LINE SMOOTH",
"550 -700 OFFCURVE",
"600 -658 OFFCURVE",
"600 -575 CURVE SMOOTH",
"600 -492 OFFCURVE",
"550 -450 OFFCURVE",
"450 -450 CURVE",
"450 -357 LINE SMOOTH",
"450 -286 OFFCURVE",
"500 -250 OFFCURVE",
"600 -250 CURVE SMOOTH",
"700 -250 OFFCURVE",
"750 -286 OFFCURVE",
"750 -357 CURVE SMOOTH",
"750 -450 LINE SMOOTH",
"750 -617 OFFCURVE",
"900 -700 OFFCURVE",
"1200 -700 CURVE SMOOTH",
"1500 -700 OFFCURVE",
"1650 -617 OFFCURVE",
"1650 -450 CURVE SMOOTH",
"1650 1650 LINE SMOOTH",
"1650 1850 OFFCURVE",
"1500 1950 OFFCURVE",
"1200 1950 CURVE SMOOTH",
"1145 1950 OFFCURVE",
"1095 1947 OFFCURVE",
"1050 1940 CURVE",
"1050 2300 LINE",
"750 2300 LINE",
"750 1650 LINE",
"1050 1650 LINE"
);
},
{
closed = 1;
nodes = (
"450 1267 OFFCURVE",
"500 1300 OFFCURVE",
"600 1300 CURVE SMOOTH",
"700 1300 OFFCURVE",
"750 1267 OFFCURVE",
"750 1200 CURVE SMOOTH",
"750 0 LINE",
"1050 0 LINE",
"1050 1200 LINE SMOOTH",
"1050 1400 OFFCURVE",
"900 1500 OFFCURVE",
"600 1500 CURVE SMOOTH",
"300 1500 OFFCURVE",
"150 1400 OFFCURVE",
"150 1200 CURVE SMOOTH",
"150 100 LINE SMOOTH",
"150 33 OFFCURVE",
"200 0 OFFCURVE",
"300 0 CURVE SMOOTH",
"450 0 LINE SMOOTH",
"550 0 OFFCURVE",
"600 33 OFFCURVE",
"600 100 CURVE SMOOTH",
"600 200 LINE SMOOTH",
"600 267 OFFCURVE",
"550 300 OFFCURVE",
"450 300 CURVE",
"450 1200 LINE SMOOTH"
);
}
);
width = 1800;
}
);
note = uni17A6;
unicode = 17A6;
},
{
glyphname = uni17A7;
lastChange = "2021-05-21 11:44:53 +0000";
layers = (
{
layerId = "9A482FC5-A609-4CB4-BB30-47322087609F";
paths = (
{
closed = 1;
nodes = (
"150 100 OFFCURVE",
"233 0 OFFCURVE",
"400 0 CURVE SMOOTH",
"550 0 LINE SMOOTH",
"627 0 OFFCURVE",
"693 15 OFFCURVE",
"750 44 CURVE",
"750 -50 LINE",
"1050 -50 LINE",
"1050 600 LINE",
"750 600 LINE",
"750 300 LINE",
"683 233 OFFCURVE",
"617 200 OFFCURVE",
"550 200 CURVE SMOOTH",
"483 200 OFFCURVE",
"450 233 OFFCURVE",
"450 300 CURVE SMOOTH",
"450 559 LINE",
"525 585 LINE SMOOTH",
"875 704 OFFCURVE",
"1050 859 OFFCURVE",
"1050 1050 CURVE SMOOTH",
"1050 1200 LINE SMOOTH",
"1050 1400 OFFCURVE",
"900 1500 OFFCURVE",
"600 1500 CURVE SMOOTH",
"300 1500 OFFCURVE",
"150 1400 OFFCURVE",
"150 1200 CURVE SMOOTH",
"150 1000 LINE SMOOTH",
"150 933 OFFCURVE",
"200 900 OFFCURVE",
"300 900 CURVE SMOOTH",
"500 900 LINE",
"500 1100 LINE",
"450 1100 LINE",
"450 1200 LINE SMOOTH",
"450 1267 OFFCURVE",
"500 1300 OFFCURVE",
"600 1300 CURVE SMOOTH",
"700 1300 OFFCURVE",
"750 1267 OFFCURVE",
"750 1200 CURVE SMOOTH",
"750 1050 LINE SMOOTH",
"750 932 OFFCURVE",
"650 839 OFFCURVE",
"450 771 CURVE SMOOTH",
"150 669 LINE",
"150 300 LINE SMOOTH"
);
}
);
width = 1200;
}
);
note = uni17A7;
unicode = 17A7;
},
{
glyphname = uni17A8;
lastChange = "2021-05-21 11:44:53 +0000";
layers = (
{
layerId = "9A482FC5-A609-4CB4-BB30-47322087609F";
paths = (
{
closed = 1;
nodes = (
"150 1900 LINE",
"150 1650 LINE",
"1050 1650 LINE",
"1050 1900 LINE"
);
},
{
closed = 1;
nodes = (
"150 100 OFFCURVE",
"233 0 OFFCURVE",
"400 0 CURVE SMOOTH",
"550 0 LINE SMOOTH",
"627 0 OFFCURVE",
"693 15 OFFCURVE",
"750 44 CURVE",
"750 -50 LINE",
"1050 -50 LINE",
"1050 600 LINE",
"750 600 LINE",
"750 300 LINE",
"683 233 OFFCURVE",
"617 200 OFFCURVE",
"550 200 CURVE SMOOTH",
"483 200 OFFCURVE",
"450 233 OFFCURVE",
"450 300 CURVE SMOOTH",
"450 559 LINE",
"525 585 LINE SMOOTH",
"875 704 OFFCURVE",
"1050 859 OFFCURVE",
"1050 1050 CURVE SMOOTH",
"1050 1200 LINE SMOOTH",
"1050 1400 OFFCURVE",
"900 1500 OFFCURVE",
"600 1500 CURVE SMOOTH",
"300 1500 OFFCURVE",
"150 1400 OFFCURVE",
"150 1200 CURVE SMOOTH",
"150 1000 LINE SMOOTH",
"150 933 OFFCURVE",
"200 900 OFFCURVE",
"300 900 CURVE SMOOTH",
"500 900 LINE",
"500 1100 LINE",
"450 1100 LINE",
"450 1200 LINE SMOOTH",
"450 1267 OFFCURVE",
"500 1300 OFFCURVE",
"600 1300 CURVE SMOOTH",
"700 1300 OFFCURVE",
"750 1267 OFFCURVE",
"750 1200 CURVE SMOOTH",
"750 1050 LINE SMOOTH",
"750 932 OFFCURVE",
"650 839 OFFCURVE",
"450 771 CURVE SMOOTH",
"150 669 LINE",
"150 300 LINE SMOOTH"
);
}
);
width = 1200;
}
);
note = uni17A8;
unicode = 17A8;
},
{
glyphname = uni17A9;
lastChange = "2021-05-21 11:44:53 +0000";
layers = (
{
layerId = "9A482FC5-A609-4CB4-BB30-47322087609F";
paths = (
{
closed = 1;
nodes = (
"750 300 LINE",
"683 233 OFFCURVE",
"617 200 OFFCURVE",
"550 200 CURVE SMOOTH",
"483 200 OFFCURVE",
"450 233 OFFCURVE",
"450 300 CURVE SMOOTH",
"450 559 LINE",
"525 585 LINE SMOOTH",
"875 704 OFFCURVE",
"1050 859 OFFCURVE",
"1050 1050 CURVE SMOOTH",
"1050 1200 LINE SMOOTH",
"1050 1400 OFFCURVE",
"900 1500 OFFCURVE",
"600 1500 CURVE SMOOTH",
"300 1500 OFFCURVE",
"150 1400 OFFCURVE",
"150 1200 CURVE SMOOTH",
"150 1000 LINE SMOOTH",
"150 933 OFFCURVE",
"200 900 OFFCURVE",
"300 900 CURVE SMOOTH",
"500 900 LINE",
"500 1100 LINE",
"450 1100 LINE",
"450 1200 LINE SMOOTH",
"450 1267 OFFCURVE",
"500 1300 OFFCURVE",
"600 1300 CURVE SMOOTH",
"700 1300 OFFCURVE",
"750 1267 OFFCURVE",
"750 1200 CURVE SMOOTH",
"750 1050 LINE SMOOTH",
"750 932 OFFCURVE",
"650 839 OFFCURVE",
"450 771 CURVE SMOOTH",
"150 669 LINE",
"150 300 LINE SMOOTH",
"150 100 OFFCURVE",
"233 0 OFFCURVE",
"400 0 CURVE SMOOTH",
"550 0 LINE SMOOTH",
"627 0 OFFCURVE",
"693 15 OFFCURVE",
"750 44 CURVE",
"750 -50 LINE",
"950 -50 LINE",
"950 600 LINE",
"750 600 LINE"
);
},
{
closed = 1;
nodes = (
"1200 600 LINE",
"1050 600 LINE",
"1050 -50 LINE",
"1200 -50 LINE"
);
}
);
width = 1200;
}
);
note = uni17A9;
unicode = 17A9;
},
{
glyphname = uni17AA;
lastChange = "2021-05-21 11:44:53 +0000";
layers = (
{
layerId = "9A482FC5-A609-4CB4-BB30-47322087609F";
paths = (
{
closed = 1;
nodes = (
"750 2000 LINE",
"750 1900 LINE",
"150 1900 LINE",
"150 1650 LINE",
"1050 1650 LINE",
"1050 2000 LINE"
);
},
{
closed = 1;
nodes = (
"150 100 OFFCURVE",
"233 0 OFFCURVE",
"400 0 CURVE SMOOTH",
"550 0 LINE SMOOTH",
"627 0 OFFCURVE",
"693 15 OFFCURVE",
"750 44 CURVE",
"750 -50 LINE",
"1050 -50 LINE",
"1050 600 LINE",
"750 600 LINE",
"750 300 LINE",
"683 233 OFFCURVE",
"617 200 OFFCURVE",
"550 200 CURVE SMOOTH",
"483 200 OFFCURVE",
"450 233 OFFCURVE",
"450 300 CURVE SMOOTH",
"450 559 LINE",
"525 585 LINE SMOOTH",
"875 704 OFFCURVE",
"1050 859 OFFCURVE",
"1050 1050 CURVE SMOOTH",
"1050 1200 LINE SMOOTH",
"1050 1400 OFFCURVE",
"900 1500 OFFCURVE",
"600 1500 CURVE SMOOTH",
"300 1500 OFFCURVE",
"150 1400 OFFCURVE",
"150 1200 CURVE SMOOTH",
"150 1000 LINE SMOOTH",
"150 933 OFFCURVE",
"200 900 OFFCURVE",
"300 900 CURVE SMOOTH",
"500 900 LINE",
"500 1100 LINE",
"450 1100 LINE",
"450 1200 LINE SMOOTH",
"450 1267 OFFCURVE",
"500 1300 OFFCURVE",
"600 1300 CURVE SMOOTH",
"700 1300 OFFCURVE",
"750 1267 OFFCURVE",
"750 1200 CURVE SMOOTH",
"750 1050 LINE SMOOTH",
"750 932 OFFCURVE",
"650 839 OFFCURVE",
"450 771 CURVE SMOOTH",
"150 669 LINE",
"150 300 LINE SMOOTH"
);
}
);
width = 1200;
}
);
note = uni17AA;
unicode = 17AA;
},
{
glyphname = uni17AB;
lastChange = "2021-05-21 11:44:53 +0000";
layers = (
{
layerId = "9A482FC5-A609-4CB4-BB30-47322087609F";
paths = (
{
closed = 1;
nodes = (
"183 947 OFFCURVE",
"150 903 OFFCURVE",
"150 850 CURVE SMOOTH",
"150 300 LINE SMOOTH",
"150 100 OFFCURVE",
"300 0 OFFCURVE",
"600 0 CURVE SMOOTH",
"900 0 OFFCURVE",
"1050 100 OFFCURVE",
"1050 300 CURVE SMOOTH",
"1050 1500 LINE",
"750 1500 LINE",
"750 300 LINE SMOOTH",
"750 233 OFFCURVE",
"700 200 OFFCURVE",
"600 200 CURVE SMOOTH",
"500 200 OFFCURVE",
"450 233 OFFCURVE",
"450 300 CURVE SMOOTH",
"450 810 LINE SMOOTH",
"450 870 OFFCURVE",
"483 900 OFFCURVE",
"550 900 CURVE",
"550 1100 LINE",
"320 1183 LINE",
"320 1250 LINE",
"550 1250 LINE",
"550 1500 LINE",
"100 1500 LINE",
"100 1017 LINE",
"250 980 LINE"
);
},
{
closed = 1;
nodes = (
"850 -700 OFFCURVE",
"1050 -583 OFFCURVE",
"1050 -350 CURVE SMOOTH",
"1050 -100 LINE",
"600 -100 LINE",
"600 -350 LINE",
"750 -350 LINE",
"750 -450 OFFCURVE",
"650 -500 OFFCURVE",
"450 -500 CURVE SMOOTH",
"150 -500 LINE",
"150 -700 LINE",
"450 -700 LINE SMOOTH"
);
}
);
width = 1200;
}
);
note = uni17AB;
unicode = 17AB;
},
{
glyphname = uni17AC;
lastChange = "2021-05-21 11:44:53 +0000";
layers = (
{
layerId = "9A482FC5-A609-4CB4-BB30-47322087609F";
paths = (
{
closed = 1;
nodes = (
"183 947 OFFCURVE",
"150 903 OFFCURVE",
"150 850 CURVE SMOOTH",
"150 300 LINE SMOOTH",
"150 100 OFFCURVE",
"300 0 OFFCURVE",
"600 0 CURVE SMOOTH",
"900 0 OFFCURVE",
"1050 100 OFFCURVE",
"1050 300 CURVE SMOOTH",
"1050 1500 LINE",
"750 1500 LINE",
"750 300 LINE SMOOTH",
"750 233 OFFCURVE",
"700 200 OFFCURVE",
"600 200 CURVE SMOOTH",
"500 200 OFFCURVE",
"450 233 OFFCURVE",
"450 300 CURVE SMOOTH",
"450 810 LINE SMOOTH",
"450 870 OFFCURVE",
"483 900 OFFCURVE",
"550 900 CURVE",
"550 1100 LINE",
"320 1183 LINE",
"320 1250 LINE",
"550 1250 LINE",
"550 1500 LINE",
"100 1500 LINE",
"100 1017 LINE",
"250 980 LINE"
);
},
{
closed = 1;
nodes = (
"1042 -438 OFFCURVE",
"1050 -396 OFFCURVE",
"1050 -350 CURVE SMOOTH",
"1050 -100 LINE",
"600 -100 LINE",
"600 -350 LINE",
"750 -350 LINE",
"750 -450 OFFCURVE",
"650 -500 OFFCURVE",
"450 -500 CURVE SMOOTH",
"150 -500 LINE",
"150 -700 LINE",
"450 -700 LINE SMOOTH",
"637 -700 OFFCURVE",
"781 -674 OFFCURVE",
"880 -623 CURVE",
"935 -674 OFFCURVE",
"1009 -700 OFFCURVE",
"1100 -700 CURVE SMOOTH",
"1200 -700 LINE",
"1200 -500 LINE",
"1100 -500 LINE SMOOTH",
"1071 -500 OFFCURVE",
"1047 -492 OFFCURVE",
"1026 -475 CURVE"
);
}
);
width = 1200;
}
);
note = uni17AC;
unicode = 17AC;
},
{
glyphname = uni17AD;
lastChange = "2021-05-21 11:44:53 +0000";
layers = (
{
layerId = "9A482FC5-A609-4CB4-BB30-47322087609F";
paths = (
{
closed = 1;
nodes = (
"600 200 LINE SMOOTH",
"600 267 OFFCURVE",
"550 300 OFFCURVE",
"450 300 CURVE",
"450 1207 LINE",
"600 1061 LINE",
"750 1207 LINE",
"750 0 LINE",
"1050 0 LINE",
"1050 1400 LINE SMOOTH",
"1050 1467 OFFCURVE",
"1001 1500 OFFCURVE",
"903 1500 CURVE SMOOTH",
"750 1500 LINE",
"600 1354 LINE",
"450 1500 LINE",
"297 1500 LINE SMOOTH",
"199 1500 OFFCURVE",
"150 1467 OFFCURVE",
"150 1400 CURVE SMOOTH",
"150 100 LINE SMOOTH",
"150 33 OFFCURVE",
"200 0 OFFCURVE",
"300 0 CURVE SMOOTH",
"450 0 LINE SMOOTH",
"550 0 OFFCURVE",
"600 33 OFFCURVE",
"600 100 CURVE SMOOTH"
);
},
{
closed = 1;
nodes = (
"850 -700 OFFCURVE",
"1050 -583 OFFCURVE",
"1050 -350 CURVE SMOOTH",
"1050 -100 LINE",
"600 -100 LINE",
"600 -350 LINE",
"750 -350 LINE",
"750 -450 OFFCURVE",
"650 -500 OFFCURVE",
"450 -500 CURVE SMOOTH",
"150 -500 LINE",
"150 -700 LINE",
"450 -700 LINE SMOOTH"
);
}
);
width = 1200;
}
);
note = uni17AD;
unicode = 17AD;
},
{
glyphname = uni17AE;
lastChange = "2021-05-21 11:44:54 +0000";
layers = (
{
layerId = "9A482FC5-A609-4CB4-BB30-47322087609F";
paths = (
{
closed = 1;
nodes = (
"600 200 LINE SMOOTH",
"600 267 OFFCURVE",
"550 300 OFFCURVE",
"450 300 CURVE",
"450 1207 LINE",
"600 1061 LINE",
"750 1207 LINE",
"750 0 LINE",
"1050 0 LINE",
"1050 1400 LINE SMOOTH",
"1050 1467 OFFCURVE",
"1001 1500 OFFCURVE",
"903 1500 CURVE SMOOTH",
"750 1500 LINE",
"600 1354 LINE",
"450 1500 LINE",
"297 1500 LINE SMOOTH",
"199 1500 OFFCURVE",
"150 1467 OFFCURVE",
"150 1400 CURVE SMOOTH",
"150 100 LINE SMOOTH",
"150 33 OFFCURVE",
"200 0 OFFCURVE",
"300 0 CURVE SMOOTH",
"450 0 LINE SMOOTH",
"550 0 OFFCURVE",
"600 33 OFFCURVE",
"600 100 CURVE SMOOTH"
);
},
{
closed = 1;
nodes = (
"1042 -438 OFFCURVE",
"1050 -396 OFFCURVE",
"1050 -350 CURVE SMOOTH",
"1050 -100 LINE",
"600 -100 LINE",
"600 -350 LINE",
"750 -350 LINE",
"750 -450 OFFCURVE",
"650 -500 OFFCURVE",
"450 -500 CURVE SMOOTH",
"150 -500 LINE",
"150 -700 LINE",
"450 -700 LINE SMOOTH",
"637 -700 OFFCURVE",
"781 -674 OFFCURVE",
"880 -623 CURVE",
"935 -674 OFFCURVE",
"1009 -700 OFFCURVE",
"1100 -700 CURVE SMOOTH",
"1200 -700 LINE",
"1200 -500 LINE",
"1100 -500 LINE SMOOTH",
"1071 -500 OFFCURVE",
"1047 -492 OFFCURVE",
"1026 -475 CURVE"
);
}
);
width = 1200;
}
);
note = uni17AE;
unicode = 17AE;
},
{
glyphname = uni17AF;
lastChange = "2021-05-21 11:44:54 +0000";
layers = (
{
layerId = "9A482FC5-A609-4CB4-BB30-47322087609F";
paths = (
{
closed = 1;
nodes = (
"1050 1400 OFFCURVE",
"900 1500 OFFCURVE",
"600 1500 CURVE SMOOTH",
"545 1500 OFFCURVE",
"495 1497 OFFCURVE",
"450 1490 CURVE",
"450 1850 LINE",
"150 1850 LINE",
"150 1200 LINE",
"450 1200 LINE",
"450 1267 OFFCURVE",
"500 1300 OFFCURVE",
"600 1300 CURVE SMOOTH",
"700 1300 OFFCURVE",
"750 1267 OFFCURVE",
"750 1200 CURVE SMOOTH",
"750 293 LINE",
"600 439 LINE",
"450 293 LINE",
"450 850 LINE SMOOTH",
"450 950 OFFCURVE",
"383 1000 OFFCURVE",
"250 1000 CURVE SMOOTH",
"100 1000 LINE",
"100 800 LINE",
"133 800 OFFCURVE",
"150 767 OFFCURVE",
"150 700 CURVE SMOOTH",
"150 100 LINE SMOOTH",
"150 33 OFFCURVE",
"199 0 OFFCURVE",
"297 0 CURVE SMOOTH",
"450 0 LINE",
"600 146 LINE",
"750 0 LINE",
"903 0 LINE SMOOTH",
"1001 0 OFFCURVE",
"1050 33 OFFCURVE",
"1050 100 CURVE SMOOTH",
"1050 1200 LINE SMOOTH"
);
}
);
width = 1200;
}
);
note = uni17AF;
unicode = 17AF;
},
{
glyphname = uni17B0;
lastChange = "2021-05-21 11:44:54 +0000";
layers = (
{
layerId = "9A482FC5-A609-4CB4-BB30-47322087609F";
paths = (
{
closed = 1;
nodes = (
"600 200 LINE SMOOTH",
"600 267 OFFCURVE",
"550 300 OFFCURVE",
"450 300 CURVE",
"450 1207 LINE",
"600 1061 LINE",
"750 1207 LINE",
"750 0 LINE",
"1050 0 LINE",
"1050 1400 LINE SMOOTH",
"1050 1467 OFFCURVE",
"1001 1500 OFFCURVE",
"903 1500 CURVE SMOOTH",
"750 1500 LINE",
"600 1354 LINE",
"450 1500 LINE",
"297 1500 LINE SMOOTH",
"199 1500 OFFCURVE",
"150 1467 OFFCURVE",
"150 1400 CURVE SMOOTH",
"150 100 LINE SMOOTH",
"150 33 OFFCURVE",
"200 0 OFFCURVE",
"300 0 CURVE SMOOTH",
"450 0 LINE SMOOTH",
"550 0 OFFCURVE",
"600 33 OFFCURVE",
"600 100 CURVE SMOOTH"
);
},
{
closed = 1;
nodes = (
"592 -217 OFFCURVE",
"392 -300 OFFCURVE",
"150 -300 CURVE",
"150 -500 LINE SMOOTH",
"150 -633 OFFCURVE",
"214 -700 OFFCURVE",
"342 -700 CURVE SMOOTH",
"471 -700 OFFCURVE",
"562 -660 OFFCURVE",
"615 -580 CURVE",
"678 -660 OFFCURVE",
"755 -700 OFFCURVE",
"845 -700 CURVE SMOOTH",
"982 -700 OFFCURVE",
"1050 -600 OFFCURVE",
"1050 -400 CURVE SMOOTH",
"1050 -50 LINE",
"750 -50 LINE"
);
},
{
closed = 1;
nodes = (
"652 -274 OFFCURVE",
"701 -241 OFFCURVE",
"750 -203 CURVE",
"750 -370 LINE SMOOTH",
"750 -423 OFFCURVE",
"737 -450 OFFCURVE",
"710 -450 CURVE SMOOTH",
"688 -450 OFFCURVE",
"652 -401 OFFCURVE",
"602 -303 CURVE"
);
},
{
closed = 1;
nodes = (
"541 -417 OFFCURVE",
"501 -470 OFFCURVE",
"467 -470 CURVE SMOOTH",
"422 -470 OFFCURVE",
"400 -448 OFFCURVE",
"400 -404 CURVE",
"448 -385 OFFCURVE",
"510 -354 OFFCURVE",
"587 -312 CURVE"
);
}
);
width = 1200;
}
);
note = uni17B0;
unicode = 17B0;
},
{
glyphname = uni17B1;
lastChange = "2021-05-21 11:44:54 +0000";
layers = (
{
layerId = "9A482FC5-A609-4CB4-BB30-47322087609F";
paths = (
{
closed = 1;
nodes = (
"750 1650 LINE",
"750 1550 LINE",
"1050 1550 LINE",
"1050 1900 LINE",
"150 1900 LINE",
"150 1650 LINE"
);
},
{
closed = 1;
nodes = (
"150 100 OFFCURVE",
"233 0 OFFCURVE",
"400 0 CURVE SMOOTH",
"550 0 LINE SMOOTH",
"627 0 OFFCURVE",
"693 15 OFFCURVE",
"750 44 CURVE",
"750 -50 LINE",
"1050 -50 LINE",
"1050 600 LINE",
"750 600 LINE",
"750 300 LINE",
"683 233 OFFCURVE",
"617 200 OFFCURVE",
"550 200 CURVE SMOOTH",
"483 200 OFFCURVE",
"450 233 OFFCURVE",
"450 300 CURVE SMOOTH",
"450 559 LINE",
"525 585 LINE SMOOTH",
"875 704 OFFCURVE",
"1050 859 OFFCURVE",
"1050 1050 CURVE SMOOTH",
"1050 1200 LINE SMOOTH",
"1050 1400 OFFCURVE",
"900 1500 OFFCURVE",
"600 1500 CURVE SMOOTH",
"300 1500 OFFCURVE",
"150 1400 OFFCURVE",
"150 1200 CURVE SMOOTH",
"150 1000 LINE SMOOTH",
"150 933 OFFCURVE",
"200 900 OFFCURVE",
"300 900 CURVE SMOOTH",
"500 900 LINE",
"500 1100 LINE",
"450 1100 LINE",
"450 1200 LINE SMOOTH",
"450 1267 OFFCURVE",
"500 1300 OFFCURVE",
"600 1300 CURVE SMOOTH",
"700 1300 OFFCURVE",
"750 1267 OFFCURVE",
"750 1200 CURVE SMOOTH",
"750 1050 LINE SMOOTH",
"750 932 OFFCURVE",
"650 839 OFFCURVE",
"450 771 CURVE SMOOTH",
"150 669 LINE",
"150 300 LINE SMOOTH"
);
}
);
width = 1200;
}
);
note = uni17B1;
unicode = 17B1;
},
{
glyphname = uni17B2;
lastChange = "2021-05-21 11:44:54 +0000";
layers = (
{
layerId = "9A482FC5-A609-4CB4-BB30-47322087609F";
paths = (
{
closed = 1;
nodes = (
"150 100 OFFCURVE",
"300 0 OFFCURVE",
"600 0 CURVE SMOOTH",
"900 0 OFFCURVE",
"1050 100 OFFCURVE",
"1050 300 CURVE SMOOTH",
"1050 500 LINE SMOOTH",
"1050 553 OFFCURVE",
"1017 597 OFFCURVE",
"950 630 CURVE",
"1100 667 LINE",
"1100 1150 LINE",
"650 1150 LINE",
"650 900 LINE",
"880 900 LINE",
"880 833 LINE",
"650 750 LINE",
"650 550 LINE",
"717 550 OFFCURVE",
"750 520 OFFCURVE",
"750 460 CURVE SMOOTH",
"750 300 LINE SMOOTH",
"750 233 OFFCURVE",
"700 200 OFFCURVE",
"600 200 CURVE SMOOTH",
"500 200 OFFCURVE",
"450 233 OFFCURVE",
"450 300 CURVE SMOOTH",
"450 1200 LINE SMOOTH",
"450 1267 OFFCURVE",
"500 1300 OFFCURVE",
"600 1300 CURVE SMOOTH",
"900 1300 LINE",
"900 1500 LINE",
"600 1500 LINE SMOOTH",
"300 1500 OFFCURVE",
"150 1400 OFFCURVE",
"150 1200 CURVE SMOOTH",
"150 300 LINE SMOOTH"
);
}
);
width = 1200;
}
);
note = uni17B2;
unicode = 17B2;
},
{
glyphname = uni17B3;
lastChange = "2021-05-21 11:44:54 +0000";
layers = (
{
layerId = "9A482FC5-A609-4CB4-BB30-47322087609F";
paths = (
{
closed = 1;
nodes = (
"750 2000 LINE",
"750 1900 LINE",
"150 1900 LINE",
"150 1550 LINE",
"450 1550 LINE",
"450 1650 LINE",
"1050 1650 LINE",
"1050 2000 LINE"
);
},
{
closed = 1;
nodes = (
"150 100 OFFCURVE",
"233 0 OFFCURVE",
"400 0 CURVE SMOOTH",
"550 0 LINE SMOOTH",
"627 0 OFFCURVE",
"693 15 OFFCURVE",
"750 44 CURVE",
"750 -50 LINE",
"1050 -50 LINE",
"1050 600 LINE",
"750 600 LINE",
"750 300 LINE",
"683 233 OFFCURVE",
"617 200 OFFCURVE",
"550 200 CURVE SMOOTH",
"483 200 OFFCURVE",
"450 233 OFFCURVE",
"450 300 CURVE SMOOTH",
"450 559 LINE",
"525 585 LINE SMOOTH",
"875 704 OFFCURVE",
"1050 859 OFFCURVE",
"1050 1050 CURVE SMOOTH",
"1050 1200 LINE SMOOTH",
"1050 1400 OFFCURVE",
"900 1500 OFFCURVE",
"600 1500 CURVE SMOOTH",
"300 1500 OFFCURVE",
"150 1400 OFFCURVE",
"150 1200 CURVE SMOOTH",
"150 1000 LINE SMOOTH",
"150 933 OFFCURVE",
"200 900 OFFCURVE",
"300 900 CURVE SMOOTH",
"500 900 LINE",
"500 1100 LINE",
"450 1100 LINE",
"450 1200 LINE SMOOTH",
"450 1267 OFFCURVE",
"500 1300 OFFCURVE",
"600 1300 CURVE SMOOTH",
"700 1300 OFFCURVE",
"750 1267 OFFCURVE",
"750 1200 CURVE SMOOTH",
"750 1050 LINE SMOOTH",
"750 932 OFFCURVE",
"650 839 OFFCURVE",
"450 771 CURVE SMOOTH",
"150 669 LINE",
"150 300 LINE SMOOTH"
);
}
);
width = 1200;
}
);
note = uni17B3;
unicode = 17B3;
},
{
glyphname = uni17A3;
lastChange = "2021-05-21 11:44:54 +0000";
layers = (
{
layerId = "9A482FC5-A609-4CB4-BB30-47322087609F";
paths = (
{
closed = 1;
nodes = (
"150 233 OFFCURVE",
"117 200 OFFCURVE",
"50 200 CURVE",
"50 0 LINE",
"250 0 LINE SMOOTH",
"383 0 OFFCURVE",
"450 67 OFFCURVE",
"450 200 CURVE SMOOTH",
"450 1500 LINE",
"150 1500 LINE",
"150 300 LINE SMOOTH"
);
},
{
closed = 1;
nodes = (
"750 650 LINE",
"750 300 LINE SMOOTH",
"750 233 OFFCURVE",
"717 200 OFFCURVE",
"650 200 CURVE",
"650 0 LINE",
"850 0 LINE SMOOTH",
"983 0 OFFCURVE",
"1050 67 OFFCURVE",
"1050 200 CURVE SMOOTH",
"1050 1500 LINE",
"750 1500 LINE",
"750 850 LINE",
"500 850 LINE",
"500 650 LINE"
);
}
);
width = 1200;
}
);
note = uni17A3;
unicode = 17A3;
},
{
glyphname = uni17A4;
lastChange = "2021-05-21 11:44:54 +0000";
layers = (
{
layerId = "9A482FC5-A609-4CB4-BB30-47322087609F";
paths = (
{
closed = 1;
nodes = (
"150 233 OFFCURVE",
"117 200 OFFCURVE",
"50 200 CURVE",
"50 0 LINE",
"250 0 LINE SMOOTH",
"383 0 OFFCURVE",
"450 67 OFFCURVE",
"450 200 CURVE SMOOTH",
"450 1500 LINE",
"150 1500 LINE",
"150 300 LINE SMOOTH"
);
},
{
closed = 1;
nodes = (
"750 650 LINE",
"750 300 LINE SMOOTH",
"750 233 OFFCURVE",
"717 200 OFFCURVE",
"650 200 CURVE",
"650 0 LINE",
"850 0 LINE SMOOTH",
"983 0 OFFCURVE",
"1050 67 OFFCURVE",
"1050 200 CURVE SMOOTH",
"1050 1500 LINE",
"750 1500 LINE",
"750 850 LINE",
"500 850 LINE",
"500 650 LINE"
);
},
{
closed = 1;
nodes = (
"1650 1400 OFFCURVE",
"1500 1500 OFFCURVE",
"1200 1500 CURVE SMOOTH",
"1100 1500 LINE",
"1100 1250 LINE",
"1200 1250 LINE SMOOTH",
"1300 1250 OFFCURVE",
"1350 1217 OFFCURVE",
"1350 1150 CURVE SMOOTH",
"1350 0 LINE",
"1650 0 LINE",
"1650 1200 LINE SMOOTH"
);
}
);
width = 1800;
}
);
note = uni17A4;
unicode = 17A4;
},
{
glyphname = uni17B6;
lastChange = "2021-05-21 11:44:54 +0000";
layers = (
{
layerId = "9A482FC5-A609-4CB4-BB30-47322087609F";
paths = (
{
closed = 1;
nodes = (
"450 1400 OFFCURVE",
"300 1500 OFFCURVE",
"0 1500 CURVE SMOOTH",
"-100 1500 LINE",
"-100 1250 LINE",
"0 1250 LINE SMOOTH",
"100 1250 OFFCURVE",
"150 1217 OFFCURVE",
"150 1150 CURVE SMOOTH",
"150 0 LINE",
"450 0 LINE",
"450 1200 LINE SMOOTH"
);
}
);
width = 600;
}
);
note = uni17B6;
unicode = 17B6;
},
{
glyphname = uni17BF;
lastChange = "2021-05-21 11:44:54 +0000";
layers = (
{
layerId = "9A482FC5-A609-4CB4-BB30-47322087609F";
paths = (
{
closed = 1;
nodes = (
"450 1765 OFFCURVE",
"400 1847 OFFCURVE",
"300 1896 CURVE",
"300 2150 LINE",
"150 2150 LINE",
"150 1940 LINE",
"129 1943 OFFCURVE",
"106 1946 OFFCURVE",
"82 1947 CURVE",
"71 1952 OFFCURVE",
"60 1956 OFFCURVE",
"50 1960 CURVE",
"50 2150 LINE",
"-100 2150 LINE",
"-100 2000 LINE",
"-500 2000 LINE SMOOTH",
"-567 2000 OFFCURVE",
"-600 1967 OFFCURVE",
"-600 1900 CURVE SMOOTH",
"-600 1750 LINE",
"0 1750 LINE SMOOTH",
"100 1750 OFFCURVE",
"150 1717 OFFCURVE",
"150 1650 CURVE SMOOTH",
"150 -400 LINE SMOOTH",
"150 -467 OFFCURVE",
"100 -500 OFFCURVE",
"0 -500 CURVE SMOOTH",
"-100 -500 OFFCURVE",
"-150 -467 OFFCURVE",
"-150 -400 CURVE SMOOTH",
"-150 -100 LINE",
"-450 -100 LINE",
"-450 -400 LINE SMOOTH",
"-450 -600 OFFCURVE",
"-300 -700 OFFCURVE",
"0 -700 CURVE SMOOTH",
"300 -700 OFFCURVE",
"450 -600 OFFCURVE",
"450 -400 CURVE SMOOTH",
"450 1650 LINE SMOOTH"
);
}
);
width = 600;
}
);
note = uni17BF;
unicode = 17BF;
},
{
glyphname = uni17C0;
lastChange = "2021-05-21 11:44:54 +0000";
layers = (
{
layerId = "9A482FC5-A609-4CB4-BB30-47322087609F";
paths = (
{
closed = 1;
nodes = (
"450 1900 OFFCURVE",
"300 2000 OFFCURVE",
"0 2000 CURVE SMOOTH",
"-55 2000 OFFCURVE",
"-105 1997 OFFCURVE",
"-150 1990 CURVE",
"-150 2350 LINE",
"-450 2350 LINE",
"-450 1700 LINE",
"-150 1700 LINE",
"-150 1767 OFFCURVE",
"-100 1800 OFFCURVE",
"0 1800 CURVE SMOOTH",
"100 1800 OFFCURVE",
"150 1767 OFFCURVE",
"150 1700 CURVE SMOOTH",
"150 -400 LINE SMOOTH",
"150 -467 OFFCURVE",
"100 -500 OFFCURVE",
"0 -500 CURVE SMOOTH",
"-100 -500 OFFCURVE",
"-150 -467 OFFCURVE",
"-150 -400 CURVE SMOOTH",
"-150 -100 LINE",
"-450 -100 LINE",
"-450 -400 LINE SMOOTH",
"-450 -600 OFFCURVE",
"-300 -700 OFFCURVE",
"0 -700 CURVE SMOOTH",
"300 -700 OFFCURVE",
"450 -600 OFFCURVE",
"450 -400 CURVE SMOOTH",
"450 1700 LINE SMOOTH"
);
}
);
width = 600;
}
);
note = uni17C0;
unicode = 17C0;
},
{
glyphname = uni17C1;
lastChange = "2021-05-21 11:44:54 +0000";
layers = (
{
layerId = "9A482FC5-A609-4CB4-BB30-47322087609F";
paths = (
{
closed = 1;
nodes = (
"150 67 OFFCURVE",
"217 0 OFFCURVE",
"350 0 CURVE SMOOTH",
"550 0 LINE",
"550 200 LINE",
"483 200 OFFCURVE",
"450 233 OFFCURVE",
"450 300 CURVE SMOOTH",
"450 1500 LINE",
"150 1500 LINE",
"150 200 LINE SMOOTH"
);
}
);
width = 600;
}
);
note = uni17C1;
unicode = 17C1;
},
{
glyphname = uni17C2;
lastChange = "2021-05-21 11:44:54 +0000";
layers = (
{
layerId = "9A482FC5-A609-4CB4-BB30-47322087609F";
paths = (
{
closed = 1;
nodes = (
"150 2300 LINE",
"150 1900 LINE",
"0 1900 LINE",
"0 1650 LINE",
"450 1650 LINE",
"450 2300 LINE"
);
},
{
closed = 1;
nodes = (
"150 67 OFFCURVE",
"217 0 OFFCURVE",
"350 0 CURVE SMOOTH",
"550 0 LINE",
"550 200 LINE",
"483 200 OFFCURVE",
"450 233 OFFCURVE",
"450 300 CURVE SMOOTH",
"450 1500 LINE",
"150 1500 LINE",
"150 200 LINE SMOOTH"
);
}
);
width = 600;
}
);
note = uni17C2;
unicode = 17C2;
},
{
glyphname = uni17C3;
lastChange = "2021-05-21 11:44:54 +0000";
layers = (
{
layerId = "9A482FC5-A609-4CB4-BB30-47322087609F";
paths = (
{
closed = 1;
nodes = (
"550 1650 LINE",
"550 2100 LINE",
"440 2100 LINE",
"440 2350 LINE",
"150 2350 LINE",
"150 1900 LINE",
"301 1900 LINE",
"301 1800 LINE",
"150 1800 LINE",
"150 1650 LINE"
);
},
{
closed = 1;
nodes = (
"150 67 OFFCURVE",
"217 0 OFFCURVE",
"350 0 CURVE SMOOTH",
"550 0 LINE",
"550 200 LINE",
"483 200 OFFCURVE",
"450 233 OFFCURVE",
"450 300 CURVE SMOOTH",
"450 1500 LINE",
"150 1500 LINE",
"150 200 LINE SMOOTH"
);
}
);
width = 600;
}
);
note = uni17C3;
unicode = 17C3;
},
{
glyphname = uni17C4;
lastChange = "2021-05-21 11:44:54 +0000";
layers = (
{
layerId = "9A482FC5-A609-4CB4-BB30-47322087609F";
paths = (
{
closed = 1;
nodes = (
"450 1400 OFFCURVE",
"300 1500 OFFCURVE",
"0 1500 CURVE SMOOTH",
"-100 1500 LINE",
"-100 1250 LINE",
"0 1250 LINE SMOOTH",
"100 1250 OFFCURVE",
"150 1217 OFFCURVE",
"150 1150 CURVE SMOOTH",
"150 0 LINE",
"450 0 LINE",
"450 1200 LINE SMOOTH"
);
}
);
width = 600;
}
);
note = uni17C4;
unicode = 17C4;
},
{
glyphname = uni17C5;
lastChange = "2021-05-21 11:44:54 +0000";
layers = (
{
layerId = "9A482FC5-A609-4CB4-BB30-47322087609F";
paths = (
{
closed = 1;
nodes = (
"150 1950 LINE",
"150 1600 LINE",
"450 1600 LINE",
"450 2200 LINE",
"0 2200 LINE",
"0 1950 LINE"
);
},
{
closed = 1;
nodes = (
"450 1400 OFFCURVE",
"300 1500 OFFCURVE",
"0 1500 CURVE SMOOTH",
"-100 1500 LINE",
"-100 1250 LINE",
"0 1250 LINE SMOOTH",
"100 1250 OFFCURVE",
"150 1217 OFFCURVE",
"150 1150 CURVE SMOOTH",
"150 0 LINE",
"450 0 LINE",
"450 1200 LINE SMOOTH"
);
}
);
width = 600;
}
);
note = uni17C5;
unicode = 17C5;
},
{
glyphname = uni17C7;
lastChange = "2021-05-21 11:44:54 +0000";
layers = (
{
layerId = "9A482FC5-A609-4CB4-BB30-47322087609F";
paths = (
{
closed = 1;
nodes = (
"349 1500 OFFCURVE",
"245 1447 OFFCURVE",
"191 1351 CURVE SMOOTH",
"164 1302 OFFCURVE",
"150 1252 OFFCURVE",
"150 1200 CURVE SMOOTH",
"150 1096 OFFCURVE",
"205 992 OFFCURVE",
"301 940 CURVE SMOOTH",
"348 913 OFFCURVE",
"398 900 OFFCURVE",
"450 900 CURVE SMOOTH",
"554 900 OFFCURVE",
"658 955 OFFCURVE",
"711 1051 CURVE SMOOTH",
"737 1098 OFFCURVE",
"750 1148 OFFCURVE",
"750 1200 CURVE SMOOTH",
"750 1304 OFFCURVE",
"693 1410 OFFCURVE",
"597 1462 CURVE SMOOTH",
"549 1487 OFFCURVE",
"500 1500 OFFCURVE",
"450 1500 CURVE SMOOTH"
);
},
{
closed = 1;
nodes = (
"504 1300 OFFCURVE",
"550 1255 OFFCURVE",
"550 1200 CURVE SMOOTH",
"550 1144 OFFCURVE",
"506 1100 OFFCURVE",
"450 1100 CURVE SMOOTH",
"394 1100 OFFCURVE",
"350 1144 OFFCURVE",
"350 1200 CURVE SMOOTH",
"350 1255 OFFCURVE",
"396 1300 OFFCURVE",
"450 1300 CURVE SMOOTH"
);
},
{
closed = 1;
nodes = (
"349 600 OFFCURVE",
"245 547 OFFCURVE",
"191 451 CURVE SMOOTH",
"164 402 OFFCURVE",
"150 352 OFFCURVE",
"150 300 CURVE SMOOTH",
"150 196 OFFCURVE",
"205 92 OFFCURVE",
"301 40 CURVE SMOOTH",
"348 13 OFFCURVE",
"398 0 OFFCURVE",
"450 0 CURVE SMOOTH",
"554 0 OFFCURVE",
"658 55 OFFCURVE",
"711 151 CURVE SMOOTH",
"737 198 OFFCURVE",
"750 248 OFFCURVE",
"750 300 CURVE SMOOTH",
"750 404 OFFCURVE",
"693 510 OFFCURVE",
"597 562 CURVE SMOOTH",
"549 587 OFFCURVE",
"500 600 OFFCURVE",
"450 600 CURVE SMOOTH"
);
},
{
closed = 1;
nodes = (
"504 400 OFFCURVE",
"550 355 OFFCURVE",
"550 300 CURVE SMOOTH",
"550 244 OFFCURVE",
"506 200 OFFCURVE",
"450 200 CURVE SMOOTH",
"394 200 OFFCURVE",
"350 244 OFFCURVE",
"350 300 CURVE SMOOTH",
"350 355 OFFCURVE",
"396 400 OFFCURVE",
"450 400 CURVE SMOOTH"
);
}
);
width = 900;
}
);
note = uni17C7;
unicode = 17C7;
},
{
glyphname = uni17C8;
lastChange = "2021-05-21 11:44:54 +0000";
layers = (
{
layerId = "9A482FC5-A609-4CB4-BB30-47322087609F";
paths = (
{
closed = 1;
nodes = (
"249 1350 OFFCURVE",
"197 1323 OFFCURVE",
"170 1275 CURVE SMOOTH",
"157 1251 OFFCURVE",
"150 1226 OFFCURVE",
"150 1200 CURVE SMOOTH",
"150 1148 OFFCURVE",
"178 1097 OFFCURVE",
"226 1070 CURVE SMOOTH",
"249 1057 OFFCURVE",
"274 1050 OFFCURVE",
"300 1050 CURVE SMOOTH",
"352 1050 OFFCURVE",
"403 1078 OFFCURVE",
"430 1126 CURVE SMOOTH",
"443 1149 OFFCURVE",
"450 1174 OFFCURVE",
"450 1200 CURVE SMOOTH",
"450 1252 OFFCURVE",
"421 1305 OFFCURVE",
"374 1331 CURVE SMOOTH",
"350 1344 OFFCURVE",
"325 1350 OFFCURVE",
"300 1350 CURVE SMOOTH"
);
},
{
closed = 1;
nodes = (
"249 450 OFFCURVE",
"197 423 OFFCURVE",
"170 375 CURVE SMOOTH",
"157 351 OFFCURVE",
"150 326 OFFCURVE",
"150 300 CURVE SMOOTH",
"150 248 OFFCURVE",
"178 197 OFFCURVE",
"226 170 CURVE SMOOTH",
"249 157 OFFCURVE",
"274 150 OFFCURVE",
"300 150 CURVE SMOOTH",
"352 150 OFFCURVE",
"403 178 OFFCURVE",
"430 226 CURVE SMOOTH",
"443 249 OFFCURVE",
"450 274 OFFCURVE",
"450 300 CURVE SMOOTH",
"450 352 OFFCURVE",
"421 405 OFFCURVE",
"374 431 CURVE SMOOTH",
"350 444 OFFCURVE",
"325 450 OFFCURVE",
"300 450 CURVE SMOOTH"
);
}
);
width = 600;
}
);
note = uni17C8;
unicode = 17C8;
},
{
glyphname = uni17DC;
lastChange = "2021-05-21 11:44:54 +0000";
layers = (
{
layerId = "9A482FC5-A609-4CB4-BB30-47322087609F";
paths = (
{
closed = 1;
nodes = (
"988 -10 OFFCURVE",
"1150 123 OFFCURVE",
"1150 359 CURVE SMOOTH",
"1150 564 OFFCURVE",
"994 658 OFFCURVE",
"675 658 CURVE SMOOTH",
"543 658 OFFCURVE",
"466 671 OFFCURVE",
"422 724 CURVE SMOOTH",
"399 751 OFFCURVE",
"388 790 OFFCURVE",
"388 842 CURVE SMOOTH",
"388 974 OFFCURVE",
"487 1055 OFFCURVE",
"675 1055 CURVE SMOOTH",
"864 1055 OFFCURVE",
"963 1002 OFFCURVE",
"963 910 CURVE SMOOTH",
"963 871 OFFCURVE",
"949 851 OFFCURVE",
"922 851 CURVE SMOOTH",
"882 851 OFFCURVE",
"862 832 OFFCURVE",
"862 793 CURVE SMOOTH",
"862 754 OFFCURVE",
"882 734 OFFCURVE",
"922 734 CURVE SMOOTH",
"1027 734 OFFCURVE",
"1091 750 OFFCURVE",
"1125 802 CURVE SMOOTH",
"1142 827 OFFCURVE",
"1150 863 OFFCURVE",
"1150 910 CURVE SMOOTH",
"1150 1106 OFFCURVE",
"990 1210 OFFCURVE",
"675 1210 CURVE SMOOTH",
"362 1210 OFFCURVE",
"200 1078 OFFCURVE",
"200 842 CURVE SMOOTH",
"200 637 OFFCURVE",
"356 543 OFFCURVE",
"675 543 CURVE SMOOTH",
"808 543 OFFCURVE",
"884 531 OFFCURVE",
"929 478 CURVE SMOOTH",
"952 451 OFFCURVE",
"963 412 OFFCURVE",
"963 360 CURVE SMOOTH",
"963 227 OFFCURVE",
"864 146 OFFCURVE",
"675 146 CURVE SMOOTH",
"486 146 OFFCURVE",
"388 199 OFFCURVE",
"388 292 CURVE SMOOTH",
"388 331 OFFCURVE",
"402 350 OFFCURVE",
"429 350 CURVE SMOOTH",
"468 350 OFFCURVE",
"489 371 OFFCURVE",
"489 408 CURVE SMOOTH",
"489 448 OFFCURVE",
"469 468 OFFCURVE",
"429 468 CURVE SMOOTH",
"324 468 OFFCURVE",
"260 452 OFFCURVE",
"226 401 CURVE SMOOTH",
"209 376 OFFCURVE",
"200 340 OFFCURVE",
"200 293 CURVE SMOOTH",
"200 96 OFFCURVE",
"359 -10 OFFCURVE",
"675 -10 CURVE SMOOTH"
);
}
);
userData = {
assembly = "NPUSHB[ ]	/* 71 values pushed */\0120 5 0 8 7 5 8 105 0 7 0 6 9 7 6 105 0 9 0 4 1 9 4 105 0 1 0 2 3 1 2 105 0 3 3 0 97 10 1 0 0 19 0 78 2 0 55 53 48 46 43 41 39 37 32 30 26 24 19 17 14 12 9 7 0 62 2 59 11 7 22 \012CALL[ ]	/* CallFunction */";
};
width = 1350;
}
);
note = uni17DC;
unicode = 17DC;
},
{
glyphname = uni1789.a;
lastChange = "2021-05-21 11:44:54 +0000";
layers = (
{
layerId = "9A482FC5-A609-4CB4-BB30-47322087609F";
paths = (
{
closed = 1;
nodes = (
"750 1207 LINE",
"750 0 LINE",
"1050 0 LINE",
"1050 1400 LINE SMOOTH",
"1050 1467 OFFCURVE",
"1001 1500 OFFCURVE",
"903 1500 CURVE SMOOTH",
"750 1500 LINE",
"600 1354 LINE",
"450 1500 LINE",
"297 1500 LINE SMOOTH",
"199 1500 OFFCURVE",
"150 1467 OFFCURVE",
"150 1400 CURVE SMOOTH",
"150 100 LINE SMOOTH",
"150 33 OFFCURVE",
"200 0 OFFCURVE",
"300 0 CURVE SMOOTH",
"450 0 LINE SMOOTH",
"550 0 OFFCURVE",
"600 33 OFFCURVE",
"600 100 CURVE SMOOTH",
"600 200 LINE SMOOTH",
"600 267 OFFCURVE",
"550 300 OFFCURVE",
"450 300 CURVE",
"450 1207 LINE",
"600 1061 LINE"
);
},
{
closed = 1;
nodes = (
"1650 1400 OFFCURVE",
"1500 1500 OFFCURVE",
"1200 1500 CURVE SMOOTH",
"1100 1500 LINE",
"1100 1250 LINE",
"1200 1250 LINE SMOOTH",
"1300 1250 OFFCURVE",
"1350 1217 OFFCURVE",
"1350 1150 CURVE SMOOTH",
"1350 0 LINE",
"1650 0 LINE",
"1650 1200 LINE SMOOTH"
);
}
);
width = 1800;
}
);
note = uni1789.a;
},
{
glyphname = uni1794.a;
lastChange = "2021-05-21 11:44:54 +0000";
layers = (
{
layerId = "9A482FC5-A609-4CB4-BB30-47322087609F";
paths = (
{
closed = 1;
nodes = (
"750 233 OFFCURVE",
"700 200 OFFCURVE",
"600 200 CURVE SMOOTH",
"500 200 OFFCURVE",
"450 233 OFFCURVE",
"450 300 CURVE SMOOTH",
"450 810 LINE SMOOTH",
"450 870 OFFCURVE",
"467 900 OFFCURVE",
"500 900 CURVE",
"500 1100 LINE",
"320 1183 LINE",
"320 1250 LINE",
"1100 1250 LINE",
"1100 1500 LINE",
"100 1500 LINE",
"100 1047 LINE",
"250 980 LINE",
"183 947 OFFCURVE",
"150 903 OFFCURVE",
"150 850 CURVE SMOOTH",
"150 300 LINE SMOOTH",
"150 100 OFFCURVE",
"300 0 OFFCURVE",
"600 0 CURVE SMOOTH",
"657 0 OFFCURVE",
"707 6 OFFCURVE",
"750 18 CURVE",
"750 -50 LINE",
"1050 -50 LINE",
"1050 1100 LINE",
"750 1100 LINE",
"750 300 LINE SMOOTH"
);
}
);
width = 1200;
}
);
note = uni1794.a;
},
{
glyphname = uni17BF.b;
lastChange = "2021-05-21 11:44:54 +0000";
layers = (
{
layerId = "9A482FC5-A609-4CB4-BB30-47322087609F";
paths = (
{
closed = 1;
nodes = (
"450 1765 OFFCURVE",
"400 1847 OFFCURVE",
"300 1896 CURVE",
"300 2150 LINE",
"150 2150 LINE",
"150 1940 LINE",
"129 1943 OFFCURVE",
"106 1946 OFFCURVE",
"82 1947 CURVE",
"71 1952 OFFCURVE",
"60 1956 OFFCURVE",
"50 1960 CURVE",
"50 2150 LINE",
"-100 2150 LINE",
"-100 2000 LINE",
"-500 2000 LINE SMOOTH",
"-567 2000 OFFCURVE",
"-600 1967 OFFCURVE",
"-600 1900 CURVE SMOOTH",
"-600 1750 LINE",
"0 1750 LINE SMOOTH",
"100 1750 OFFCURVE",
"150 1717 OFFCURVE",
"150 1650 CURVE SMOOTH",
"150 -900 LINE SMOOTH",
"150 -967 OFFCURVE",
"100 -1000 OFFCURVE",
"0 -1000 CURVE SMOOTH",
"-100 -1000 OFFCURVE",
"-150 -967 OFFCURVE",
"-150 -900 CURVE SMOOTH",
"-150 -750 LINE",
"-450 -750 LINE",
"-450 -900 LINE SMOOTH",
"-450 -1100 OFFCURVE",
"-300 -1200 OFFCURVE",
"0 -1200 CURVE SMOOTH",
"300 -1200 OFFCURVE",
"450 -1100 OFFCURVE",
"450 -900 CURVE SMOOTH",
"450 1650 LINE SMOOTH"
);
}
);
width = 600;
}
);
note = uni17BF.b;
},
{
glyphname = uni17C0.b;
lastChange = "2021-05-21 11:44:54 +0000";
layers = (
{
layerId = "9A482FC5-A609-4CB4-BB30-47322087609F";
paths = (
{
closed = 1;
nodes = (
"150 -967 OFFCURVE",
"100 -1000 OFFCURVE",
"0 -1000 CURVE SMOOTH",
"-100 -1000 OFFCURVE",
"-150 -967 OFFCURVE",
"-150 -900 CURVE SMOOTH",
"-150 -750 LINE",
"-450 -750 LINE",
"-450 -900 LINE SMOOTH",
"-450 -1100 OFFCURVE",
"-300 -1200 OFFCURVE",
"0 -1200 CURVE SMOOTH",
"300 -1200 OFFCURVE",
"450 -1100 OFFCURVE",
"450 -900 CURVE SMOOTH",
"450 1700 LINE SMOOTH",
"450 1900 OFFCURVE",
"300 2000 OFFCURVE",
"0 2000 CURVE SMOOTH",
"-55 2000 OFFCURVE",
"-105 1997 OFFCURVE",
"-150 1990 CURVE",
"-150 2350 LINE",
"-450 2350 LINE",
"-450 1700 LINE",
"-150 1700 LINE",
"-150 1767 OFFCURVE",
"-100 1800 OFFCURVE",
"0 1800 CURVE SMOOTH",
"100 1800 OFFCURVE",
"150 1767 OFFCURVE",
"150 1700 CURVE SMOOTH",
"150 -900 LINE SMOOTH"
);
}
);
width = 600;
}
);
note = uni17C0.b;
},
{
glyphname = uni17D21783;
lastChange = "2021-05-21 11:44:54 +0000";
layers = (
{
layerId = "9A482FC5-A609-4CB4-BB30-47322087609F";
paths = (
{
closed = 1;
nodes = (
"-1050 -600 OFFCURVE",
"-900 -700 OFFCURVE",
"-600 -700 CURVE SMOOTH",
"-473 -700 OFFCURVE",
"-372 -682 OFFCURVE",
"-299 -646 CURVE",
"-226 -682 OFFCURVE",
"-127 -700 OFFCURVE",
"0 -700 CURVE SMOOTH",
"300 -700 OFFCURVE",
"450 -600 OFFCURVE",
"450 -400 CURVE SMOOTH",
"450 1500 LINE",
"150 1500 LINE",
"150 -400 LINE SMOOTH",
"150 -467 OFFCURVE",
"100 -500 OFFCURVE",
"0 -500 CURVE SMOOTH",
"-100 -500 OFFCURVE",
"-150 -467 OFFCURVE",
"-150 -400 CURVE SMOOTH",
"-150 -100 LINE",
"-450 -100 LINE",
"-450 -400 LINE SMOOTH",
"-450 -467 OFFCURVE",
"-500 -500 OFFCURVE",
"-600 -500 CURVE SMOOTH",
"-700 -500 OFFCURVE",
"-750 -467 OFFCURVE",
"-750 -400 CURVE SMOOTH",
"-750 -220 LINE SMOOTH",
"-750 -140 OFFCURVE",
"-800 -100 OFFCURVE",
"-900 -100 CURVE SMOOTH",
"-1100 -100 LINE",
"-1100 -220 LINE",
"-1067 -220 OFFCURVE",
"-1050 -247 OFFCURVE",
"-1050 -300 CURVE SMOOTH",
"-1050 -400 LINE SMOOTH"
);
}
);
width = 600;
}
);
note = uni17D21783;
category = Letter;
},
{
glyphname = uni17D21788;
lastChange = "2021-05-21 11:44:54 +0000";
layers = (
{
layerId = "9A482FC5-A609-4CB4-BB30-47322087609F";
paths = (
{
closed = 1;
nodes = (
"-850 -600 OFFCURVE",
"-717 -700 OFFCURVE",
"-450 -700 CURVE SMOOTH",
"-356 -700 OFFCURVE",
"-272 -682 OFFCURVE",
"-199 -646 CURVE",
"-126 -682 OFFCURVE",
"-43 -700 OFFCURVE",
"50 -700 CURVE SMOOTH",
"317 -700 OFFCURVE",
"450 -600 OFFCURVE",
"450 -400 CURVE SMOOTH",
"450 1500 LINE",
"150 1500 LINE",
"150 -400 LINE SMOOTH",
"150 -467 OFFCURVE",
"117 -500 OFFCURVE",
"50 -500 CURVE SMOOTH",
"-17 -500 OFFCURVE",
"-50 -467 OFFCURVE",
"-50 -400 CURVE SMOOTH",
"-50 -100 LINE",
"-350 -100 LINE",
"-350 -400 LINE SMOOTH",
"-350 -467 OFFCURVE",
"-383 -500 OFFCURVE",
"-450 -500 CURVE SMOOTH",
"-517 -500 OFFCURVE",
"-550 -467 OFFCURVE",
"-550 -400 CURVE SMOOTH",
"-550 -350 LINE SMOOTH",
"-550 -183 OFFCURVE",
"-683 -100 OFFCURVE",
"-950 -100 CURVE SMOOTH",
"-1217 -100 OFFCURVE",
"-1350 -183 OFFCURVE",
"-1350 -350 CURVE SMOOTH",
"-1350 -600 LINE SMOOTH",
"-1350 -667 OFFCURVE",
"-1300 -700 OFFCURVE",
"-1200 -700 CURVE SMOOTH",
"-1050 -700 LINE SMOOTH",
"-983 -700 OFFCURVE",
"-950 -667 OFFCURVE",
"-950 -600 CURVE SMOOTH",
"-950 -533 OFFCURVE",
"-983 -500 OFFCURVE",
"-1050 -500 CURVE",
"-1050 -350 LINE SMOOTH",
"-1050 -283 OFFCURVE",
"-1017 -250 OFFCURVE",
"-950 -250 CURVE SMOOTH",
"-883 -250 OFFCURVE",
"-850 -283 OFFCURVE",
"-850 -350 CURVE SMOOTH",
"-850 -400 LINE SMOOTH"
);
}
);
width = 600;
}
);
note = uni17D21788;
category = Letter;
},
{
glyphname = uni17D2178D;
lastChange = "2021-05-21 11:44:54 +0000";
layers = (
{
layerId = "9A482FC5-A609-4CB4-BB30-47322087609F";
paths = (
{
closed = 1;
nodes = (
"81 -420 OFFCURVE",
"-2 -390 OFFCURVE",
"-100 -390 CURVE SMOOTH",
"-150 -390 LINE",
"-150 -166 LINE SMOOTH",
"-150 -122 OFFCURVE",
"-199 -100 OFFCURVE",
"-297 -100 CURVE SMOOTH",
"-450 -100 LINE",
"-600 -197 LINE",
"-750 -100 LINE",
"-903 -100 LINE SMOOTH",
"-1001 -100 OFFCURVE",
"-1050 -122 OFFCURVE",
"-1050 -166 CURVE SMOOTH",
"-1050 -633 LINE SMOOTH",
"-1050 -678 OFFCURVE",
"-1000 -700 OFFCURVE",
"-900 -700 CURVE SMOOTH",
"-750 -700 LINE SMOOTH",
"-683 -700 OFFCURVE",
"-650 -678 OFFCURVE",
"-650 -633 CURVE SMOOTH",
"-650 -566 LINE SMOOTH",
"-650 -522 OFFCURVE",
"-683 -500 OFFCURVE",
"-750 -500 CURVE",
"-750 -295 LINE",
"-600 -392 LINE",
"-450 -295 LINE",
"-450 -560 LINE SMOOTH",
"-450 -653 OFFCURVE",
"-400 -700 OFFCURVE",
"-300 -700 CURVE SMOOTH",
"-200 -700 OFFCURVE",
"-150 -647 OFFCURVE",
"-150 -540 CURVE",
"-100 -540 LINE SMOOTH",
"28 -540 OFFCURVE",
"150 -624 OFFCURVE",
"150 -700 CURVE",
"300 -700 LINE SMOOTH",
"400 -700 OFFCURVE",
"450 -657 OFFCURVE",
"450 -570 CURVE SMOOTH",
"450 1500 LINE",
"150 1500 LINE",
"150 -479 LINE"
);
}
);
width = 600;
}
);
note = uni17D2178D;
category = Letter;
},
{
glyphname = uni17D21794;
lastChange = "2021-05-21 11:44:54 +0000";
layers = (
{
layerId = "9A482FC5-A609-4CB4-BB30-47322087609F";
paths = (
{
closed = 1;
nodes = (
"-450 -600 LINE SMOOTH",
"-450 -667 OFFCURVE",
"-401 -700 OFFCURVE",
"-303 -700 CURVE SMOOTH",
"-150 -700 LINE",
"0 -554 LINE",
"150 -700 LINE",
"303 -700 LINE SMOOTH",
"401 -700 OFFCURVE",
"450 -667 OFFCURVE",
"450 -600 CURVE SMOOTH",
"450 1500 LINE",
"150 1500 LINE",
"150 -407 LINE",
"0 -261 LINE",
"-150 -407 LINE",
"-150 -300 LINE SMOOTH",
"-150 -267 OFFCURVE",
"-133 -250 OFFCURVE",
"-100 -250 CURVE",
"-100 -100 LINE",
"-300 -100 LINE SMOOTH",
"-400 -100 OFFCURVE",
"-450 -133 OFFCURVE",
"-450 -200 CURVE SMOOTH"
);
}
);
width = 600;
}
);
note = uni17D21794;
category = Letter;
},
{
glyphname = uni17D21799;
lastChange = "2021-05-21 11:44:54 +0000";
layers = (
{
layerId = "9A482FC5-A609-4CB4-BB30-47322087609F";
paths = (
{
closed = 1;
nodes = (
"-450 -600 OFFCURVE",
"-300 -700 OFFCURVE",
"0 -700 CURVE SMOOTH",
"300 -700 OFFCURVE",
"450 -600 OFFCURVE",
"450 -400 CURVE SMOOTH",
"450 1500 LINE",
"150 1500 LINE",
"150 -400 LINE SMOOTH",
"150 -467 OFFCURVE",
"100 -500 OFFCURVE",
"0 -500 CURVE SMOOTH",
"-100 -500 OFFCURVE",
"-150 -467 OFFCURVE",
"-150 -400 CURVE SMOOTH",
"-150 -100 LINE",
"-450 -100 LINE",
"-450 -400 LINE SMOOTH"
);
}
);
width = 600;
}
);
note = uni17D21799;
category = Letter;
},
{
glyphname = uni17D2179A;
lastChange = "2021-05-21 11:44:54 +0000";
layers = (
{
layerId = "9A482FC5-A609-4CB4-BB30-47322087609F";
paths = (
{
closed = 1;
nodes = (
"750 -467 OFFCURVE",
"700 -500 OFFCURVE",
"600 -500 CURVE SMOOTH",
"500 -500 OFFCURVE",
"450 -467 OFFCURVE",
"450 -400 CURVE SMOOTH",
"450 1500 LINE",
"150 1500 LINE",
"150 -400 LINE SMOOTH",
"150 -600 OFFCURVE",
"300 -700 OFFCURVE",
"600 -700 CURVE SMOOTH",
"900 -700 OFFCURVE",
"1050 -600 OFFCURVE",
"1050 -400 CURVE SMOOTH",
"1050 -100 LINE",
"750 -100 LINE",
"750 -400 LINE SMOOTH"
);
}
);
width = 600;
}
);
note = uni17D2179A;
category = Letter;
},
{
glyphname = uni17D2179F;
lastChange = "2021-05-21 11:44:54 +0000";
layers = (
{
layerId = "9A482FC5-A609-4CB4-BB30-47322087609F";
paths = (
{
closed = 1;
nodes = (
"150 200 LINE",
"0 200 LINE",
"0 0 LINE",
"150 0 LINE",
"150 -400 LINE SMOOTH",
"150 -467 OFFCURVE",
"100 -500 OFFCURVE",
"0 -500 CURVE SMOOTH",
"-100 -500 OFFCURVE",
"-150 -467 OFFCURVE",
"-150 -400 CURVE SMOOTH",
"-150 -250 LINE SMOOTH",
"-150 -150 OFFCURVE",
"-217 -100 OFFCURVE",
"-350 -100 CURVE SMOOTH",
"-500 -100 LINE",
"-500 -300 LINE",
"-467 -300 OFFCURVE",
"-450 -323 OFFCURVE",
"-450 -370 CURVE SMOOTH",
"-450 -400 LINE SMOOTH",
"-450 -600 OFFCURVE",
"-300 -700 OFFCURVE",
"0 -700 CURVE SMOOTH",
"300 -700 OFFCURVE",
"450 -600 OFFCURVE",
"450 -400 CURVE SMOOTH",
"450 0 LINE",
"600 0 LINE",
"600 200 LINE",
"450 200 LINE",
"450 1500 LINE",
"150 1500 LINE"
);
}
);
width = 600;
}
);
note = uni17D2179F;
category = Letter;
},
{
glyphname = uni17D2179A.b;
lastChange = "2021-05-21 11:44:54 +0000";
layers = (
{
layerId = "9A482FC5-A609-4CB4-BB30-47322087609F";
paths = (
{
closed = 1;
nodes = (
"150 -975 LINE SMOOTH",
"150 -1125 OFFCURVE",
"300 -1200 OFFCURVE",
"600 -1200 CURVE SMOOTH",
"900 -1200 OFFCURVE",
"1050 -1125 OFFCURVE",
"1050 -975 CURVE SMOOTH",
"1050 -750 LINE",
"750 -750 LINE",
"750 -975 LINE SMOOTH",
"750 -1025 OFFCURVE",
"700 -1050 OFFCURVE",
"600 -1050 CURVE SMOOTH",
"500 -1050 OFFCURVE",
"450 -1025 OFFCURVE",
"450 -975 CURVE SMOOTH",
"450 1500 LINE",
"150 1500 LINE"
);
}
);
width = 600;
}
);
note = uni17D2179A.b;
category = Letter;
},
{
glyphname = zero;
lastChange = "2021-05-21 11:44:54 +0000";
layers = (
{
layerId = "9A482FC5-A609-4CB4-BB30-47322087609F";
paths = (
{
closed = 1;
nodes = (
"676 -20 OFFCURVE",
"812 61 OFFCURVE",
"888 186 CURVE SMOOTH",
"925 248 OFFCURVE",
"944 316 OFFCURVE",
"944 391 CURVE SMOOTH",
"942 1040 LINE SMOOTH",
"942 1191 OFFCURVE",
"862 1319 OFFCURVE",
"731 1393 CURVE SMOOTH",
"665 1430 OFFCURVE",
"588 1448 OFFCURVE",
"501 1448 CURVE SMOOTH",
"329 1448 OFFCURVE",
"191 1368 OFFCURVE",
"116 1245 CURVE SMOOTH",
"78 1184 OFFCURVE",
"59 1115 OFFCURVE",
"59 1040 CURVE SMOOTH",
"57 391 LINE SMOOTH",
"57 242 OFFCURVE",
"137 111 OFFCURVE",
"270 36 CURVE SMOOTH",
"337 -1 OFFCURVE",
"414 -20 OFFCURVE",
"501 -20 CURVE SMOOTH"
);
},
{
closed = 1;
nodes = (
"696 290 OFFCURVE",
"616 227 OFFCURVE",
"501 227 CURVE SMOOTH",
"384 227 OFFCURVE",
"307 290 OFFCURVE",
"307 391 CURVE SMOOTH",
"307 1040 LINE SMOOTH",
"307 1136 OFFCURVE",
"384 1202 OFFCURVE",
"501 1202 CURVE SMOOTH",
"616 1202 OFFCURVE",
"694 1136 OFFCURVE",
"694 1040 CURVE SMOOTH",
"696 391 LINE SMOOTH"
);
}
);
userData = {
assembly = "NPUSHB[ ]	/* 37 values pushed */\0120 2 2 1 97 0 1 1 40 77 0 3 3 0 97 4 1 0 0 38 0 78 2 0 32 30 25 23 11 9 0 18 2 18 5 8 22 \012CALL[ ]	/* CallFunction */";
};
width = 1017;
}
);
note = zero;
unicode = 0030;
},
{
glyphname = one;
lastChange = "2021-05-21 11:44:54 +0000";
layers = (
{
layerId = "9A482FC5-A609-4CB4-BB30-47322087609F";
paths = (
{
closed = 1;
nodes = (
"328 0 OFFCURVE",
"331 3 OFFCURVE",
"331 10 CURVE SMOOTH",
"329 1417 LINE SMOOTH",
"329 1422 OFFCURVE",
"326 1425 OFFCURVE",
"321 1425 CURVE SMOOTH",
"91 1425 LINE SMOOTH",
"86 1425 OFFCURVE",
"83 1422 OFFCURVE",
"83 1417 CURVE SMOOTH",
"81 10 LINE SMOOTH",
"81 3 OFFCURVE",
"84 0 OFFCURVE",
"91 0 CURVE SMOOTH",
"323 0 LINE SMOOTH"
);
}
);
userData = {
assembly = "NPUSHB[ ]	/* 29 values pushed */\0124 1 0 1 1 76 0 1 1 31 77 2 1 0 0 32 0 78 1 0 8 5 0 12 1 11 3 8 22 \012CALL[ ]	/* CallFunction */";
};
width = 430;
}
);
note = one;
unicode = 0031;
},
{
glyphname = two;
lastChange = "2021-05-21 11:44:54 +0000";
layers = (
{
layerId = "9A482FC5-A609-4CB4-BB30-47322087609F";
paths = (
{
closed = 1;
nodes = (
"822 0 OFFCURVE",
"825 3 OFFCURVE",
"825 10 CURVE SMOOTH",
"825 242 LINE SMOOTH",
"825 247 OFFCURVE",
"822 250 OFFCURVE",
"816 250 CURVE SMOOTH",
"356 250 LINE",
"745 784 LINE SMOOTH",
"800 856 OFFCURVE",
"833 955 OFFCURVE",
"833 1044 CURVE SMOOTH",
"833 1187 OFFCURVE",
"754 1316 OFFCURVE",
"634 1392 CURVE SMOOTH",
"574 1429 OFFCURVE",
"507 1448 OFFCURVE",
"433 1448 CURVE SMOOTH",
"294 1448 OFFCURVE",
"166 1368 OFFCURVE",
"91 1243 CURVE SMOOTH",
"53 1180 OFFCURVE",
"34 1111 OFFCURVE",
"34 1034 CURVE SMOOTH",
"34 934 LINE SMOOTH",
"34 927 OFFCURVE",
"37 924 OFFCURVE",
"42 924 CURVE SMOOTH",
"272 924 LINE SMOOTH",
"279 924 OFFCURVE",
"282 927 OFFCURVE",
"282 934 CURVE SMOOTH",
"282 1034 LINE SMOOTH",
"282 1133 OFFCURVE",
"349 1204 OFFCURVE",
"433 1204 CURVE SMOOTH",
"521 1204 OFFCURVE",
"585 1124 OFFCURVE",
"585 1044 CURVE SMOOTH",
"585 1015 OFFCURVE",
"571 969 OFFCURVE",
"552 944 CURVE SMOOTH",
"46 250 LINE",
"43 247 OFFCURVE",
"42 245 OFFCURVE",
"42 242 CURVE SMOOTH",
"42 10 LINE SMOOTH",
"42 3 OFFCURVE",
"45 0 OFFCURVE",
"52 0 CURVE SMOOTH",
"816 0 LINE SMOOTH"
);
}
);
userData = {
assembly = "NPUSHB[ ]	/* 59 values pushed */\01224 18 2 2 1 5 4 2 0 4 2 76 0 2 1 4 1 2 4 128 0 1 1 3 97 0 3 3 40 77 0 4 4 0 95 5 1 0 0 32 0 78 1 0 37 36 29 27 21 20 15 13 0 41 1 40 6 8 22 \012CALL[ ]	/* CallFunction */";
};
width = 899;
}
);
note = two;
unicode = 0032;
},
{
glyphname = three;
lastChange = "2021-05-21 11:44:54 +0000";
layers = (
{
layerId = "9A482FC5-A609-4CB4-BB30-47322087609F";
paths = (
{
closed = 1;
nodes = (
"581 -23 OFFCURVE",
"708 57 OFFCURVE",
"781 182 CURVE SMOOTH",
"817 245 OFFCURVE",
"835 314 OFFCURVE",
"835 391 CURVE SMOOTH",
"835 453 LINE SMOOTH",
"835 556 OFFCURVE",
"791 656 OFFCURVE",
"720 737 CURVE",
"791 817 OFFCURVE",
"833 898 OFFCURVE",
"833 1018 CURVE SMOOTH",
"833 1051 LINE SMOOTH",
"833 1195 OFFCURVE",
"756 1321 OFFCURVE",
"635 1394 CURVE SMOOTH",
"574 1430 OFFCURVE",
"507 1448 OFFCURVE",
"433 1448 CURVE SMOOTH",
"297 1448 OFFCURVE",
"168 1372 OFFCURVE",
"93 1255 CURVE SMOOTH",
"55 1196 OFFCURVE",
"36 1130 OFFCURVE",
"36 1055 CURVE SMOOTH",
"36 946 LINE SMOOTH",
"36 939 OFFCURVE",
"39 936 OFFCURVE",
"44 936 CURVE SMOOTH",
"274 936 LINE SMOOTH",
"279 936 OFFCURVE",
"282 939 OFFCURVE",
"282 946 CURVE SMOOTH",
"282 1044 LINE SMOOTH",
"282 1132 OFFCURVE",
"349 1202 OFFCURVE",
"433 1202 CURVE SMOOTH",
"521 1202 OFFCURVE",
"587 1132 OFFCURVE",
"587 1044 CURVE SMOOTH",
"587 1016 LINE SMOOTH",
"587 923 OFFCURVE",
"519 860 OFFCURVE",
"446 860 CURVE SMOOTH",
"366 860 LINE SMOOTH",
"361 860 OFFCURVE",
"358 857 OFFCURVE",
"358 852 CURVE SMOOTH",
"356 623 LINE SMOOTH",
"356 616 OFFCURVE",
"359 612 OFFCURVE",
"366 612 CURVE SMOOTH",
"446 612 LINE SMOOTH",
"527 612 OFFCURVE",
"587 531 OFFCURVE",
"587 446 CURVE SMOOTH",
"587 391 LINE SMOOTH",
"587 307 OFFCURVE",
"529 227 OFFCURVE",
"433 227 CURVE SMOOTH",
"346 227 OFFCURVE",
"282 302 OFFCURVE",
"282 391 CURVE SMOOTH",
"282 483 LINE SMOOTH",
"282 490 OFFCURVE",
"279 494 OFFCURVE",
"272 494 CURVE SMOOTH",
"42 494 LINE SMOOTH",
"37 494 OFFCURVE",
"34 490 OFFCURVE",
"34 483 CURVE SMOOTH",
"34 391 LINE SMOOTH",
"34 242 OFFCURVE",
"113 109 OFFCURVE",
"234 34 CURVE SMOOTH",
"295 -4 OFFCURVE",
"361 -23 OFFCURVE",
"433 -23 CURVE SMOOTH"
);
}
);
userData = {
assembly = "NPUSHB[ ]	/* 81 values pushed */\01258 26 25 3 3 4 11 1 2 1 2 76 0 6 5 4 5 6 4 128 0 1 3 2 3 1 2 128 0 4 0 3 1 4 3 105 0 5 5 7 97 0 7 7 40 77 0 2 2 0 97 8 1 0 0 38 0 78 2 0 51 49 43 40 37 35 30 29 23 21 16 14 9 6 0 65 2 65 9 8 22 \012CALL[ ]	/* CallFunction */";
};
width = 901;
}
);
note = three;
unicode = 0033;
},
{
glyphname = four;
lastChange = "2021-05-21 11:44:54 +0000";
layers = (
{
layerId = "9A482FC5-A609-4CB4-BB30-47322087609F";
paths = (
{
closed = 1;
nodes = (
"723 0 OFFCURVE",
"726 3 OFFCURVE",
"726 10 CURVE SMOOTH",
"726 250 LINE",
"872 250 LINE SMOOTH",
"877 250 OFFCURVE",
"880 253 OFFCURVE",
"880 260 CURVE SMOOTH",
"880 483 LINE SMOOTH",
"880 490 OFFCURVE",
"877 494 OFFCURVE",
"870 494 CURVE SMOOTH",
"726 494 LINE",
"724 1417 LINE SMOOTH",
"724 1422 OFFCURVE",
"722 1425 OFFCURVE",
"718 1425 CURVE SMOOTH",
"487 1425 LINE SMOOTH",
"482 1425 OFFCURVE",
"477 1422 OFFCURVE",
"474 1417 CURVE SMOOTH",
"28 485 LINE",
"28 260 LINE SMOOTH",
"28 253 OFFCURVE",
"31 250 OFFCURVE",
"36 250 CURVE SMOOTH",
"479 250 LINE",
"479 10 LINE SMOOTH",
"479 3 OFFCURVE",
"482 0 OFFCURVE",
"487 0 CURVE SMOOTH",
"718 0 LINE SMOOTH"
);
},
{
closed = 1;
nodes = (
"270 494 LINE",
"479 940 LINE",
"479 494 LINE"
);
}
);
userData = {
assembly = "NPUSHB[ ]	/* 52 values pushed */\01228 1 3 2 19 9 2 1 3 2 76 5 1 3 4 1 1 0 3 1 103 0 2 2 31 77 6 1 0 0 32 0 78 1 0 27 26 23 20 17 16 13 12 6 5 0 25 1 24 7 8 22 \012CALL[ ]	/* CallFunction */";
};
width = 923;
}
);
note = four;
unicode = 0034;
},
{
glyphname = five;
lastChange = "2021-05-21 11:44:54 +0000";
layers = (
{
layerId = "9A482FC5-A609-4CB4-BB30-47322087609F";
paths = (
{
closed = 1;
nodes = (
"596 -20 OFFCURVE",
"723 61 OFFCURVE",
"796 187 CURVE SMOOTH",
"832 250 OFFCURVE",
"850 318 OFFCURVE",
"850 393 CURVE SMOOTH",
"850 532 LINE SMOOTH",
"850 677 OFFCURVE",
"770 803 OFFCURVE",
"646 876 CURVE SMOOTH",
"584 912 OFFCURVE",
"516 930 OFFCURVE",
"442 930 CURVE SMOOTH",
"399 930 OFFCURVE",
"338 917 OFFCURVE",
"305 901 CURVE",
"315 1184 LINE",
"795 1184 LINE SMOOTH",
"800 1184 OFFCURVE",
"803 1187 OFFCURVE",
"803 1194 CURVE SMOOTH",
"803 1417 LINE SMOOTH",
"803 1422 OFFCURVE",
"800 1425 OFFCURVE",
"795 1425 CURVE SMOOTH",
"106 1425 LINE SMOOTH",
"101 1425 OFFCURVE",
"98 1422 OFFCURVE",
"98 1417 CURVE SMOOTH",
"86 1194 LINE",
"61 633 LINE SMOOTH",
"61 626 OFFCURVE",
"65 623 OFFCURVE",
"72 623 CURVE SMOOTH",
"291 606 LINE",
"295 612 LINE SMOOTH",
"333 659 OFFCURVE",
"381 682 OFFCURVE",
"440 682 CURVE SMOOTH",
"531 682 OFFCURVE",
"600 617 OFFCURVE",
"600 532 CURVE SMOOTH",
"600 393 LINE SMOOTH",
"600 304 OFFCURVE",
"533 229 OFFCURVE",
"448 229 CURVE SMOOTH",
"364 229 OFFCURVE",
"295 301 OFFCURVE",
"295 393 CURVE SMOOTH",
"295 440 LINE SMOOTH",
"295 446 OFFCURVE",
"292 449 OFFCURVE",
"287 449 CURVE SMOOTH",
"55 449 LINE SMOOTH",
"48 449 OFFCURVE",
"45 446 OFFCURVE",
"45 440 CURVE SMOOTH",
"45 379 LINE SMOOTH",
"45 236 OFFCURVE",
"125 108 OFFCURVE",
"248 35 CURVE SMOOTH",
"309 -2 OFFCURVE",
"376 -20 OFFCURVE",
"448 -20 CURVE SMOOTH"
);
}
);
userData = {
assembly = "NPUSHB[ ]	/* 82 values pushed */\01240 1 3 7 28 1 4 3 12 1 2 1 3 76 0 4 3 1 3 4 1 128 0 1 2 3 1 2 126 0 7 0 3 4 7 3 105 0 6 6 5 95 0 5 5 31 77 0 2 2 0 97 8 1 0 0 38 0 78 2 0 44 42 39 36 33 30 26 24 23 21 16 14 9 6 0 51 2 51 9 8 22 \012CALL[ ]	/* CallFunction */";
};
width = 886;
}
);
note = five;
unicode = 0035;
},
{
glyphname = six;
lastChange = "2021-05-21 11:44:54 +0000";
layers = (
{
layerId = "9A482FC5-A609-4CB4-BB30-47322087609F";
paths = (
{
closed = 1;
nodes = (
"608 -20 OFFCURVE",
"733 59 OFFCURVE",
"806 183 CURVE SMOOTH",
"842 245 OFFCURVE",
"860 313 OFFCURVE",
"860 387 CURVE SMOOTH",
"860 514 LINE SMOOTH",
"860 665 OFFCURVE",
"783 795 OFFCURVE",
"662 869 CURVE SMOOTH",
"601 906 OFFCURVE",
"534 924 OFFCURVE",
"460 924 CURVE SMOOTH",
"407 924 OFFCURVE",
"356 914 OFFCURVE",
"307 893 CURVE",
"307 1034 LINE SMOOTH",
"307 1125 OFFCURVE",
"376 1198 OFFCURVE",
"460 1198 CURVE SMOOTH",
"548 1198 OFFCURVE",
"614 1125 OFFCURVE",
"614 1034 CURVE SMOOTH",
"614 993 LINE SMOOTH",
"614 988 OFFCURVE",
"617 985 OFFCURVE",
"622 985 CURVE SMOOTH",
"852 985 LINE SMOOTH",
"859 985 OFFCURVE",
"862 988 OFFCURVE",
"862 993 CURVE SMOOTH",
"862 1034 LINE SMOOTH",
"862 1187 OFFCURVE",
"783 1316 OFFCURVE",
"662 1392 CURVE SMOOTH",
"601 1429 OFFCURVE",
"534 1448 OFFCURVE",
"460 1448 CURVE SMOOTH",
"316 1448 OFFCURVE",
"187 1366 OFFCURVE",
"113 1241 CURVE SMOOTH",
"76 1178 OFFCURVE",
"57 1109 OFFCURVE",
"57 1034 CURVE SMOOTH",
"59 387 LINE SMOOTH",
"59 239 OFFCURVE",
"140 111 OFFCURVE",
"261 36 CURVE SMOOTH",
"322 -1 OFFCURVE",
"388 -20 OFFCURVE",
"460 -20 CURVE SMOOTH"
);
},
{
closed = 1;
nodes = (
"376 225 OFFCURVE",
"307 300 OFFCURVE",
"307 387 CURVE SMOOTH",
"307 514 LINE SMOOTH",
"307 605 OFFCURVE",
"376 676 OFFCURVE",
"460 676 CURVE SMOOTH",
"545 676 OFFCURVE",
"612 602 OFFCURVE",
"612 514 CURVE SMOOTH",
"612 387 LINE SMOOTH",
"612 296 OFFCURVE",
"545 225 OFFCURVE",
"460 225 CURVE SMOOTH"
);
}
);
userData = {
assembly = "NPUSHB[ ]	/* 74 values pushed */\01221 1 2 3 28 1 6 4 2 76 0 2 3 4 3 2 4 128 0 4 0 6 5 4 6 105 0 3 3 1 97 0 1 1 40 77 8 1 5 5 0 97 7 1 0 0 38 0 78 41 39 2 0 48 46 39 53 41 53 31 29 25 23 18 15 11 9 0 38 2 38 9 8 22 \012CALL[ ]	/* CallFunction */";
};
width = 931;
}
);
note = six;
unicode = 0036;
},
{
glyphname = seven;
lastChange = "2021-05-21 11:44:54 +0000";
layers = (
{
layerId = "9A482FC5-A609-4CB4-BB30-47322087609F";
paths = (
{
closed = 1;
nodes = (
"447 0 OFFCURVE",
"451 3 OFFCURVE",
"454 10 CURVE SMOOTH",
"847 1186 LINE",
"847 1415 LINE SMOOTH",
"847 1422 OFFCURVE",
"844 1425 OFFCURVE",
"839 1425 CURVE SMOOTH",
"46 1425 LINE SMOOTH",
"41 1425 OFFCURVE",
"38 1422 OFFCURVE",
"38 1415 CURVE SMOOTH",
"38 1192 LINE SMOOTH",
"38 1187 OFFCURVE",
"41 1184 OFFCURVE",
"46 1184 CURVE SMOOTH",
"605 1184 LINE",
"183 10 LINE SMOOTH",
"180 3 OFFCURVE",
"182 0 OFFCURVE",
"188 0 CURVE SMOOTH",
"441 0 LINE SMOOTH"
);
}
);
userData = {
assembly = "NPUSHB[ ]	/* 28 values pushed */\01215 1 1 2 1 76 0 1 1 2 95 0 2 2 31 77 0 0 0 32 0 78 51 20 16 3 8 25 \012CALL[ ]	/* CallFunction */";
};
width = 905;
}
);
note = seven;
unicode = 0037;
},
{
glyphname = eight;
lastChange = "2021-05-21 11:44:54 +0000";
layers = (
{
layerId = "9A482FC5-A609-4CB4-BB30-47322087609F";
paths = (
{
closed = 1;
nodes = (
"594 -20 OFFCURVE",
"719 59 OFFCURVE",
"792 183 CURVE SMOOTH",
"828 245 OFFCURVE",
"846 313 OFFCURVE",
"846 387 CURVE SMOOTH",
"846 514 LINE SMOOTH",
"846 629 OFFCURVE",
"800 734 OFFCURVE",
"727 807 CURVE",
"787 875 OFFCURVE",
"823 964 OFFCURVE",
"823 1065 CURVE SMOOTH",
"823 1206 OFFCURVE",
"749 1326 OFFCURVE",
"636 1396 CURVE SMOOTH",
"579 1431 OFFCURVE",
"516 1448 OFFCURVE",
"446 1448 CURVE SMOOTH",
"307 1448 OFFCURVE",
"187 1375 OFFCURVE",
"120 1259 CURVE SMOOTH",
"87 1200 OFFCURVE",
"70 1136 OFFCURVE",
"70 1065 CURVE SMOOTH",
"70 964 OFFCURVE",
"106 872 OFFCURVE",
"166 807 CURVE",
"93 731 OFFCURVE",
"45 629 OFFCURVE",
"45 514 CURVE SMOOTH",
"45 387 LINE SMOOTH",
"45 239 OFFCURVE",
"126 111 OFFCURVE",
"247 36 CURVE SMOOTH",
"308 -1 OFFCURVE",
"374 -20 OFFCURVE",
"446 -20 CURVE SMOOTH"
);
},
{
closed = 1;
nodes = (
"375 928 OFFCURVE",
"315 992 OFFCURVE",
"315 1065 CURVE SMOOTH",
"315 1141 OFFCURVE",
"375 1204 OFFCURVE",
"446 1204 CURVE SMOOTH",
"518 1204 OFFCURVE",
"575 1141 OFFCURVE",
"575 1065 CURVE SMOOTH",
"575 989 OFFCURVE",
"518 928 OFFCURVE",
"446 928 CURVE SMOOTH"
);
},
{
closed = 1;
nodes = (
"362 225 OFFCURVE",
"293 300 OFFCURVE",
"293 387 CURVE SMOOTH",
"293 514 LINE SMOOTH",
"293 605 OFFCURVE",
"362 676 OFFCURVE",
"446 676 CURVE SMOOTH",
"531 676 OFFCURVE",
"598 602 OFFCURVE",
"598 514 CURVE SMOOTH",
"598 387 LINE SMOOTH",
"598 296 OFFCURVE",
"531 225 OFFCURVE",
"446 225 CURVE SMOOTH"
);
}
);
userData = {
assembly = "NPUSHB[ ]	/* 66 values pushed */\01223 9 2 5 2 1 76 7 1 2 0 5 4 2 5 105 0 3 3 1 97 0 1 1 40 77 8 1 4 4 0 97 6 1 0 0 38 0 78 46 44 33 31 2 0 53 51 44 58 46 58 39 37 31 43 33 43 17 15 0 30 2 30 9 8 22 \012CALL[ ]	/* CallFunction */";
};
width = 919;
}
);
note = eight;
unicode = 0038;
},
{
glyphname = nine;
lastChange = "2021-05-21 11:44:54 +0000";
layers = (
{
layerId = "9A482FC5-A609-4CB4-BB30-47322087609F";
paths = (
{
closed = 1;
nodes = (
"589 -20 OFFCURVE",
"716 61 OFFCURVE",
"790 187 CURVE SMOOTH",
"827 250 OFFCURVE",
"845 318 OFFCURVE",
"845 393 CURVE SMOOTH",
"843 913 LINE",
"843 1040 LINE SMOOTH",
"843 1188 OFFCURVE",
"762 1319 OFFCURVE",
"641 1393 CURVE SMOOTH",
"580 1430 OFFCURVE",
"514 1448 OFFCURVE",
"441 1448 CURVE SMOOTH",
"297 1448 OFFCURVE",
"169 1368 OFFCURVE",
"97 1245 CURVE SMOOTH",
"60 1184 OFFCURVE",
"42 1115 OFFCURVE",
"42 1040 CURVE SMOOTH",
"42 913 LINE SMOOTH",
"42 764 OFFCURVE",
"121 632 OFFCURVE",
"241 559 CURVE SMOOTH",
"301 522 OFFCURVE",
"368 504 OFFCURVE",
"441 504 CURVE SMOOTH",
"494 504 OFFCURVE",
"546 514 OFFCURVE",
"595 535 CURVE",
"595 393 LINE SMOOTH",
"595 304 OFFCURVE",
"526 229 OFFCURVE",
"441 229 CURVE SMOOTH",
"357 229 OFFCURVE",
"288 304 OFFCURVE",
"288 393 CURVE SMOOTH",
"288 434 LINE SMOOTH",
"288 439 OFFCURVE",
"285 442 OFFCURVE",
"280 442 CURVE SMOOTH",
"50 442 LINE SMOOTH",
"43 442 OFFCURVE",
"40 439 OFFCURVE",
"40 434 CURVE SMOOTH",
"40 393 LINE SMOOTH",
"40 244 OFFCURVE",
"118 111 OFFCURVE",
"241 36 CURVE SMOOTH",
"302 -1 OFFCURVE",
"369 -20 OFFCURVE",
"441 -20 CURVE SMOOTH"
);
},
{
closed = 1;
nodes = (
"357 752 OFFCURVE",
"290 826 OFFCURVE",
"290 913 CURVE SMOOTH",
"290 1040 LINE SMOOTH",
"290 1131 OFFCURVE",
"357 1202 OFFCURVE",
"441 1202 CURVE SMOOTH",
"526 1202 OFFCURVE",
"595 1128 OFFCURVE",
"595 1040 CURVE SMOOTH",
"595 913 LINE SMOOTH",
"595 824 OFFCURVE",
"529 752 OFFCURVE",
"441 752 CURVE SMOOTH"
);
}
);
userData = {
assembly = "NPUSHB[ ]	/* 74 values pushed */\01219 1 3 5 12 1 2 1 2 76 0 1 3 2 3 1 2 128 8 1 5 0 3 1 5 3 105 0 6 6 4 97 0 4 4 40 77 0 2 2 0 97 7 1 0 0 38 0 78 42 40 2 0 49 47 40 54 42 54 31 29 22 20 16 14 9 6 0 39 2 39 9 8 22 \012CALL[ ]	/* CallFunction */";
};
width = 919;
}
);
note = nine;
unicode = 0039;
},
{
glyphname = uni17E0;
lastChange = "2021-05-21 11:44:54 +0000";
layers = (
{
layerId = "9A482FC5-A609-4CB4-BB30-47322087609F";
paths = (
{
closed = 1;
nodes = (
"150 67 OFFCURVE",
"233 0 OFFCURVE",
"400 0 CURVE SMOOTH",
"800 0 LINE SMOOTH",
"967 0 OFFCURVE",
"1050 67 OFFCURVE",
"1050 200 CURVE SMOOTH",
"1050 1300 LINE SMOOTH",
"1050 1433 OFFCURVE",
"967 1500 OFFCURVE",
"800 1500 CURVE SMOOTH",
"400 1500 LINE SMOOTH",
"233 1500 OFFCURVE",
"150 1433 OFFCURVE",
"150 1300 CURVE SMOOTH",
"150 200 LINE SMOOTH"
);
},
{
closed = 1;
nodes = (
"450 1267 OFFCURVE",
"500 1300 OFFCURVE",
"600 1300 CURVE SMOOTH",
"700 1300 OFFCURVE",
"750 1267 OFFCURVE",
"750 1200 CURVE SMOOTH",
"750 300 LINE SMOOTH",
"750 233 OFFCURVE",
"700 200 OFFCURVE",
"600 200 CURVE SMOOTH",
"500 200 OFFCURVE",
"450 233 OFFCURVE",
"450 300 CURVE SMOOTH",
"450 1200 LINE SMOOTH"
);
}
);
width = 1200;
}
);
note = uni17E0;
unicode = 17E0;
},
{
glyphname = uni17E1;
lastChange = "2021-05-21 11:44:54 +0000";
layers = (
{
layerId = "9A482FC5-A609-4CB4-BB30-47322087609F";
paths = (
{
closed = 1;
nodes = (
"750 233 OFFCURVE",
"700 200 OFFCURVE",
"600 200 CURVE SMOOTH",
"400 200 LINE",
"400 0 LINE",
"800 0 LINE SMOOTH",
"967 0 OFFCURVE",
"1050 100 OFFCURVE",
"1050 300 CURVE SMOOTH",
"1050 1300 LINE SMOOTH",
"1050 1433 OFFCURVE",
"967 1500 OFFCURVE",
"800 1500 CURVE SMOOTH",
"400 1500 LINE SMOOTH",
"233 1500 OFFCURVE",
"150 1433 OFFCURVE",
"150 1300 CURVE SMOOTH",
"150 810 LINE SMOOTH",
"150 670 OFFCURVE",
"233 600 OFFCURVE",
"400 600 CURVE SMOOTH",
"600 600 LINE",
"600 800 LINE",
"450 800 LINE",
"450 1200 LINE SMOOTH",
"450 1267 OFFCURVE",
"500 1300 OFFCURVE",
"600 1300 CURVE SMOOTH",
"700 1300 OFFCURVE",
"750 1267 OFFCURVE",
"750 1200 CURVE SMOOTH",
"750 300 LINE SMOOTH"
);
}
);
width = 1200;
}
);
note = uni17E1;
unicode = 17E1;
},
{
glyphname = uni17E2;
lastChange = "2021-05-21 11:44:54 +0000";
layers = (
{
layerId = "9A482FC5-A609-4CB4-BB30-47322087609F";
paths = (
{
closed = 1;
nodes = (
"950 1376 LINE",
"850 1500 LINE",
"550 1500 LINE",
"550 755 LINE",
"900 755 LINE",
"900 950 LINE",
"850 950 LINE",
"850 1232 LINE",
"950 1108 LINE",
"1050 1232 LINE",
"1050 300 LINE SMOOTH",
"1050 233 OFFCURVE",
"1000 200 OFFCURVE",
"900 200 CURVE SMOOTH",
"600 200 LINE SMOOTH",
"500 200 OFFCURVE",
"450 233 OFFCURVE",
"450 300 CURVE SMOOTH",
"450 1600 LINE SMOOTH",
"450 1700 OFFCURVE",
"383 1750 OFFCURVE",
"250 1750 CURVE SMOOTH",
"50 1750 LINE",
"50 1550 LINE",
"117 1550 OFFCURVE",
"150 1517 OFFCURVE",
"150 1450 CURVE SMOOTH",
"150 200 LINE SMOOTH",
"150 67 OFFCURVE",
"233 0 OFFCURVE",
"400 0 CURVE SMOOTH",
"1100 0 LINE SMOOTH",
"1267 0 OFFCURVE",
"1350 67 OFFCURVE",
"1350 200 CURVE SMOOTH",
"1350 1500 LINE",
"1050 1500 LINE"
);
}
);
width = 1500;
}
);
note = uni17E2;
unicode = 17E2;
},
{
glyphname = uni17E3;
lastChange = "2021-05-21 11:44:54 +0000";
layers = (
{
layerId = "9A482FC5-A609-4CB4-BB30-47322087609F";
paths = (
{
closed = 1;
nodes = (
"1050 1267 OFFCURVE",
"1100 1300 OFFCURVE",
"1200 1300 CURVE SMOOTH",
"1300 1300 OFFCURVE",
"1350 1267 OFFCURVE",
"1350 1200 CURVE SMOOTH",
"1350 0 LINE",
"1650 0 LINE",
"1650 1200 LINE SMOOTH",
"1650 1400 OFFCURVE",
"1500 1500 OFFCURVE",
"1200 1500 CURVE SMOOTH",
"1073 1500 OFFCURVE",
"973 1482 OFFCURVE",
"900 1446 CURVE",
"827 1482 OFFCURVE",
"727 1500 OFFCURVE",
"600 1500 CURVE SMOOTH",
"300 1500 OFFCURVE",
"150 1400 OFFCURVE",
"150 1200 CURVE SMOOTH",
"150 100 LINE SMOOTH",
"150 33 OFFCURVE",
"200 0 OFFCURVE",
"300 0 CURVE SMOOTH",
"450 0 LINE SMOOTH",
"550 0 OFFCURVE",
"600 33 OFFCURVE",
"600 100 CURVE SMOOTH",
"600 200 LINE SMOOTH",
"600 267 OFFCURVE",
"550 300 OFFCURVE",
"450 300 CURVE",
"450 1200 LINE SMOOTH",
"450 1267 OFFCURVE",
"500 1300 OFFCURVE",
"600 1300 CURVE SMOOTH",
"700 1300 OFFCURVE",
"750 1267 OFFCURVE",
"750 1200 CURVE SMOOTH",
"750 0 LINE",
"1050 0 LINE",
"1050 1200 LINE SMOOTH"
);
}
);
width = 1800;
}
);
note = uni17E3;
unicode = 17E3;
},
{
glyphname = uni17E4;
lastChange = "2021-05-21 11:44:54 +0000";
layers = (
{
layerId = "9A482FC5-A609-4CB4-BB30-47322087609F";
paths = (
{
closed = 1;
nodes = (
"450 1700 OFFCURVE",
"383 1750 OFFCURVE",
"250 1750 CURVE SMOOTH",
"50 1750 LINE",
"50 1550 LINE",
"117 1550 OFFCURVE",
"150 1517 OFFCURVE",
"150 1450 CURVE SMOOTH",
"150 250 LINE SMOOTH",
"150 83 OFFCURVE",
"250 0 OFFCURVE",
"450 0 CURVE SMOOTH",
"1050 0 LINE",
"1050 200 LINE",
"900 348 LINE",
"900 800 LINE",
"1050 800 LINE",
"1050 1000 LINE",
"800 1000 LINE SMOOTH",
"667 1000 OFFCURVE",
"600 900 OFFCURVE",
"600 800 CURVE SMOOTH",
"600 398 LINE",
"780 200 LINE",
"630 200 LINE SMOOTH",
"510 200 OFFCURVE",
"450 250 OFFCURVE",
"450 350 CURVE SMOOTH",
"450 1600 LINE SMOOTH"
);
}
);
width = 1200;
}
);
note = uni17E4;
unicode = 17E4;
},
{
glyphname = uni17E5;
lastChange = "2021-05-21 11:44:54 +0000";
layers = (
{
layerId = "9A482FC5-A609-4CB4-BB30-47322087609F";
paths = (
{
closed = 1;
nodes = (
"150 167 OFFCURVE",
"175 104 OFFCURVE",
"225 63 CURVE SMOOTH",
"275 21 OFFCURVE",
"350 0 OFFCURVE",
"450 0 CURVE SMOOTH",
"1050 0 LINE",
"1050 200 LINE",
"900 348 LINE",
"900 750 LINE",
"1050 750 LINE",
"1050 950 LINE",
"800 950 LINE SMOOTH",
"667 950 OFFCURVE",
"600 850 OFFCURVE",
"600 750 CURVE SMOOTH",
"600 398 LINE",
"790 200 LINE",
"600 200 LINE SMOOTH",
"500 200 OFFCURVE",
"450 250 OFFCURVE",
"450 350 CURVE SMOOTH",
"450 1150 LINE",
"850 1150 LINE SMOOTH",
"983 1150 OFFCURVE",
"1050 1217 OFFCURVE",
"1050 1350 CURVE SMOOTH",
"1050 1700 LINE",
"750 1700 LINE",
"750 1450 LINE SMOOTH",
"750 1383 OFFCURVE",
"717 1350 OFFCURVE",
"650 1350 CURVE SMOOTH",
"500 1350 LINE",
"500 1400 LINE SMOOTH",
"500 1533 OFFCURVE",
"442 1600 OFFCURVE",
"325 1600 CURVE SMOOTH",
"208 1600 OFFCURVE",
"150 1533 OFFCURVE",
"150 1400 CURVE SMOOTH",
"150 1331 OFFCURVE",
"191 1262 OFFCURVE",
"263 1227 CURVE SMOOTH",
"282 1218 OFFCURVE",
"300 1211 OFFCURVE",
"319 1206 CURVE",
"150 1100 LINE",
"150 250 LINE SMOOTH"
);
}
);
width = 1200;
}
);
note = uni17E5;
unicode = 17E5;
},
{
glyphname = uni17E6;
lastChange = "2021-05-21 11:44:54 +0000";
layers = (
{
layerId = "9A482FC5-A609-4CB4-BB30-47322087609F";
paths = (
{
closed = 1;
nodes = (
"1050 1433 OFFCURVE",
"967 1500 OFFCURVE",
"800 1500 CURVE SMOOTH",
"450 1500 LINE",
"450 1850 LINE",
"150 1850 LINE",
"150 1200 LINE",
"450 1200 LINE",
"450 1267 OFFCURVE",
"500 1300 OFFCURVE",
"600 1300 CURVE SMOOTH",
"700 1300 OFFCURVE",
"750 1267 OFFCURVE",
"750 1200 CURVE SMOOTH",
"750 300 LINE SMOOTH",
"750 233 OFFCURVE",
"700 200 OFFCURVE",
"600 200 CURVE SMOOTH",
"500 200 OFFCURVE",
"450 233 OFFCURVE",
"450 300 CURVE SMOOTH",
"450 700 LINE",
"600 700 LINE",
"600 900 LINE",
"400 900 LINE SMOOTH",
"233 900 OFFCURVE",
"150 830 OFFCURVE",
"150 690 CURVE SMOOTH",
"150 200 LINE SMOOTH",
"150 67 OFFCURVE",
"233 0 OFFCURVE",
"400 0 CURVE SMOOTH",
"800 0 LINE SMOOTH",
"967 0 OFFCURVE",
"1050 67 OFFCURVE",
"1050 200 CURVE SMOOTH",
"1050 1300 LINE SMOOTH"
);
}
);
width = 1200;
}
);
note = uni17E6;
unicode = 17E6;
},
{
glyphname = uni17E7;
lastChange = "2021-05-21 11:44:54 +0000";
layers = (
{
layerId = "9A482FC5-A609-4CB4-BB30-47322087609F";
paths = (
{
closed = 1;
nodes = (
"1050 1467 OFFCURVE",
"1001 1500 OFFCURVE",
"903 1500 CURVE SMOOTH",
"750 1500 LINE",
"600 1354 LINE",
"450 1500 LINE",
"297 1500 LINE SMOOTH",
"199 1500 OFFCURVE",
"150 1467 OFFCURVE",
"150 1400 CURVE SMOOTH",
"150 100 LINE SMOOTH",
"150 33 OFFCURVE",
"200 0 OFFCURVE",
"300 0 CURVE SMOOTH",
"450 0 LINE SMOOTH",
"550 0 OFFCURVE",
"600 33 OFFCURVE",
"600 100 CURVE SMOOTH",
"600 200 LINE SMOOTH",
"600 267 OFFCURVE",
"550 300 OFFCURVE",
"450 300 CURVE",
"450 1207 LINE",
"600 1061 LINE",
"750 1207 LINE",
"750 200 LINE SMOOTH",
"750 67 OFFCURVE",
"833 0 OFFCURVE",
"1000 0 CURVE SMOOTH",
"1250 0 LINE SMOOTH",
"1417 0 OFFCURVE",
"1500 67 OFFCURVE",
"1500 200 CURVE SMOOTH",
"1500 1800 LINE",
"1200 1800 LINE",
"1200 300 LINE SMOOTH",
"1200 233 OFFCURVE",
"1175 200 OFFCURVE",
"1125 200 CURVE SMOOTH",
"1075 200 OFFCURVE",
"1050 233 OFFCURVE",
"1050 300 CURVE SMOOTH",
"1050 1400 LINE SMOOTH"
);
}
);
width = 1650;
}
);
note = uni17E7;
unicode = 17E7;
},
{
glyphname = uni17E8;
lastChange = "2021-05-21 11:44:54 +0000";
layers = (
{
layerId = "9A482FC5-A609-4CB4-BB30-47322087609F";
paths = (
{
closed = 1;
nodes = (
"150 33 OFFCURVE",
"199 0 OFFCURVE",
"297 0 CURVE SMOOTH",
"450 0 LINE",
"600 146 LINE",
"750 0 LINE",
"903 0 LINE SMOOTH",
"1001 0 OFFCURVE",
"1050 33 OFFCURVE",
"1050 100 CURVE SMOOTH",
"1050 800 LINE SMOOTH",
"1050 900 OFFCURVE",
"1006 950 OFFCURVE",
"917 950 CURVE SMOOTH",
"750 950 LINE SMOOTH",
"698 950 OFFCURVE",
"647 922 OFFCURVE",
"620 875 CURVE SMOOTH",
"607 851 OFFCURVE",
"600 826 OFFCURVE",
"600 800 CURVE SMOOTH",
"600 748 OFFCURVE",
"629 696 OFFCURVE",
"677 670 CURVE SMOOTH",
"700 657 OFFCURVE",
"725 650 OFFCURVE",
"750 650 CURVE",
"750 293 LINE",
"600 439 LINE",
"450 293 LINE",
"450 1200 LINE SMOOTH",
"450 1267 OFFCURVE",
"500 1300 OFFCURVE",
"600 1300 CURVE SMOOTH",
"700 1300 OFFCURVE",
"750 1267 OFFCURVE",
"750 1200 CURVE",
"1050 1200 LINE",
"1050 1850 LINE",
"750 1850 LINE",
"750 1500 LINE",
"400 1500 LINE SMOOTH",
"233 1500 OFFCURVE",
"150 1433 OFFCURVE",
"150 1300 CURVE SMOOTH",
"150 100 LINE SMOOTH"
);
}
);
width = 1200;
}
);
note = uni17E8;
unicode = 17E8;
},
{
glyphname = uni17E9;
lastChange = "2021-05-21 11:44:54 +0000";
layers = (
{
layerId = "9A482FC5-A609-4CB4-BB30-47322087609F";
paths = (
{
closed = 1;
nodes = (
"500 1050 OFFCURVE",
"450 1083 OFFCURVE",
"450 1150 CURVE SMOOTH",
"450 1200 LINE SMOOTH",
"450 1267 OFFCURVE",
"500 1300 OFFCURVE",
"600 1300 CURVE SMOOTH",
"700 1300 OFFCURVE",
"750 1267 OFFCURVE",
"750 1200 CURVE",
"1050 1200 LINE",
"1050 1850 LINE",
"750 1850 LINE",
"750 1500 LINE",
"400 1500 LINE SMOOTH",
"233 1500 OFFCURVE",
"150 1433 OFFCURVE",
"150 1300 CURVE SMOOTH",
"150 1050 LINE",
"176 998 OFFCURVE",
"212 956 OFFCURVE",
"258 925 CURVE",
"212 894 OFFCURVE",
"176 852 OFFCURVE",
"150 800 CURVE",
"150 200 LINE SMOOTH",
"150 67 OFFCURVE",
"233 0 OFFCURVE",
"400 0 CURVE SMOOTH",
"800 0 LINE SMOOTH",
"967 0 OFFCURVE",
"1050 67 OFFCURVE",
"1050 200 CURVE SMOOTH",
"1050 500 LINE SMOOTH",
"1050 600 OFFCURVE",
"989 650 OFFCURVE",
"867 650 CURVE SMOOTH",
"750 650 LINE SMOOTH",
"698 650 OFFCURVE",
"647 622 OFFCURVE",
"620 575 CURVE SMOOTH",
"607 551 OFFCURVE",
"600 526 OFFCURVE",
"600 500 CURVE SMOOTH",
"600 448 OFFCURVE",
"629 396 OFFCURVE",
"677 370 CURVE SMOOTH",
"700 357 OFFCURVE",
"725 350 OFFCURVE",
"750 350 CURVE",
"750 300 LINE SMOOTH",
"750 233 OFFCURVE",
"700 200 OFFCURVE",
"600 200 CURVE SMOOTH",
"500 200 OFFCURVE",
"450 233 OFFCURVE",
"450 300 CURVE SMOOTH",
"450 700 LINE SMOOTH",
"450 767 OFFCURVE",
"500 800 OFFCURVE",
"600 800 CURVE SMOOTH",
"900 800 LINE",
"900 1050 LINE",
"600 1050 LINE SMOOTH"
);
}
);
width = 1200;
}
);
note = uni17E9;
unicode = 17E9;
},
{
glyphname = period;
lastChange = "2021-05-21 11:44:54 +0000";
layers = (
{
layerId = "9A482FC5-A609-4CB4-BB30-47322087609F";
paths = (
{
closed = 1;
nodes = (
"326 0 OFFCURVE",
"329 3 OFFCURVE",
"329 8 CURVE SMOOTH",
"329 240 LINE SMOOTH",
"329 245 OFFCURVE",
"326 248 OFFCURVE",
"321 248 CURVE SMOOTH",
"89 248 LINE SMOOTH",
"84 248 OFFCURVE",
"81 245 OFFCURVE",
"81 240 CURVE SMOOTH",
"81 8 LINE SMOOTH",
"81 3 OFFCURVE",
"84 0 OFFCURVE",
"89 0 CURVE SMOOTH",
"321 0 LINE SMOOTH"
);
}
);
userData = {
assembly = "NPUSHB[ ]	/* 23 values pushed */\0120 1 1 0 95 2 1 0 0 32 0 78 1 0 8 5 0 12 1 11 3 8 22 \012CALL[ ]	/* CallFunction */";
};
width = 415;
}
);
note = period;
unicode = 002E;
},
{
glyphname = comma;
lastChange = "2021-05-21 11:44:54 +0000";
layers = (
{
layerId = "9A482FC5-A609-4CB4-BB30-47322087609F";
paths = (
{
closed = 1;
nodes = (
"169 -258 OFFCURVE",
"247 -210 OFFCURVE",
"294 -131 CURVE SMOOTH",
"317 -92 OFFCURVE",
"329 -48 OFFCURVE",
"329 0 CURVE SMOOTH",
"329 238 LINE SMOOTH",
"329 243 OFFCURVE",
"326 246 OFFCURVE",
"321 246 CURVE SMOOTH",
"89 246 LINE SMOOTH",
"84 246 OFFCURVE",
"81 243 OFFCURVE",
"81 238 CURVE SMOOTH",
"81 8 LINE SMOOTH",
"81 3 OFFCURVE",
"84 0 OFFCURVE",
"89 0 CURVE SMOOTH",
"204 0 LINE",
"204 -71 OFFCURVE",
"149 -131 OFFCURVE",
"81 -131 CURVE",
"81 -258 LINE"
);
}
);
userData = {
assembly = "NPUSHB[ ]	/* 31 values pushed */\0120 0 4 1 3 0 3 101 0 2 2 1 95 0 1 1 32 1 78 0 0 0 18 0 18 51 18 18 5 8 25 \012CALL[ ]	/* CallFunction */";
};
width = 415;
}
);
note = comma;
unicode = 002C;
},
{
glyphname = colon;
lastChange = "2021-05-21 11:44:54 +0000";
layers = (
{
layerId = "9A482FC5-A609-4CB4-BB30-47322087609F";
paths = (
{
closed = 1;
nodes = (
"326 608 OFFCURVE",
"329 611 OFFCURVE",
"329 616 CURVE SMOOTH",
"329 848 LINE SMOOTH",
"329 853 OFFCURVE",
"326 856 OFFCURVE",
"321 856 CURVE SMOOTH",
"89 856 LINE SMOOTH",
"84 856 OFFCURVE",
"81 853 OFFCURVE",
"81 848 CURVE SMOOTH",
"81 616 LINE SMOOTH",
"81 611 OFFCURVE",
"84 608 OFFCURVE",
"89 608 CURVE SMOOTH",
"321 608 LINE SMOOTH"
);
},
{
closed = 1;
nodes = (
"326 0 OFFCURVE",
"329 3 OFFCURVE",
"329 8 CURVE SMOOTH",
"329 240 LINE SMOOTH",
"329 245 OFFCURVE",
"326 248 OFFCURVE",
"321 248 CURVE SMOOTH",
"89 248 LINE SMOOTH",
"84 248 OFFCURVE",
"81 245 OFFCURVE",
"81 240 CURVE SMOOTH",
"81 8 LINE SMOOTH",
"81 3 OFFCURVE",
"84 0 OFFCURVE",
"89 0 CURVE SMOOTH",
"321 0 LINE SMOOTH"
);
}
);
userData = {
assembly = "NPUSHB[ ]	/* 40 values pushed */\0120 1 4 1 0 3 1 0 103 0 3 3 2 95 5 1 2 2 32 2 78 14 13 1 0 21 18 13 25 14 24 8 5 0 12 1 11 6 8 22 \012CALL[ ]	/* CallFunction */";
};
width = 415;
}
);
note = colon;
unicode = 003A;
},
{
glyphname = semicolon;
lastChange = "2021-05-21 11:44:54 +0000";
layers = (
{
layerId = "9A482FC5-A609-4CB4-BB30-47322087609F";
paths = (
{
closed = 1;
nodes = (
"326 608 OFFCURVE",
"329 611 OFFCURVE",
"329 616 CURVE SMOOTH",
"329 848 LINE SMOOTH",
"329 853 OFFCURVE",
"326 856 OFFCURVE",
"321 856 CURVE SMOOTH",
"89 856 LINE SMOOTH",
"84 856 OFFCURVE",
"81 853 OFFCURVE",
"81 848 CURVE SMOOTH",
"81 616 LINE SMOOTH",
"81 611 OFFCURVE",
"84 608 OFFCURVE",
"89 608 CURVE SMOOTH",
"321 608 LINE SMOOTH"
);
},
{
closed = 1;
nodes = (
"169 -258 OFFCURVE",
"247 -210 OFFCURVE",
"294 -131 CURVE SMOOTH",
"317 -92 OFFCURVE",
"329 -48 OFFCURVE",
"329 0 CURVE SMOOTH",
"329 238 LINE SMOOTH",
"329 243 OFFCURVE",
"326 246 OFFCURVE",
"321 246 CURVE SMOOTH",
"89 246 LINE SMOOTH",
"84 246 OFFCURVE",
"81 243 OFFCURVE",
"81 238 CURVE SMOOTH",
"81 8 LINE SMOOTH",
"81 3 OFFCURVE",
"84 0 OFFCURVE",
"89 0 CURVE SMOOTH",
"204 0 LINE",
"204 -71 OFFCURVE",
"149 -131 OFFCURVE",
"81 -131 CURVE",
"81 -258 LINE"
);
}
);
userData = {
assembly = "NPUSHB[ ]	/* 51 values pushed */\0120 1 6 1 0 4 1 0 103 0 2 7 1 5 2 5 101 0 4 4 3 95 0 3 3 32 3 78 13 13 1 0 13 31 13 31 25 22 19 18 16 15 8 5 0 12 1 11 8 8 22 \012CALL[ ]	/* CallFunction */";
};
width = 415;
}
);
note = semicolon;
unicode = 003B;
},
{
glyphname = exclam;
lastChange = "2021-05-21 11:44:54 +0000";
layers = (
{
layerId = "9A482FC5-A609-4CB4-BB30-47322087609F";
paths = (
{
closed = 1;
nodes = (
"279 377 OFFCURVE",
"283 380 OFFCURVE",
"284 387 CURVE SMOOTH",
"327 858 LINE",
"329 1415 LINE SMOOTH",
"329 1422 OFFCURVE",
"326 1425 OFFCURVE",
"319 1425 CURVE SMOOTH",
"89 1425 LINE SMOOTH",
"84 1425 OFFCURVE",
"81 1422 OFFCURVE",
"81 1415 CURVE SMOOTH",
"81 858 LINE",
"124 387 LINE SMOOTH",
"125 380 OFFCURVE",
"129 377 OFFCURVE",
"134 377 CURVE SMOOTH",
"274 377 LINE SMOOTH"
);
},
{
closed = 1;
nodes = (
"324 0 OFFCURVE",
"327 3 OFFCURVE",
"327 10 CURVE SMOOTH",
"327 233 LINE SMOOTH",
"327 239 OFFCURVE",
"324 242 OFFCURVE",
"319 242 CURVE SMOOTH",
"89 242 LINE SMOOTH",
"84 242 OFFCURVE",
"81 239 OFFCURVE",
"81 233 CURVE SMOOTH",
"81 10 LINE SMOOTH",
"81 3 OFFCURVE",
"84 0 OFFCURVE",
"89 0 CURVE SMOOTH",
"319 0 LINE SMOOTH"
);
}
);
userData = {
assembly = "NPUSHB[ ]	/* 43 values pushed */\01212 11 5 3 0 1 1 76 0 0 0 1 95 0 1 1 31 77 0 3 3 2 95 4 1 2 2 32 2 78 16 15 23 20 15 27 16 26 53 16 5 8 24 \012CALL[ ]	/* CallFunction */";
};
width = 415;
}
);
note = exclam;
unicode = 0021;
},
{
glyphname = question;
lastChange = "2021-05-21 11:44:54 +0000";
layers = (
{
layerId = "9A482FC5-A609-4CB4-BB30-47322087609F";
paths = (
{
closed = 1;
nodes = (
"549 377 OFFCURVE",
"552 380 OFFCURVE",
"552 385 CURVE SMOOTH",
"552 483 LINE SMOOTH",
"552 548 OFFCURVE",
"578 597 OFFCURVE",
"646 666 CURVE",
"747 778 OFFCURVE",
"795 845 OFFCURVE",
"815 915 CURVE SMOOTH",
"824 950 OFFCURVE",
"829 989 OFFCURVE",
"829 1034 CURVE SMOOTH",
"829 1187 OFFCURVE",
"752 1319 OFFCURVE",
"631 1393 CURVE SMOOTH",
"570 1430 OFFCURVE",
"503 1448 OFFCURVE",
"429 1448 CURVE SMOOTH",
"282 1448 OFFCURVE",
"155 1368 OFFCURVE",
"83 1243 CURVE SMOOTH",
"46 1180 OFFCURVE",
"28 1111 OFFCURVE",
"28 1034 CURVE SMOOTH",
"28 885 LINE SMOOTH",
"28 880 OFFCURVE",
"31 877 OFFCURVE",
"36 877 CURVE SMOOTH",
"268 877 LINE SMOOTH",
"273 877 OFFCURVE",
"276 880 OFFCURVE",
"276 885 CURVE SMOOTH",
"276 1034 LINE SMOOTH",
"276 1130 OFFCURVE",
"342 1202 OFFCURVE",
"429 1202 CURVE SMOOTH",
"517 1202 OFFCURVE",
"581 1130 OFFCURVE",
"581 1034 CURVE SMOOTH",
"581 982 OFFCURVE",
"575 949 OFFCURVE",
"536 904 CURVE SMOOTH",
"517 881 OFFCURVE",
"487 850 OFFCURVE",
"446 809 CURVE SMOOTH",
"358 721 OFFCURVE",
"304 605 OFFCURVE",
"304 496 CURVE SMOOTH",
"304 385 LINE SMOOTH",
"304 380 OFFCURVE",
"308 377 OFFCURVE",
"315 377 CURVE SMOOTH",
"542 377 LINE SMOOTH"
);
},
{
closed = 1;
nodes = (
"549 0 OFFCURVE",
"552 3 OFFCURVE",
"552 10 CURVE SMOOTH",
"552 238 LINE SMOOTH",
"552 243 OFFCURVE",
"549 246 OFFCURVE",
"542 246 CURVE SMOOTH",
"315 246 LINE SMOOTH",
"308 246 OFFCURVE",
"304 243 OFFCURVE",
"304 238 CURVE SMOOTH",
"304 10 LINE SMOOTH",
"304 3 OFFCURVE",
"308 0 OFFCURVE",
"315 0 CURVE SMOOTH",
"542 0 LINE SMOOTH"
);
}
);
userData = {
assembly = "NPUSHB[ ]	/* 67 values pushed */\0125 1 0 2 54 47 2 4 5 2 76 0 2 1 0 1 2 0 128 6 1 0 5 1 0 5 126 0 1 1 3 97 0 3 3 40 77 0 5 5 4 95 0 4 4 32 4 78 1 0 51 48 44 43 30 28 22 19 16 14 0 42 1 41 7 8 22 \012CALL[ ]	/* CallFunction */";
};
width = 890;
}
);
note = question;
unicode = 003F;
},
{
glyphname = asterisk;
lastChange = "2021-05-21 11:44:54 +0000";
layers = (
{
layerId = "9A482FC5-A609-4CB4-BB30-47322087609F";
paths = (
{
closed = 1;
nodes = (
"417 1423 LINE",
"266 1423 LINE",
"276 1235 LINE",
"145 1335 LINE",
"55 1217 LINE",
"227 1110 LINE",
"57 1006 LINE",
"145 887 LINE",
"274 987 LINE",
"266 809 LINE",
"415 809 LINE",
"407 989 LINE",
"536 891 LINE",
"626 1010 LINE",
"456 1112 LINE",
"626 1212 LINE",
"538 1331 LINE",
"405 1235 LINE"
);
}
);
userData = {
assembly = "NPUSHB[ ]	/* 34 values pushed */\01217 16 13 12 11 10 9 8 7 4 3 2 1 13 0 1 1 76 0 0 0 1 95 0 1 1 31 0 78 24 21 2 8 24 \012CALL[ ]	/* CallFunction */";
};
width = 720;
}
);
note = asterisk;
unicode = 002A;
},
{
glyphname = numbersign;
lastChange = "2021-05-21 11:44:54 +0000";
layers = (
{
layerId = "9A482FC5-A609-4CB4-BB30-47322087609F";
paths = (
{
closed = 1;
nodes = (
"382 406 OFFCURVE",
"385 409 OFFCURVE",
"385 416 CURVE SMOOTH",
"385 616 LINE",
"573 616 LINE",
"573 416 LINE SMOOTH",
"573 409 OFFCURVE",
"577 406 OFFCURVE",
"584 406 CURVE SMOOTH",
"762 406 LINE SMOOTH",
"765 406 OFFCURVE",
"766 409 OFFCURVE",
"766 416 CURVE SMOOTH",
"766 616 LINE",
"903 616 LINE SMOOTH",
"910 616 OFFCURVE",
"913 620 OFFCURVE",
"913 627 CURVE SMOOTH",
"913 788 LINE SMOOTH",
"913 797 OFFCURVE",
"910 801 OFFCURVE",
"903 801 CURVE SMOOTH",
"766 801 LINE",
"766 1028 LINE",
"903 1028 LINE SMOOTH",
"910 1028 OFFCURVE",
"913 1032 OFFCURVE",
"913 1040 CURVE SMOOTH",
"913 1208 LINE SMOOTH",
"913 1214 OFFCURVE",
"910 1217 OFFCURVE",
"903 1217 CURVE SMOOTH",
"766 1217 LINE",
"766 1421 LINE SMOOTH",
"766 1424 OFFCURVE",
"765 1425 OFFCURVE",
"762 1425 CURVE SMOOTH",
"582 1425 LINE SMOOTH",
"576 1425 OFFCURVE",
"573 1422 OFFCURVE",
"573 1417 CURVE SMOOTH",
"573 1217 LINE",
"385 1217 LINE",
"385 1417 LINE SMOOTH",
"385 1422 OFFCURVE",
"384 1425 OFFCURVE",
"381 1425 CURVE SMOOTH",
"201 1425 LINE SMOOTH",
"197 1425 OFFCURVE",
"195 1422 OFFCURVE",
"195 1417 CURVE SMOOTH",
"195 1217 LINE",
"55 1217 LINE SMOOTH",
"47 1217 OFFCURVE",
"43 1213 OFFCURVE",
"43 1206 CURVE SMOOTH",
"43 1040 LINE SMOOTH",
"43 1032 OFFCURVE",
"47 1028 OFFCURVE",
"55 1028 CURVE SMOOTH",
"195 1028 LINE",
"195 801 LINE",
"55 801 LINE SMOOTH",
"47 801 OFFCURVE",
"43 792 OFFCURVE",
"43 788 CURVE SMOOTH",
"43 627 LINE SMOOTH",
"43 620 OFFCURVE",
"47 616 OFFCURVE",
"55 616 CURVE SMOOTH",
"195 616 LINE",
"195 416 LINE SMOOTH",
"195 409 OFFCURVE",
"198 406 OFFCURVE",
"205 406 CURVE SMOOTH",
"377 406 LINE SMOOTH"
);
},
{
closed = 1;
nodes = (
"385 1028 LINE",
"573 1028 LINE",
"573 801 LINE",
"385 801 LINE"
);
}
);
userData = {
assembly = "NPUSHB[ ]	/* 97 values pushed */\01240 18 17 3 3 4 48 47 9 8 4 1 2 57 4 2 0 1 3 76 8 6 2 4 14 9 2 3 2 4 3 103 15 10 2 2 13 11 2 1 0 2 1 103 12 16 2 0 0 5 95 7 1 5 5 31 0 78 1 0 65 64 63 62 59 58 55 52 51 50 45 44 43 42 37 36 33 30 29 28 25 22 21 20 15 14 13 12 6 5 0 61 1 60 17 8 22 \012CALL[ ]	/* CallFunction */";
};
width = 970;
}
);
note = numbersign;
unicode = 0023;
},
{
glyphname = slash;
lastChange = "2021-05-21 11:44:54 +0000";
layers = (
{
layerId = "9A482FC5-A609-4CB4-BB30-47322087609F";
paths = (
{
closed = 1;
nodes = (
"285 0 OFFCURVE",
"289 3 OFFCURVE",
"290 10 CURVE SMOOTH",
"548 1417 LINE SMOOTH",
"549 1422 OFFCURVE",
"547 1425 OFFCURVE",
"540 1425 CURVE SMOOTH",
"327 1425 LINE SMOOTH",
"322 1425 OFFCURVE",
"318 1422 OFFCURVE",
"317 1417 CURVE SMOOTH",
"63 10 LINE SMOOTH",
"62 3 OFFCURVE",
"64 0 OFFCURVE",
"71 0 CURVE SMOOTH",
"280 0 LINE SMOOTH"
);
}
);
userData = {
assembly = "NPUSHB[ ]	/* 16 values pushed */\0120 1 1 31 77 0 0 0 32 0 78 52 16 2 8 24 \012CALL[ ]	/* CallFunction */";
};
width = 612;
}
);
note = slash;
unicode = 002F;
},
{
glyphname = backslash;
lastChange = "2021-05-21 11:44:54 +0000";
layers = (
{
layerId = "9A482FC5-A609-4CB4-BB30-47322087609F";
paths = (
{
closed = 1;
nodes = (
"551 0 OFFCURVE",
"554 3 OFFCURVE",
"553 10 CURVE SMOOTH",
"294 1417 LINE SMOOTH",
"293 1422 OFFCURVE",
"289 1425 OFFCURVE",
"284 1425 CURVE SMOOTH",
"71 1425 LINE SMOOTH",
"64 1425 OFFCURVE",
"62 1422 OFFCURVE",
"63 1417 CURVE SMOOTH",
"319 10 LINE SMOOTH",
"320 3 OFFCURVE",
"324 0 OFFCURVE",
"329 0 CURVE SMOOTH",
"544 0 LINE SMOOTH"
);
}
);
userData = {
assembly = "NPUSHB[ ]	/* 23 values pushed */\0120 1 1 31 77 2 1 0 0 32 0 78 1 0 8 5 0 12 1 11 3 8 22 \012CALL[ ]	/* CallFunction */";
};
width = 616;
}
);
note = backslash;
unicode = 005C;
},
{
glyphname = parenleft;
lastChange = "2021-05-21 11:44:54 +0000";
layers = (
{
layerId = "9A482FC5-A609-4CB4-BB30-47322087609F";
paths = (
{
closed = 1;
nodes = (
"582 -20 OFFCURVE",
"585 -17 OFFCURVE",
"585 -12 CURVE SMOOTH",
"583 219 LINE SMOOTH",
"583 224 OFFCURVE",
"580 227 OFFCURVE",
"573 227 CURVE SMOOTH",
"462 227 LINE",
"386 235 OFFCURVE",
"321 307 OFFCURVE",
"321 391 CURVE SMOOTH",
"321 1040 LINE SMOOTH",
"321 1128 OFFCURVE",
"383 1200 OFFCURVE",
"462 1200 CURVE SMOOTH",
"579 1200 LINE SMOOTH",
"586 1200 OFFCURVE",
"589 1203 OFFCURVE",
"589 1208 CURVE SMOOTH",
"589 1440 LINE SMOOTH",
"589 1445 OFFCURVE",
"586 1448 OFFCURVE",
"579 1448 CURVE SMOOTH",
"464 1448 LINE SMOOTH",
"323 1443 OFFCURVE",
"198 1361 OFFCURVE",
"129 1240 CURVE SMOOTH",
"94 1179 OFFCURVE",
"77 1113 OFFCURVE",
"77 1040 CURVE SMOOTH",
"75 391 LINE SMOOTH",
"75 244 OFFCURVE",
"152 115 OFFCURVE",
"270 40 CURVE SMOOTH",
"329 3 OFFCURVE",
"393 -17 OFFCURVE",
"464 -20 CURVE SMOOTH",
"575 -20 LINE SMOOTH"
);
}
);
userData = {
assembly = "NPUSHB[ ]	/* 37 values pushed */\0120 2 2 1 97 0 1 1 40 77 0 3 3 0 97 4 1 0 0 38 0 78 3 0 27 26 20 16 13 10 0 31 3 30 5 8 22 \012CALL[ ]	/* CallFunction */";
};
width = 667;
}
);
note = parenleft;
unicode = 0028;
},
{
glyphname = parenright;
lastChange = "2021-05-21 11:44:54 +0000";
layers = (
{
layerId = "9A482FC5-A609-4CB4-BB30-47322087609F";
paths = (
{
closed = 1;
nodes = (
"344 -15 OFFCURVE",
"467 65 OFFCURVE",
"538 189 CURVE SMOOTH",
"573 250 OFFCURVE",
"591 318 OFFCURVE",
"591 391 CURVE SMOOTH",
"589 1040 LINE SMOOTH",
"589 1185 OFFCURVE",
"515 1312 OFFCURVE",
"397 1388 CURVE SMOOTH",
"338 1425 OFFCURVE",
"273 1445 OFFCURVE",
"202 1448 CURVE SMOOTH",
"87 1448 LINE SMOOTH",
"80 1448 OFFCURVE",
"77 1445 OFFCURVE",
"77 1440 CURVE SMOOTH",
"77 1208 LINE SMOOTH",
"77 1203 OFFCURVE",
"80 1200 OFFCURVE",
"87 1200 CURVE SMOOTH",
"200 1200 LINE SMOOTH",
"284 1200 OFFCURVE",
"345 1128 OFFCURVE",
"345 1040 CURVE SMOOTH",
"345 391 LINE SMOOTH",
"345 307 OFFCURVE",
"281 235 OFFCURVE",
"200 227 CURVE",
"91 227 LINE SMOOTH",
"84 227 OFFCURVE",
"81 224 OFFCURVE",
"81 219 CURVE SMOOTH",
"81 -12 LINE SMOOTH",
"81 -17 OFFCURVE",
"84 -20 OFFCURVE",
"91 -20 CURVE SMOOTH",
"200 -20 LINE SMOOTH"
);
}
);
userData = {
assembly = "NPUSHB[ ]	/* 37 values pushed */\0120 2 2 3 97 0 3 3 40 77 0 1 1 0 97 4 1 0 0 38 0 78 1 0 24 19 16 14 8 5 0 31 1 31 5 8 22 \012CALL[ ]	/* CallFunction */";
};
width = 667;
}
);
note = parenright;
unicode = 0029;
},
{
glyphname = braceleft;
lastChange = "2021-05-21 11:44:54 +0000";
layers = (
{
layerId = "9A482FC5-A609-4CB4-BB30-47322087609F";
paths = (
{
closed = 1;
nodes = (
"750 0 OFFCURVE",
"753 3 OFFCURVE",
"753 8 CURVE SMOOTH",
"753 231 LINE SMOOTH",
"753 237 OFFCURVE",
"750 240 OFFCURVE",
"743 240 CURVE SMOOTH",
"460 240 LINE",
"460 1186 LINE",
"743 1186 LINE SMOOTH",
"750 1186 OFFCURVE",
"753 1189 OFFCURVE",
"753 1194 CURVE SMOOTH",
"753 1417 LINE SMOOTH",
"753 1422 OFFCURVE",
"750 1425 OFFCURVE",
"743 1425 CURVE SMOOTH",
"231 1425 LINE SMOOTH",
"226 1425 OFFCURVE",
"223 1422 OFFCURVE",
"223 1417 CURVE SMOOTH",
"223 848 LINE",
"24 848 LINE SMOOTH",
"17 848 OFFCURVE",
"14 845 OFFCURVE",
"14 840 CURVE SMOOTH",
"14 616 LINE SMOOTH",
"14 611 OFFCURVE",
"17 608 OFFCURVE",
"24 608 CURVE SMOOTH",
"223 608 LINE",
"223 8 LINE SMOOTH",
"223 3 OFFCURVE",
"226 0 OFFCURVE",
"231 0 CURVE SMOOTH",
"743 0 LINE SMOOTH"
);
}
);
userData = {
assembly = "NPUSHB[ ]	/* 49 values pushed */\0120 2 0 1 5 2 1 103 0 4 4 3 95 0 3 3 31 77 0 5 5 0 95 6 1 0 0 32 0 78 1 0 24 23 22 19 16 13 12 9 6 5 0 28 1 27 7 8 22 \012CALL[ ]	/* CallFunction */";
};
width = 831;
}
);
note = braceleft;
unicode = 007B;
},
{
glyphname = braceright;
lastChange = "2021-05-21 11:44:54 +0000";
layers = (
{
layerId = "9A482FC5-A609-4CB4-BB30-47322087609F";
paths = (
{
closed = 1;
nodes = (
"604 0 OFFCURVE",
"607 3 OFFCURVE",
"607 8 CURVE SMOOTH",
"607 608 LINE",
"806 608 LINE SMOOTH",
"813 608 OFFCURVE",
"816 611 OFFCURVE",
"816 616 CURVE SMOOTH",
"816 840 LINE SMOOTH",
"816 845 OFFCURVE",
"813 848 OFFCURVE",
"806 848 CURVE SMOOTH",
"607 848 LINE",
"607 1417 LINE SMOOTH",
"607 1422 OFFCURVE",
"604 1425 OFFCURVE",
"599 1425 CURVE SMOOTH",
"87 1425 LINE SMOOTH",
"80 1425 OFFCURVE",
"77 1422 OFFCURVE",
"77 1417 CURVE SMOOTH",
"77 1194 LINE SMOOTH",
"77 1189 OFFCURVE",
"80 1186 OFFCURVE",
"87 1186 CURVE SMOOTH",
"370 1186 LINE",
"370 240 LINE",
"87 240 LINE SMOOTH",
"80 240 OFFCURVE",
"77 237 OFFCURVE",
"77 231 CURVE SMOOTH",
"77 8 LINE SMOOTH",
"77 3 OFFCURVE",
"80 0 OFFCURVE",
"87 0 CURVE SMOOTH",
"599 0 LINE SMOOTH"
);
}
);
userData = {
assembly = "NPUSHB[ ]	/* 49 values pushed */\0120 4 0 5 1 4 5 103 0 2 2 3 95 0 3 3 31 77 0 1 1 0 95 6 1 0 0 32 0 78 1 0 26 23 20 19 16 13 10 9 8 5 0 28 1 27 7 8 22 \012CALL[ ]	/* CallFunction */";
};
width = 831;
}
);
note = braceright;
unicode = 007D;
},
{
glyphname = bracketleft;
lastChange = "2021-05-21 11:44:54 +0000";
layers = (
{
layerId = "9A482FC5-A609-4CB4-BB30-47322087609F";
paths = (
{
closed = 1;
nodes = (
"602 0 OFFCURVE",
"605 3 OFFCURVE",
"605 8 CURVE SMOOTH",
"605 231 LINE SMOOTH",
"605 237 OFFCURVE",
"602 240 OFFCURVE",
"595 240 CURVE SMOOTH",
"313 240 LINE",
"313 1186 LINE",
"595 1186 LINE SMOOTH",
"602 1186 OFFCURVE",
"605 1189 OFFCURVE",
"605 1194 CURVE SMOOTH",
"605 1417 LINE SMOOTH",
"605 1422 OFFCURVE",
"602 1425 OFFCURVE",
"595 1425 CURVE SMOOTH",
"83 1425 LINE SMOOTH",
"78 1425 OFFCURVE",
"75 1422 OFFCURVE",
"75 1417 CURVE SMOOTH",
"75 8 LINE SMOOTH",
"75 3 OFFCURVE",
"78 0 OFFCURVE",
"83 0 CURVE SMOOTH",
"595 0 LINE SMOOTH"
);
}
);
userData = {
assembly = "NPUSHB[ ]	/* 37 values pushed */\0120 2 2 1 95 0 1 1 31 77 0 3 3 0 95 4 1 0 0 32 0 78 1 0 16 15 14 11 8 5 0 20 1 19 5 8 22 \012CALL[ ]	/* CallFunction */";
};
width = 684;
}
);
note = bracketleft;
unicode = 005B;
},
{
glyphname = bracketright;
lastChange = "2021-05-21 11:44:54 +0000";
layers = (
{
layerId = "9A482FC5-A609-4CB4-BB30-47322087609F";
paths = (
{
closed = 1;
nodes = (
"604 0 OFFCURVE",
"607 3 OFFCURVE",
"607 8 CURVE SMOOTH",
"607 1417 LINE SMOOTH",
"607 1422 OFFCURVE",
"604 1425 OFFCURVE",
"599 1425 CURVE SMOOTH",
"87 1425 LINE SMOOTH",
"80 1425 OFFCURVE",
"77 1422 OFFCURVE",
"77 1417 CURVE SMOOTH",
"77 1194 LINE SMOOTH",
"77 1189 OFFCURVE",
"80 1186 OFFCURVE",
"87 1186 CURVE SMOOTH",
"370 1186 LINE",
"370 240 LINE",
"87 240 LINE SMOOTH",
"80 240 OFFCURVE",
"77 237 OFFCURVE",
"77 231 CURVE SMOOTH",
"77 8 LINE SMOOTH",
"77 3 OFFCURVE",
"80 0 OFFCURVE",
"87 0 CURVE SMOOTH",
"599 0 LINE SMOOTH"
);
}
);
userData = {
assembly = "NPUSHB[ ]	/* 37 values pushed */\0120 2 2 3 95 0 3 3 31 77 0 1 1 0 95 4 1 0 0 32 0 78 1 0 16 13 10 9 8 5 0 20 1 19 5 8 22 \012CALL[ ]	/* CallFunction */";
};
width = 684;
}
);
note = bracketright;
unicode = 005D;
},
{
glyphname = hyphen;
lastChange = "2021-05-21 11:44:54 +0000";
layers = (
{
layerId = "9A482FC5-A609-4CB4-BB30-47322087609F";
paths = (
{
closed = 1;
nodes = (
"501 592 OFFCURVE",
"504 595 OFFCURVE",
"504 600 CURVE SMOOTH",
"504 823 LINE SMOOTH",
"504 828 OFFCURVE",
"501 831 OFFCURVE",
"494 831 CURVE SMOOTH",
"98 831 LINE SMOOTH",
"91 831 OFFCURVE",
"88 828 OFFCURVE",
"88 823 CURVE SMOOTH",
"88 600 LINE SMOOTH",
"88 595 OFFCURVE",
"91 592 OFFCURVE",
"98 592 CURVE SMOOTH",
"494 592 LINE SMOOTH"
);
}
);
userData = {
assembly = "NPUSHB[ ]	/* 28 values pushed */\0120 1 0 0 1 87 0 1 1 0 95 2 1 0 1 0 79 1 0 8 5 0 12 1 11 3 8 22 \012CALL[ ]	/* CallFunction */";
};
width = 620;
}
);
note = hyphen;
unicode = 002D;
},
{
glyphname = underscore;
lastChange = "2021-05-21 11:44:54 +0000";
layers = (
{
layerId = "9A482FC5-A609-4CB4-BB30-47322087609F";
paths = (
{
closed = 1;
nodes = (
"1030 -215 OFFCURVE",
"1033 -212 OFFCURVE",
"1033 -207 CURVE SMOOTH",
"1033 2 LINE SMOOTH",
"1033 7 OFFCURVE",
"1030 10 OFFCURVE",
"1025 10 CURVE SMOOTH",
"89 10 LINE SMOOTH",
"84 10 OFFCURVE",
"81 7 OFFCURVE",
"81 2 CURVE SMOOTH",
"81 -207 LINE SMOOTH",
"81 -212 OFFCURVE",
"84 -215 OFFCURVE",
"89 -215 CURVE SMOOTH",
"1025 -215 LINE SMOOTH"
);
}
);
userData = {
assembly = "PUSHB[ ]	/* 2 values pushed */\0126 100 \012WCVTP[ ]	/* WriteCVTInPixels */\012NPUSHB[ ]	/* 28 values pushed */\0120 1 0 0 1 87 0 1 1 0 95 2 1 0 1 0 79 1 0 8 5 0 12 1 11 3 8 22 \012CALL[ ]	/* CallFunction */\012PUSHB[ ]	/* 2 values pushed */\0126 0 \012WCVTP[ ]	/* WriteCVTInPixels */";
};
width = 1120;
}
);
note = underscore;
unicode = 005F;
},
{
glyphname = guillemotleft;
lastChange = "2021-05-21 11:44:54 +0000";
layers = (
{
layerId = "9A482FC5-A609-4CB4-BB30-47322087609F";
paths = (
{
closed = 1;
nodes = (
"493 209 OFFCURVE",
"498 210 OFFCURVE",
"504 215 CURVE",
"643 360 LINE SMOOTH",
"650 367 OFFCURVE",
"650 373 OFFCURVE",
"645 377 CURVE SMOOTH",
"319 694 LINE",
"649 999 LINE",
"653 1004 OFFCURVE",
"653 1009 OFFCURVE",
"649 1016 CURVE",
"514 1169 LINE",
"510 1176 OFFCURVE",
"505 1177 OFFCURVE",
"500 1171 CURVE SMOOTH",
"65 727 LINE SMOOTH",
"44 706 OFFCURVE",
"49 670 OFFCURVE",
"65 655 CURVE SMOOTH",
"489 213 LINE SMOOTH"
);
},
{
closed = 1;
nodes = (
"1005 209 OFFCURVE",
"1010 210 OFFCURVE",
"1016 215 CURVE",
"1155 360 LINE SMOOTH",
"1162 367 OFFCURVE",
"1162 373 OFFCURVE",
"1157 377 CURVE SMOOTH",
"831 694 LINE",
"1161 999 LINE",
"1165 1004 OFFCURVE",
"1165 1009 OFFCURVE",
"1161 1016 CURVE",
"1026 1169 LINE",
"1022 1176 OFFCURVE",
"1017 1177 OFFCURVE",
"1012 1171 CURVE SMOOTH",
"577 727 LINE SMOOTH",
"556 706 OFFCURVE",
"561 670 OFFCURVE",
"577 655 CURVE SMOOTH",
"1001 213 LINE SMOOTH"
);
}
);
userData = {
assembly = "PUSHB[ ]	/* 6 values pushed */\01235 25 17 7 2 50 \012CALL[ ]	/* CallFunction */";
};
width = 1243;
}
);
note = guillemotleft;
unicode = 00AB;
},
{
glyphname = guillemotright;
lastChange = "2021-05-21 11:44:54 +0000";
layers = (
{
layerId = "9A482FC5-A609-4CB4-BB30-47322087609F";
paths = (
{
closed = 1;
nodes = (
"686 680 OFFCURVE",
"681 716 OFFCURVE",
"665 729 CURVE",
"241 1171 LINE SMOOTH",
"237 1176 OFFCURVE",
"232 1175 OFFCURVE",
"227 1169 CURVE SMOOTH",
"87 1024 LINE SMOOTH",
"80 1017 OFFCURVE",
"80 1012 OFFCURVE",
"85 1008 CURVE SMOOTH",
"411 690 LINE",
"81 385 LINE SMOOTH",
"77 381 OFFCURVE",
"77 376 OFFCURVE",
"81 369 CURVE",
"216 215 LINE",
"220 208 OFFCURVE",
"225 208 OFFCURVE",
"231 213 CURVE",
"665 657 LINE SMOOTH"
);
},
{
closed = 1;
nodes = (
"1198 680 OFFCURVE",
"1193 716 OFFCURVE",
"1177 729 CURVE",
"753 1171 LINE SMOOTH",
"749 1176 OFFCURVE",
"744 1175 OFFCURVE",
"739 1169 CURVE SMOOTH",
"599 1024 LINE SMOOTH",
"592 1017 OFFCURVE",
"592 1012 OFFCURVE",
"597 1008 CURVE SMOOTH",
"923 690 LINE",
"593 385 LINE SMOOTH",
"589 381 OFFCURVE",
"589 376 OFFCURVE",
"593 369 CURVE",
"728 215 LINE",
"732 208 OFFCURVE",
"737 208 OFFCURVE",
"743 213 CURVE",
"1177 657 LINE SMOOTH"
);
}
);
userData = {
assembly = "PUSHB[ ]	/* 6 values pushed */\01231 21 13 3 2 50 \012CALL[ ]	/* CallFunction */";
};
width = 1243;
}
);
note = guillemotright;
unicode = 00BB;
},
{
glyphname = quotedbl;
lastChange = "2021-05-21 11:44:54 +0000";
layers = (
{
layerId = "9A482FC5-A609-4CB4-BB30-47322087609F";
paths = (
{
closed = 1;
nodes = (
"301 944 OFFCURVE",
"303 946 OFFCURVE",
"303 950 CURVE SMOOTH",
"342 1417 LINE",
"343 1422 OFFCURVE",
"341 1425 OFFCURVE",
"334 1425 CURVE SMOOTH",
"131 1425 LINE SMOOTH",
"126 1425 OFFCURVE",
"122 1422 OFFCURVE",
"121 1417 CURVE",
"88 954 LINE SMOOTH",
"88 947 OFFCURVE",
"91 944 OFFCURVE",
"96 944 CURVE SMOOTH",
"297 944 LINE SMOOTH"
);
},
{
closed = 1;
nodes = (
"668 944 OFFCURVE",
"670 946 OFFCURVE",
"670 950 CURVE SMOOTH",
"709 1417 LINE",
"710 1422 OFFCURVE",
"707 1425 OFFCURVE",
"700 1425 CURVE SMOOTH",
"498 1425 LINE SMOOTH",
"492 1425 OFFCURVE",
"488 1422 OFFCURVE",
"487 1417 CURVE",
"455 954 LINE SMOOTH",
"455 947 OFFCURVE",
"458 944 OFFCURVE",
"463 944 CURVE SMOOTH",
"663 944 LINE SMOOTH"
);
}
);
userData = {
assembly = "NPUSHB[ ]	/* 34 values pushed */\0125 2 4 3 0 0 1 95 3 1 1 1 31 0 78 14 13 1 0 21 18 13 25 14 24 8 5 0 12 1 11 6 8 22 \012CALL[ ]	/* CallFunction */";
};
width = 800;
}
);
note = quotedbl;
unicode = 0022;
},
{
glyphname = quotesingle;
lastChange = "2021-05-21 11:44:54 +0000";
layers = (
{
layerId = "9A482FC5-A609-4CB4-BB30-47322087609F";
paths = (
{
closed = 1;
nodes = (
"301 944 OFFCURVE",
"303 946 OFFCURVE",
"303 950 CURVE SMOOTH",
"342 1417 LINE",
"343 1422 OFFCURVE",
"341 1425 OFFCURVE",
"334 1425 CURVE SMOOTH",
"131 1425 LINE SMOOTH",
"126 1425 OFFCURVE",
"122 1422 OFFCURVE",
"121 1417 CURVE",
"88 954 LINE SMOOTH",
"88 947 OFFCURVE",
"91 944 OFFCURVE",
"96 944 CURVE SMOOTH",
"297 944 LINE SMOOTH"
);
}
);
userData = {
assembly = "NPUSHB[ ]	/* 23 values pushed */\0122 1 0 0 1 95 0 1 1 31 0 78 1 0 8 5 0 12 1 11 3 8 22 \012CALL[ ]	/* CallFunction */";
};
width = 434;
}
);
note = quotesingle;
unicode = 0027;
},
{
glyphname = uni17D4;
lastChange = "2021-05-21 11:44:54 +0000";
layers = (
{
layerId = "9A482FC5-A609-4CB4-BB30-47322087609F";
paths = (
{
closed = 1;
nodes = (
"552 1100 OFFCURVE",
"652 1149 OFFCURVE",
"750 1246 CURVE",
"750 0 LINE",
"1050 0 LINE",
"1050 1500 LINE",
"750 1500 LINE",
"612 1380 OFFCURVE",
"512 1320 OFFCURVE",
"450 1320 CURVE",
"450 1500 LINE",
"150 1500 LINE",
"150 1100 LINE",
"450 1100 LINE SMOOTH"
);
}
);
width = 1200;
}
);
note = uni17D4;
unicode = 17D4;
},
{
glyphname = uni17D5;
lastChange = "2021-05-21 11:44:54 +0000";
layers = (
{
layerId = "9A482FC5-A609-4CB4-BB30-47322087609F";
paths = (
{
closed = 1;
nodes = (
"552 1100 OFFCURVE",
"652 1149 OFFCURVE",
"750 1246 CURVE",
"750 0 LINE",
"1050 0 LINE",
"1050 1500 LINE",
"750 1500 LINE",
"612 1380 OFFCURVE",
"512 1320 OFFCURVE",
"450 1320 CURVE",
"450 1500 LINE",
"150 1500 LINE",
"150 1100 LINE",
"450 1100 LINE SMOOTH"
);
},
{
closed = 1;
nodes = (
"1500 1500 LINE",
"1200 1500 LINE",
"1200 0 LINE",
"1500 0 LINE"
);
}
);
width = 1650;
}
);
note = uni17D5;
unicode = 17D5;
},
{
glyphname = uni17D6;
lastChange = "2021-05-21 11:44:54 +0000";
layers = (
{
layerId = "9A482FC5-A609-4CB4-BB30-47322087609F";
paths = (
{
closed = 1;
nodes = (
"349 1500 OFFCURVE",
"245 1447 OFFCURVE",
"191 1351 CURVE SMOOTH",
"164 1302 OFFCURVE",
"150 1252 OFFCURVE",
"150 1200 CURVE SMOOTH",
"150 1096 OFFCURVE",
"205 992 OFFCURVE",
"301 940 CURVE SMOOTH",
"348 913 OFFCURVE",
"398 900 OFFCURVE",
"450 900 CURVE SMOOTH",
"554 900 OFFCURVE",
"658 955 OFFCURVE",
"711 1051 CURVE SMOOTH",
"737 1098 OFFCURVE",
"750 1148 OFFCURVE",
"750 1200 CURVE SMOOTH",
"750 1304 OFFCURVE",
"693 1410 OFFCURVE",
"597 1462 CURVE SMOOTH",
"549 1487 OFFCURVE",
"500 1500 OFFCURVE",
"450 1500 CURVE SMOOTH"
);
},
{
closed = 1;
nodes = (
"504 1300 OFFCURVE",
"550 1255 OFFCURVE",
"550 1200 CURVE SMOOTH",
"550 1144 OFFCURVE",
"506 1100 OFFCURVE",
"450 1100 CURVE SMOOTH",
"394 1100 OFFCURVE",
"350 1144 OFFCURVE",
"350 1200 CURVE SMOOTH",
"350 1255 OFFCURVE",
"396 1300 OFFCURVE",
"450 1300 CURVE SMOOTH"
);
},
{
closed = 1;
nodes = (
"50 800 LINE",
"50 700 LINE",
"850 700 LINE",
"850 800 LINE"
);
},
{
closed = 1;
nodes = (
"349 600 OFFCURVE",
"245 547 OFFCURVE",
"191 451 CURVE SMOOTH",
"164 402 OFFCURVE",
"150 352 OFFCURVE",
"150 300 CURVE SMOOTH",
"150 196 OFFCURVE",
"205 92 OFFCURVE",
"301 40 CURVE SMOOTH",
"348 13 OFFCURVE",
"398 0 OFFCURVE",
"450 0 CURVE SMOOTH",
"554 0 OFFCURVE",
"658 55 OFFCURVE",
"711 151 CURVE SMOOTH",
"737 198 OFFCURVE",
"750 248 OFFCURVE",
"750 300 CURVE SMOOTH",
"750 404 OFFCURVE",
"693 510 OFFCURVE",
"597 562 CURVE SMOOTH",
"549 587 OFFCURVE",
"500 600 OFFCURVE",
"450 600 CURVE SMOOTH"
);
},
{
closed = 1;
nodes = (
"504 400 OFFCURVE",
"550 355 OFFCURVE",
"550 300 CURVE SMOOTH",
"550 244 OFFCURVE",
"506 200 OFFCURVE",
"450 200 CURVE SMOOTH",
"394 200 OFFCURVE",
"350 244 OFFCURVE",
"350 300 CURVE SMOOTH",
"350 355 OFFCURVE",
"396 400 OFFCURVE",
"450 400 CURVE SMOOTH"
);
}
);
width = 900;
}
);
note = uni17D6;
unicode = 17D6;
},
{
glyphname = uni17D7;
lastChange = "2021-05-21 11:44:54 +0000";
layers = (
{
layerId = "9A482FC5-A609-4CB4-BB30-47322087609F";
paths = (
{
closed = 1;
nodes = (
"450 1240 LINE",
"600 1100 LINE",
"750 1240 LINE",
"750 0 LINE",
"1050 0 LINE",
"1050 1500 LINE",
"750 1500 LINE",
"600 1360 LINE",
"450 1500 LINE",
"150 1500 LINE",
"150 1100 LINE",
"450 1100 LINE"
);
}
);
width = 1200;
}
);
note = uni17D7;
unicode = 17D7;
},
